<svg width="162" height="39" viewBox="0 0 162 39" fill="none" xmlns="http://www.w3.org/2000/svg"><path d="M0.229461 23.544C-0.293081 22.9832 0.0801635 22.2321 1.31526 20.4716C1.61386 20.0977 1.91246 20.0229 2.28909 20.1725C6.29299 22.2355 8.53925 22.2355 10.3715 22.2355C14.0022 22.2355 15.5732 20.3254 13.7002 17.9259C12.7637 16.6888 9.77096 16.128 8.49853 15.7134C4.56928 14.5511 2.2857 12.9741 1.53921 10.3877C-0.03181 5.55136 3.18488 1.20445 9.54701 0.531507C11.7152 0.344579 14.1854 0.755819 16.167 1.5817C18.1113 2.55712 18.9731 3.41699 18.7492 4.05594C18.4506 4.76626 17.5514 5.85384 17.0289 6.56756C16.581 7.12834 15.1593 5.93201 13.4355 5.55476C11.9765 5.25567 10.3308 4.84103 8.19654 5.59214C5.95029 6.67972 5.50239 8.62716 7.22271 9.93905C9.01768 11.2136 11.3013 12.0021 12.6857 12.4881C14.0701 13.0115 16.279 13.7626 17.3987 15.1492C18.4099 16.1247 19.1564 18.1095 19.1564 19.6831C19.1564 23.8431 15.6377 26.4668 10.626 26.5416C6.55087 26.6164 1.80048 24.968 0.229461 23.544Z" fill="#FDFFFD"></path><path d="M24.9993 25.9813V1.13354C24.9993 0.759686 25.2979 0.460602 25.6711 0.460602H34.3881C38.9892 0.460602 42.6571 4.17196 42.6571 8.74318C42.6571 13.3518 38.9892 17.0258 34.3881 17.0258H30.6488C30.089 17.0258 29.7123 17.1753 29.7123 17.7769V25.9847C29.7123 26.3585 29.4137 26.661 29.0371 26.661H25.6711C25.2979 26.6542 24.9993 26.3551 24.9993 25.9813ZM34.3881 12.2268C36.295 12.2268 37.8694 10.6906 37.8694 8.73978C37.8694 6.82973 36.2984 5.29012 34.3881 5.29012H30.6115C29.977 5.29012 29.7123 5.55182 29.7123 6.04123V12.2268H34.3881Z" fill="#FDFFFD"></path><path d="M48.0857 25.8669V1.1687C48.0857 0.794842 48.3843 0.495758 48.7575 0.495758H65.5196C65.8929 0.495758 66.1948 0.794842 66.1948 1.1687V4.31587C66.1948 4.68973 65.8963 4.98881 65.5196 4.98881H53.4333C53.06 4.98881 52.758 5.2879 52.758 5.66175V11.171C52.758 11.657 52.7207 11.8847 53.6199 11.8847H62.9748C63.3107 11.8847 63.6127 12.1464 63.6127 12.4829V15.6675C63.6127 16.0039 63.3141 16.269 62.9748 16.269H53.5826C52.7988 16.269 52.758 16.942 52.758 17.1289V21.102C52.758 21.4758 52.8327 22.0026 53.8065 22.0026H65.7809C66.1541 22.0026 66.4527 22.3391 66.4527 22.7163V25.8635C66.4527 26.2374 66.1541 26.5364 65.7809 26.5364H48.7609C48.3843 26.5398 48.0857 26.2408 48.0857 25.8669Z" fill="#FDFFFD"></path><path d="M72.2903 25.8669V1.1687C72.2903 0.794842 72.5889 0.495758 72.9621 0.495758H89.7242C90.0974 0.495758 90.396 0.794842 90.396 1.1687V4.31587C90.396 4.68973 90.0974 4.98881 89.7242 4.98881H77.6379C77.2646 4.98881 76.9626 5.2879 76.9626 5.66175V11.171C76.9626 11.657 76.9253 11.8847 77.8245 11.8847H87.1793C87.5153 11.8847 87.8139 12.1464 87.8139 12.4829V15.6675C87.8139 16.0039 87.5153 16.269 87.1793 16.269H77.7872C77.0033 16.269 76.9626 16.942 76.9626 17.1289V21.102C76.9626 21.4758 77.0373 22.0026 78.0111 22.0026H89.9855C90.3587 22.0026 90.6573 22.3391 90.6573 22.7163V25.8635C90.6573 26.2374 90.3587 26.5364 89.9855 26.5364H72.9587C72.5923 26.5398 72.2903 26.2408 72.2903 25.8669Z" fill="#FDFFFD"></path><path d="M101.216 25.7929V22.5336C101.216 22.0476 101.589 21.7111 102.04 21.7111H105.071C109.597 21.7111 113.265 18.0372 113.265 13.5033C113.265 8.96949 109.597 5.29552 105.071 5.29552H102.04C101.779 5.29552 101.593 5.48244 101.593 5.74414V14.7472C101.593 15.1959 101.219 15.5323 100.768 15.5323H97.514C97.1034 15.5323 96.7268 15.1585 96.7268 14.7472V1.24429C96.7268 0.795665 97.1001 0.418411 97.514 0.418411H105.074C112.295 0.418411 118.131 6.26414 118.131 13.4999C118.131 20.7323 112.295 26.5814 105.074 26.5814H102.044C101.589 26.578 101.216 26.2416 101.216 25.7929Z" fill="#FDFFFD"></path><path d="M123.997 25.9786V1.09345C123.997 0.719598 124.333 0.37973 124.71 0.37973H128.602C128.975 0.37973 129.277 0.716199 129.277 1.09345V25.9786C129.277 26.3524 128.978 26.6549 128.602 26.6549H124.71C124.333 26.6515 123.997 26.3524 123.997 25.9786Z" fill="#FDFFFD"></path><path d="M138.366 4.83915C140.874 1.80413 144.314 0.193158 147.87 0.00283216C148.318 -0.0345533 148.658 0.301916 148.695 0.791326V4.05066C148.695 4.53667 148.434 4.79837 147.908 4.83915C145.661 5.02608 143.531 6.15104 142.109 7.94894C139.041 11.6229 139.527 17.0948 143.12 20.1298C146.788 23.2022 152.176 22.7536 155.169 19.0796C157.415 16.3811 157.826 12.6323 156.255 9.52253C155.919 8.80881 155.994 8.3228 156.516 7.91156C156.927 7.68725 158.274 6.71182 158.762 6.37536C159.285 6.03889 159.923 6.22581 160.221 6.74921C162.99 11.6603 162.505 17.8425 158.912 22.1894C154.422 27.923 145.441 28.7115 140.09 23.9125C134.437 19.1204 133.687 10.5353 138.366 4.83915Z" fill="#FDFFFD"></path><path d="M154.659 36.3762C154.659 36.3762 153.909 36.6379 153.424 36.7875C152.976 36.937 150.991 37.5386 149.271 37.6881C147.625 37.8377 145.155 37.9872 145.155 37.9872C143.995 38.062 142.125 38.0994 141.002 38.0246C141.002 38.0246 138.942 37.9124 136.886 37.6881C134.83 37.4264 132.658 36.7501 132.658 36.7501L131.535 36.3762C131.05 36.2267 130.673 35.7033 130.673 35.2139V33.3412C130.673 32.8552 131.084 32.5527 131.535 32.6683L132.658 32.9674C136.811 34.0175 138.084 34.3914 141.002 34.4662C142.125 34.4662 143.995 34.4288 145.155 34.3914C145.155 34.3914 147.327 34.2419 149.271 34.0175C151.215 33.7932 153.499 33.0795 153.499 33.0795L154.659 32.7057C155.107 32.5935 155.484 32.8552 155.484 33.3446V35.2173C155.48 35.7033 155.107 36.2267 154.659 36.3762Z" fill="#FDFFFD"></path><path d="M154.45 13.5834C154.45 16.802 151.844 19.4121 148.631 19.4121C145.418 19.4121 142.812 16.802 142.812 13.5834C142.812 10.3649 145.418 7.75467 148.631 7.75467C151.844 7.75467 154.45 10.3649 154.45 13.5834Z" fill="#6AABDD"></path></svg>