<svg width="137" height="32" viewBox="0 0 137 32" fill="none" xmlns="http://www.w3.org/2000/svg">
<path d="M61.3272 31.2328V15.237C62.4388 15.237 63.3887 15.2217 64.3371 15.237C66.4743 15.2767 67.3889 16.0394 67.514 18.138C67.6446 20.3966 67.6303 22.6643 67.6523 24.9279C67.672 26.9857 67.6523 29.0433 67.6523 31.0997H73.4831C73.4831 26.2818 73.7504 21.5432 73.3969 16.8507C73.1256 13.2676 71.1503 10.2694 66.1141 10.5074C63.309 10.6354 60.4922 10.5317 57.6806 10.5317H55.3752V31.2328H61.3272Z" fill="#AEAEAE"/>
<path d="M96.6116 10.6046C98.8609 13.9317 100.917 17.0132 103.012 20.074C103.414 20.6601 103.534 21.0979 103.072 21.7645C101.115 24.5594 99.2235 27.3951 97.3148 30.227C97.1139 30.5251 96.9495 30.8476 96.6859 31.3006C98.5516 31.3006 100.209 31.3786 101.854 31.2584C102.432 31.2175 103.143 30.8169 103.496 30.3626C104.671 28.8487 105.7 27.2338 106.902 25.491C108.093 27.2211 109.16 28.8117 110.278 30.3664C110.539 30.7362 110.972 31.2315 111.347 31.2482C113.259 31.3376 115.18 31.2904 117.377 31.2904C115.151 28.0912 113.163 25.148 111.073 22.2777C110.397 21.3486 110.29 20.7088 111.028 19.7248C112.933 17.1961 114.693 14.5613 116.508 11.9636C116.769 11.5887 116.984 11.183 117.33 10.6097C115.382 10.6097 113.725 10.5227 112.088 10.6545C111.397 10.7408 110.765 11.0822 110.321 11.6091C109.129 13.1614 108.092 14.8275 106.906 16.5806C105.637 14.7085 104.519 13.0206 103.35 11.3686C103.123 11.0474 102.705 10.6596 102.361 10.6455C100.52 10.5675 98.6795 10.6046 96.6116 10.6046Z" fill="#AEAEAE"/>
<path d="M23.5212 10.6711V31.371H29.1237V10.6711H23.5212Z" fill="#AEAEAE"/>
<path d="M29.6507 5.24524C29.6403 3.2784 28.136 1.80422 26.1464 1.81447C25.6821 1.8088 25.2217 1.89505 24.7924 2.06804C24.3632 2.24102 23.9739 2.49721 23.648 2.82122C23.322 3.14524 23.066 3.53046 22.8954 3.95378C22.7247 4.3771 22.643 4.82986 22.655 5.28491C22.6598 6.20467 23.0363 7.085 23.7021 7.73273C24.3679 8.38048 25.2685 8.74272 26.2063 8.73999C28.2064 8.72337 29.6611 7.25047 29.6507 5.24524Z" fill="#AEAEAE"/>
<path d="M61.3272 31.2327H55.3752V10.5303H57.6741C60.4857 10.5303 63.3025 10.6377 66.1077 10.5059C71.1437 10.2679 73.119 13.2649 73.3905 16.8492C73.744 21.5417 73.4764 26.2803 73.4764 31.0982H67.6498C67.6498 29.0418 67.6654 26.9842 67.6498 24.9265C67.6276 22.6628 67.6498 20.3952 67.5115 18.1366C67.381 16.0379 66.4677 15.2752 64.3346 15.2356C63.386 15.2164 62.4361 15.2356 61.3246 15.2356L61.3272 31.2327Z" fill="#AEAEAE"/>
<path d="M95.7935 19.5327C95.3291 12.6699 89.7827 8.93969 83.2906 11.1817C79.2826 12.565 77.5148 15.7117 76.9602 19.6031C76.4384 23.2859 77.5134 28.461 82.1635 30.3971C86.3306 32.1336 90.4547 31.5194 94.6427 30.1949C94.3726 28.6797 94.1208 27.3016 93.8599 25.844C93.0771 26.0398 92.464 26.2215 91.835 26.3495C89.6575 26.791 87.4747 27.1019 85.3377 26.192C83.9351 25.5944 82.907 24.6873 82.8132 22.8291H95.7974C95.8039 21.5905 95.8626 20.5578 95.7935 19.5327ZM82.9983 19.1168C82.7492 17.0936 84.3266 15.3892 86.5132 15.2945C88.8094 15.196 90.2969 16.6586 90.2877 19.1168H82.9983Z" fill="#AEAEAE"/>
<path d="M96.6116 10.6046C98.6795 10.6046 100.526 10.5675 102.352 10.6378C102.695 10.6519 103.114 11.0397 103.341 11.3609C104.515 13.0129 105.628 14.7008 106.896 16.5729C108.082 14.8198 109.114 13.1537 110.312 11.6014C110.756 11.0742 111.388 10.7328 112.08 10.6468C113.717 10.5188 115.374 10.602 117.322 10.602C116.977 11.1753 116.761 11.581 116.5 11.9559C114.691 14.5536 112.931 17.1885 111.021 19.7171C110.28 20.7011 110.389 21.3409 111.065 22.27C113.152 25.1403 115.143 28.0834 117.369 31.2825C115.172 31.2825 113.252 31.3299 111.339 31.2403C110.965 31.2238 110.537 30.7286 110.27 30.3587C109.152 28.804 108.085 27.2132 106.894 25.4831C105.692 27.2262 104.659 28.841 103.489 30.3549C103.135 30.8117 102.424 31.2123 101.846 31.2506C100.202 31.3709 98.5439 31.2928 96.6782 31.2928C96.9391 30.8399 97.106 30.5174 97.307 30.2192C99.2235 27.395 101.121 24.5542 103.078 21.7593C103.541 21.0978 103.419 20.655 103.018 20.0689C100.921 17.013 98.8609 13.9368 96.6116 10.6046Z" fill="#AEAEAE"/>
<path d="M23.5212 10.6711H29.1237V31.371H23.5212V10.6711Z" fill="#AEAEAE"/>
<path d="M29.6507 5.24553C29.6611 7.25077 28.2064 8.72366 26.2063 8.73389C25.2685 8.73662 24.3679 8.37437 23.7021 7.72664C23.0363 7.07889 22.6598 6.19858 22.655 5.27881C22.643 4.82375 22.7247 4.37101 22.8954 3.94768C23.066 3.52435 23.322 3.13915 23.648 2.81513C23.9739 2.49111 24.3632 2.23493 24.7924 2.06194C25.2217 1.88894 25.6821 1.8027 26.1464 1.80837C28.136 1.80453 29.6403 3.2787 29.6507 5.24553Z" fill="#AEAEAE"/>
<path d="M19.6736 17.7093C18.7055 12.5906 15.9423 10.5905 10.6713 10.5956C9.14216 10.5956 7.61436 10.5956 5.97436 10.5956V0C4.27826 0.623195 2.75047 1.21952 1.19528 1.7429C0.321138 2.03722 -0.00894893 2.49278 0.000183917 3.44997C0.062809 10.0389 0.0536763 16.6304 0.0654184 23.2181C0.0654184 25.9118 0.0654184 28.6056 0.0654184 31.4835C3.90513 31.4835 7.46302 31.4566 11.0248 31.4925C13.3237 31.5167 15.2416 30.6581 16.8176 29.1124C20.099 25.899 20.4552 21.8349 19.6736 17.7093ZM12.747 25.0827C11.1396 27.5396 8.63594 26.9676 6.09309 26.7462V15.1499C8.5159 15.6362 11.4423 14.0776 12.9884 16.8288C14.477 19.4713 14.4888 22.4273 12.747 25.0878V25.0827Z" fill="#AEAEAE"/>
<path d="M42.1561 10.7646C36.2537 10.7441 32.2235 14.8941 32.2156 21.0019C32.2079 27.1853 36.2537 31.4363 42.1601 31.4516C48.0664 31.467 52.1108 27.3068 52.1735 21.2424C52.2218 16.6293 48.8504 10.5752 42.1561 10.7646ZM45.5848 24.736C45.5483 24.8179 45.5104 24.8958 45.47 24.9727L45.4217 25.0558C45.3965 25.1027 45.3704 25.1489 45.3434 25.1941C45.3225 25.2286 45.3005 25.2619 45.2782 25.2952L45.2077 25.4013C45.1817 25.4385 45.1529 25.4729 45.1255 25.5088L45.0603 25.5945C45.029 25.6329 44.9964 25.6688 44.9638 25.7046C44.9312 25.7405 44.9246 25.752 44.9024 25.7737C44.8803 25.7954 44.8307 25.848 44.7929 25.8838L44.7355 25.9387C44.6962 25.9759 44.6545 26.0118 44.6115 26.0463L44.5592 26.0897C44.5136 26.1269 44.4679 26.1601 44.421 26.1935L44.3741 26.228C44.3232 26.2612 44.2723 26.2946 44.2201 26.3253L44.1783 26.3508C44.1235 26.3828 44.0675 26.4135 44.01 26.4417L43.9749 26.4609C43.9147 26.4904 43.8535 26.5173 43.7908 26.544L43.7621 26.5555C43.6969 26.5825 43.6318 26.6067 43.5639 26.6299L43.5417 26.6376C43.4711 26.6606 43.4007 26.6823 43.3289 26.7015H43.3121C43.2376 26.7207 43.162 26.7385 43.085 26.754H43.0746C42.995 26.7694 42.9154 26.7821 42.8332 26.7936C42.7463 26.8056 42.6592 26.8146 42.5723 26.8206C42.3405 26.8454 42.1073 26.8535 41.8742 26.8448C40.3961 26.7884 39.2845 26.0642 38.6894 24.745C37.604 22.3392 37.5623 19.8937 38.6894 17.4893C39.2048 16.395 40.0634 15.7438 41.1945 15.5211C41.5799 15.4387 41.9747 15.4064 42.3687 15.4251C43.8508 15.4853 44.9598 16.1635 45.577 17.4726C46.7147 19.8847 46.6663 22.3314 45.5848 24.736Z" fill="#AEAEAE"/>
<path d="M126.981 10.7646C121.08 10.7441 117.048 14.8941 117.042 21.0019C117.038 27.1788 121.082 31.4324 126.985 31.4478C132.887 31.4631 136.935 27.3068 136.999 21.2386C137.046 16.6293 133.676 10.5752 126.981 10.7646ZM131.231 21.3359C131.231 21.4882 131.218 21.6392 131.204 21.7902C131.106 22.8075 130.838 23.802 130.409 24.7333C130.373 24.8152 130.335 24.8933 130.295 24.9701C130.28 24.9983 130.263 25.0251 130.248 25.0533C130.232 25.0815 130.197 25.1467 130.169 25.1915L130.103 25.2926C130.079 25.3284 130.057 25.3643 130.032 25.3988C130.008 25.4334 129.978 25.4704 129.95 25.5063C129.923 25.5421 129.907 25.5638 129.885 25.592C129.863 25.6202 129.821 25.6663 129.79 25.7021C129.758 25.738 129.749 25.7495 129.728 25.7712C129.708 25.7929 129.655 25.8454 129.617 25.8813C129.58 25.917 129.581 25.9183 129.561 25.9362C129.521 25.9734 129.479 26.0091 129.431 26.0438L129.377 26.0872C129.333 26.1244 129.286 26.1576 129.239 26.1908L129.192 26.2255C129.141 26.2587 129.09 26.2919 129.038 26.3226L128.996 26.3483C128.942 26.3803 128.886 26.411 128.828 26.4392L128.793 26.4571C128.733 26.4878 128.672 26.5146 128.61 26.5415L128.58 26.553C128.516 26.58 128.45 26.6042 128.382 26.6272L128.36 26.6349C128.291 26.6581 128.219 26.6798 128.147 26.699H128.13C128.056 26.718 127.98 26.736 127.903 26.7514H127.893C127.814 26.7667 127.733 26.7796 127.651 26.7911C127.564 26.8031 127.479 26.8119 127.397 26.8179C127.166 26.8428 126.933 26.851 126.7 26.8423C125.221 26.7859 124.109 26.0617 123.514 24.7423C122.43 22.3366 122.387 19.8911 123.514 17.4866C124.036 16.3925 124.888 15.7412 126.019 15.5185C126.405 15.4361 126.799 15.4038 127.193 15.4225C127.958 15.4312 128.701 15.6727 129.32 16.1136C129.384 16.1609 129.451 16.2108 129.507 16.2632C129.629 16.3697 129.743 16.4848 129.848 16.6075C130.072 16.8706 130.258 17.1619 130.402 17.4738C130.507 17.699 130.603 17.9247 130.689 18.1508C130.746 18.3018 130.798 18.4528 130.845 18.6038C130.87 18.6793 130.892 18.7549 130.914 18.8303C131 19.1288 131.069 19.4317 131.12 19.7376C131.211 20.2655 131.248 20.8008 131.231 21.3359Z" fill="#AEAEAE"/>
</svg>
