<svg width="120" height="62" viewBox="0 0 120 62" fill="none" xmlns="http://www.w3.org/2000/svg">
<rect x="0.360291" width="119.24" height="61.2992" rx="10" fill="#D9D9D9" fill-opacity="0.08"/>
<path d="M47.7017 33.3968V35.7209C47.7017 38.5189 46.3027 40.121 43.6175 40.121C40.9098 40.121 39.5108 38.5189 39.5108 35.7209L39.4883 26.6275C39.4883 23.8296 40.8873 22.2275 43.5724 22.2275C46.2801 22.2275 47.6791 23.8296 47.6791 26.6275V28.3198H45.0842V26.447C45.0842 25.206 44.5427 24.7321 43.6627 24.7321C42.7827 24.7321 42.2411 25.206 42.2411 26.447L42.2637 35.8789C42.2637 37.1199 42.8052 37.5712 43.6852 37.5712C44.5652 37.5712 45.1068 37.1199 45.1068 35.8789V33.3742L47.7017 33.3968ZM53.3428 40.0984C50.635 40.0984 49.1684 38.4963 49.1684 35.6984L49.1458 26.605C49.1458 23.807 50.6125 22.2049 53.3202 22.2049C56.0279 22.2049 57.4946 23.807 57.4946 26.605L57.5172 35.6984C57.5172 38.4963 56.0279 40.0984 53.3428 40.0984ZM54.7417 26.447C54.7417 25.206 54.2002 24.7321 53.3202 24.7321C52.4402 24.7321 51.8986 25.206 51.8986 26.447L51.9212 35.8789C51.9212 37.1199 52.4627 37.5938 53.3428 37.5938C54.2228 37.5938 54.7643 37.1199 54.7643 35.8789L54.7417 26.447ZM68.2126 39.8953L68.1901 27.3496L66.3172 39.8953H63.7223L61.669 27.5301L61.6915 39.8953H59.2997L59.232 22.408H63.0454L65.0762 34.8184L66.9265 22.408H70.7398L70.7624 39.8953H68.2126ZM76.8322 33.3066H75.5235V39.8728H72.7706V22.408H76.8096C79.5625 22.408 80.9163 23.9198 80.9163 26.7178V28.9968C80.9389 31.7722 79.585 33.3066 76.8322 33.3066ZM78.1861 26.5373C78.1861 25.2962 77.7122 24.8901 76.8322 24.8901H75.5235V30.8019H76.8322C77.7122 30.8019 78.1861 30.3958 78.1861 29.1547V26.5373ZM88.1369 39.8728L87.6631 36.6912H84.301L83.8271 39.8728H81.2999L84.0753 22.3854H88.0918L90.9123 39.8728H88.1369ZM85.9482 25.4767L84.6394 34.3219H87.2795L85.9482 25.4767ZM98.0652 39.8502L94.6354 27.1916L94.658 39.8502H92.1759L92.1534 22.3629H95.6057L98.4488 32.8327L98.4262 22.3629H100.886L100.908 39.8502H98.0652ZM108.174 34.0512V39.8502H105.421V34.0512L101.924 22.3629H104.789L106.888 30.3281L108.986 22.3629H111.604L108.174 34.0512ZM26.4912 32.043H20.5794C20.4666 32.043 20.3989 31.9076 20.4891 31.8173L26.401 25.9055C26.4912 25.8152 26.6266 25.8829 26.6266 25.9957V31.9076C26.6266 31.9753 26.5589 32.0204 26.4912 32.043ZM30.6656 36.3527H34.2985C34.3211 36.3527 34.3436 36.3753 34.3436 36.3979V40.2112C34.3436 42.0164 32.8769 43.5056 31.0492 43.5056L12.0727 43.5282C10.2675 43.5282 8.77827 42.0615 8.77827 40.2564L8.75571 20.7834C8.75571 19.1362 9.99674 17.7598 11.5988 17.5567C11.6214 17.5567 11.6439 17.5792 11.6439 17.6018L11.6665 29.1096C11.6665 29.1322 11.6665 29.1322 11.6891 29.1322L13.7424 31.1855C13.765 31.2081 13.7875 31.2081 13.8101 31.1855L24.7538 20.0387C24.7764 20.0162 24.7538 19.9485 24.7312 19.9485H21.2112C21.1886 19.9485 21.1886 19.9485 21.1886 19.9711L14.4645 26.6727C14.4419 26.6952 14.3742 26.6727 14.3742 26.6501L14.3517 17.5567C14.3517 17.5341 14.3742 17.5115 14.3968 17.5115L31.0041 17.489C32.8092 17.489 34.2985 18.9557 34.2985 20.7608L34.3211 32.0204C34.3211 32.043 34.2985 32.0655 34.2759 32.0655H30.7108C30.6882 32.0655 30.6656 32.043 30.6656 32.0204L30.6431 20.5126C30.6431 20.1967 30.3949 20.0613 30.3497 20.0613H26.4912C26.4687 20.0613 26.4687 20.0613 26.4687 20.0839L14.6676 31.9301C14.3291 32.2686 14.3742 32.6748 14.3742 32.7199V36.1948C14.3742 36.3076 14.4645 36.3753 14.5547 36.3753L26.4236 36.3527C26.4461 36.3527 26.4687 36.3753 26.4687 36.3979V40.2112C26.4687 40.2338 26.4912 40.2564 26.5138 40.2564H30.5754C30.5979 40.2564 30.6205 40.2338 30.6205 40.2112V36.3979C30.6205 36.3753 30.6431 36.3527 30.6656 36.3527Z" fill="#AEAEAE"/>
</svg>
