<svg width="120" height="62" viewBox="0 0 120 62" fill="none" xmlns="http://www.w3.org/2000/svg">
<rect x="0.1604" width="119.24" height="61.2992" rx="10" fill="#D9D9D9" fill-opacity="0.08"/>
<mask id="mask0_558_2231" style="mask-type:luminance" maskUnits="userSpaceOnUse" x="7" y="17" width="106" height="28">
<path d="M112.105 17.489H7.15754V44.1336H112.105V17.489Z" fill="white"/>
</mask>
<g mask="url(#mask0_558_2231)">
<path d="M25.2414 24.8328L14.4501 35.7108C14.2624 35.9005 13.9578 35.9005 13.771 35.7108L7.29837 29.189C7.1106 28.9993 7.1106 28.693 7.29837 28.5053L18.0868 17.6313C18.2746 17.4416 18.5791 17.4416 18.7659 17.6313L25.2414 24.158C25.4263 24.3448 25.4263 24.6461 25.2414 24.8328Z" fill="#AEAEAE"/>
<path d="M25.3928 32.221L13.7521 35.6909L7.29015 29.1789L18.9979 25.7733L25.3928 32.221Z" fill="#AEAEAE"/>
<path d="M25.7602 33.1142L14.9678 43.9912C14.7801 44.1808 14.4756 44.1808 14.2888 43.9912L7.8171 37.4693C7.62934 37.2797 7.62934 36.9734 7.8171 36.7856L18.6055 25.9117C18.7933 25.7219 19.0978 25.7219 19.2846 25.9117L25.7602 32.4384C25.945 32.6251 25.945 32.9274 25.7602 33.1142Z" fill="#AEAEAE"/>
<path d="M65.0226 32.0558H66.695C66.695 32.8225 67.2252 33.276 68.1232 33.276C69.0212 33.276 69.4969 32.947 69.4969 32.372C69.4969 31.6458 68.6953 31.5085 67.7973 31.3573C66.6142 31.1646 65.1996 30.9325 65.1996 29.3576C65.1996 28.0554 66.2874 27.2749 68.1232 27.2749C69.959 27.2749 71.0341 28.1107 71.0341 29.5354H69.3617C69.3617 28.8093 68.9132 28.3982 68.1242 28.3982C67.376 28.3982 66.9275 28.6996 66.9275 29.2074C66.9275 29.824 67.6757 29.9475 68.5454 30.0976C69.7557 30.3031 71.2248 30.5491 71.2248 32.1665C71.2248 33.5774 70.068 34.4271 68.1242 34.4271C66.1657 34.4271 65.0235 33.5497 65.0235 32.0558H65.0226Z" fill="#AEAEAE"/>
<path d="M72.244 24.3828H74.039V26.096H72.244V24.3828ZM72.244 27.4111H74.039V34.2896H72.244V27.4111Z" fill="#AEAEAE"/>
<path d="M95.7063 23.7393H97.5009V34.2902H95.7063V23.7393Z" fill="#AEAEAE"/>
<path d="M105.293 31.056H100.316C100.385 32.3167 100.983 33.0557 101.949 33.0557C102.792 33.0557 103.377 32.5893 103.554 31.8355H105.296C105.051 33.4667 103.799 34.426 101.95 34.426C99.8292 34.426 98.5789 33.0972 98.5789 30.8505C98.5789 28.6037 99.8299 27.2749 101.95 27.2749C104.072 27.2749 105.296 28.5899 105.296 30.8505V31.056H105.293ZM100.329 30.4394H103.539C103.43 29.2884 102.845 28.6304 101.948 28.6304C101.037 28.6304 100.453 29.2884 100.33 30.4394H100.329Z" fill="#AEAEAE"/>
<path d="M105.904 32.0558H107.576C107.576 32.8225 108.106 33.276 109.004 33.276C109.902 33.276 110.378 32.947 110.378 32.372C110.378 31.6458 109.576 31.5085 108.678 31.3573C107.495 31.1646 106.081 30.9325 106.081 29.3576C106.081 28.0554 107.168 27.2749 109.004 27.2749C110.84 27.2749 111.915 28.1107 111.915 29.5354H110.242C110.242 28.8093 109.794 28.3982 109.005 28.3982C108.257 28.3982 107.808 28.6996 107.808 29.2074C107.808 29.824 108.557 29.9475 109.426 30.0976C110.637 30.3031 112.105 30.5491 112.105 32.1665C112.105 33.5774 110.949 34.4271 109.005 34.4271C107.047 34.4271 105.904 33.5497 105.904 32.0558H105.904Z" fill="#AEAEAE"/>
<path d="M91.8957 27.2729C90.6511 27.2729 89.815 27.8964 89.5505 28.9773H89.4337V27.4103H87.6405V37.4405H89.4358V31.9186H89.4631C89.4631 33.4944 90.3733 34.4261 91.8971 34.4261C93.6113 34.4261 94.6299 33.0973 94.6299 30.8505C94.6299 28.6028 93.6092 27.2739 91.8957 27.2739V27.2729ZM91.0673 32.9876C89.9794 32.9876 89.3406 32.1102 89.3406 30.8505C89.3406 29.5908 89.9794 28.7134 91.0673 28.7134C92.1546 28.7134 92.7941 29.5078 92.7941 30.8505C92.7941 32.1932 92.1546 32.9876 91.0673 32.9876Z" fill="#AEAEAE"/>
<path d="M83.9399 27.2729C82.7596 27.2729 82.0082 27.9882 81.841 29.2351H81.7381C81.5548 28.0149 80.7544 27.2729 79.5069 27.2729C78.3889 27.2729 77.6312 27.8904 77.3884 28.9773H77.2765V27.4103H75.4812V34.2888H77.2765V30.4928C77.2765 29.3695 77.8068 28.6987 78.7177 28.6987C79.5195 28.6987 79.9827 29.2193 79.9827 30.1095V34.2888H81.778V30.4928C81.778 29.3695 82.3083 28.6987 83.206 28.6987C84.0078 28.6987 84.4842 29.2193 84.4842 30.1095V34.2888H86.2795V30.0275C86.2774 28.2866 85.4071 27.2729 83.9385 27.2729H83.9399Z" fill="#AEAEAE"/>
<path d="M89.4601 31.8889H89.2474V32.6487H89.6273L89.4601 31.8889Z" fill="#AEAEAE"/>
<path d="M31.1463 30.8088C31.1463 28.6026 32.3702 27.2866 34.4104 27.2866C36.0555 27.2866 37.1705 28.1501 37.4983 29.6716H36.3834C36.0847 28.74 35.4046 28.2054 34.4113 28.2054C33.0784 28.2054 32.2895 29.1777 32.2895 30.8088C32.2895 32.44 33.0784 33.4122 34.4113 33.4122C35.4591 33.4122 36.1654 32.8234 36.4242 31.8087H37.5392C37.2405 33.4122 36.1255 34.3439 34.4113 34.3439C32.3712 34.3439 31.1473 33.0279 31.1473 30.8088H31.1463Z" fill="#AEAEAE"/>
<path d="M38.0149 30.8088C38.0149 28.6026 39.2523 27.2866 41.3198 27.2866C43.3872 27.2866 44.6111 28.6016 44.6111 30.8088C44.6111 33.0161 43.3872 34.3439 41.3198 34.3439C39.2523 34.3439 38.0149 33.0279 38.0149 30.8088ZM43.4815 30.8088C43.4815 29.1777 42.6798 28.2054 41.3188 28.2054C39.9577 28.2054 39.156 29.1777 39.156 30.8088C39.156 32.44 39.9577 33.4122 41.3188 33.4122C42.6798 33.4122 43.4815 32.4529 43.4815 30.8088Z" fill="#AEAEAE"/>
<path d="M54.2674 28.2605V32.2215C54.2674 32.9753 54.7159 33.414 55.4913 33.414C55.8318 33.414 56.185 33.3319 56.4564 33.1947V34.072C56.1033 34.237 55.6129 34.3457 55.1372 34.3457C53.886 34.3457 53.1515 33.5918 53.1515 32.2906V28.2615H52.0638V27.4257H53.2332V25.0673H54.2654L54.2684 27.4247H56.5654V28.2605H54.2674Z" fill="#AEAEAE"/>
<path d="M49.085 27.2866C47.9195 27.2866 47.1343 27.8991 46.8853 28.9662H46.7724V27.4239H45.6575V34.2066H46.7724V30.4936C46.7724 29.0551 47.4797 28.2054 48.69 28.2054C49.7777 28.2054 50.4042 28.8773 50.4042 30.0144V34.2076H51.5192V29.9878C51.5192 28.2884 50.6221 27.2885 49.086 27.2885L49.085 27.2866Z" fill="#AEAEAE"/>
<path d="M62.1417 27.4239V28.9662H62.0405C61.7914 27.8991 60.9227 27.2866 59.6258 27.2866C57.8308 27.2866 56.7694 28.6016 56.7694 30.8088C56.7694 33.0161 57.8298 34.3439 59.6258 34.3439C60.9188 34.3439 61.7856 33.7245 62.0376 32.6604H62.1417V34.2066H63.2566V27.4239H62.1417ZM62.1174 29.644H62.1145V29.6341L62.1174 29.644ZM60.0607 33.4122C58.7006 33.4122 57.9125 32.4529 57.9125 30.8088C57.9125 29.1648 58.7016 28.2054 60.0607 28.2054C61.4199 28.2054 62.2234 29.2053 62.2234 30.8088C62.2234 32.4123 61.4344 33.4122 60.0607 33.4122Z" fill="#AEAEAE"/>
</g>
</svg>
