<svg width="120" height="62" viewBox="0 0 120 62" fill="none" xmlns="http://www.w3.org/2000/svg">
<rect x="0.760315" width="119.24" height="61.2992" rx="10" fill="#D9D9D9" fill-opacity="0.08"/>
<path d="M72.6419 18.6757C72.4153 18.6758 72.191 18.7205 71.9817 18.8074C71.7725 18.8942 71.5824 19.0215 71.4223 19.1818C71.106 19.4982 70.9162 19.945 70.9162 20.4037V41.2615C70.9162 41.7202 71.0981 42.1591 71.4223 42.4834C71.5825 42.6437 71.7726 42.7709 71.982 42.8577C72.1913 42.9445 72.4157 42.9891 72.6423 42.9891C72.8689 42.9891 73.0932 42.9445 73.3026 42.8577C73.5119 42.7709 73.7021 42.6437 73.8622 42.4834C74.1785 42.167 74.3683 41.7202 74.3683 41.2615V20.4029C74.3683 19.9442 74.1864 19.5053 73.8622 19.181C73.702 19.0206 73.5118 18.8933 73.3024 18.8064C73.093 18.7196 72.8686 18.6757 72.6419 18.6757ZM46.3516 26.0276C46.3516 25.0738 45.5789 24.3004 44.6275 24.3004C43.6761 24.3004 42.9034 25.0738 42.9034 26.0276V41.2599C42.9034 42.2137 43.6761 42.9872 44.6275 42.9872C45.5789 42.9872 46.3516 42.2137 46.3516 41.2599V26.0276Z" fill="#AEAEAE"/>
<path d="M46.8384 20.4057C46.8272 20.9851 46.5893 21.5371 46.1757 21.9431C45.762 22.3489 45.2061 22.5758 44.6271 22.5758C44.0482 22.5758 43.4922 22.3481 43.0786 21.9431C42.665 21.5371 42.4271 20.9851 42.4158 20.4057C42.4156 19.8185 42.6486 19.2552 43.0636 18.8397C43.4772 18.4245 44.0387 18.1912 44.6263 18.1912C45.214 18.1912 45.7755 18.4245 46.1899 18.8397C46.6049 19.2552 46.8387 19.8185 46.8384 20.4057Z" fill="#AEAEAE"/>
<path d="M67.798 29.8125C66.1403 26.059 62.2184 23.4064 57.7436 23.8651C56.2349 24.0246 54.7837 24.5313 53.5037 25.3456C52.2232 26.1605 51.1486 27.2605 50.3639 28.5597C49.579 29.8597 49.105 31.3234 48.9791 32.8368C48.8526 34.3505 49.0788 35.8737 49.6379 37.2847C50.197 38.696 51.0748 39.959 52.2027 40.9749C53.3304 41.99 54.6776 42.7306 56.1389 43.1387C57.5997 43.5468 59.1442 43.6101 60.6256 43.3246C62.1069 43.0391 63.5186 42.4127 64.7262 41.4937C64.9293 41.338 65.0949 41.1388 65.211 40.9108C65.3273 40.6831 65.3914 40.4316 65.3977 40.1753C65.4107 39.7209 65.2428 39.2799 64.931 38.9491C64.6192 38.6183 64.1889 38.4247 63.7345 38.4109C63.344 38.3984 62.961 38.5201 62.6494 38.7557C61.4548 39.6782 59.9699 40.1432 58.4625 40.067C57.2367 40.0037 56.0535 39.5901 55.0617 38.8767C54.0614 38.1631 53.2852 37.179 52.8244 36.0398C52.7615 35.8863 52.7577 35.7149 52.8136 35.5586C52.8695 35.4024 52.9812 35.2724 53.1273 35.1936C53.224 35.1416 53.3322 35.1144 53.442 35.1145H65.4198C65.8026 35.1161 66.1822 35.0417 66.5366 34.8962C66.8909 34.7507 67.2128 34.5364 67.484 34.2659C67.7553 33.9954 67.9712 33.6743 68.1183 33.32C68.2655 32.9661 68.3416 32.5866 68.3421 32.2033C68.3184 31.3808 68.1365 30.5693 67.8091 29.8148L67.798 29.8125ZM58.7622 27.2406C60.0446 27.2409 61.2973 27.626 62.3584 28.3462C63.4201 29.0672 64.241 30.0901 64.7152 31.2827C64.7552 31.3844 64.7701 31.4943 64.7587 31.603C64.7468 31.7116 64.7086 31.8157 64.6474 31.9063C64.5862 31.9968 64.5039 32.0711 64.4075 32.1226C64.311 32.174 64.2035 32.2017 64.0943 32.2017H53.4294C53.32 32.2018 53.2124 32.1747 53.1162 32.1226C53.0197 32.0704 52.9375 31.9961 52.8758 31.9067C52.8141 31.8173 52.7761 31.7122 52.765 31.603C52.7536 31.4943 52.7685 31.3844 52.8085 31.2827C53.2827 30.0901 54.1037 29.0672 55.1653 28.3462C56.2267 27.6344 57.4802 27.2406 58.7622 27.2406ZM86.7774 40.0733C85.548 40.0736 84.3445 39.7196 83.311 39.0539C82.2773 38.3879 81.4564 37.4381 80.9384 36.3174C80.4287 35.1972 80.2516 33.954 80.4283 32.736C80.6049 31.518 81.1279 30.3764 81.9349 29.4471L79.325 27.2192C78.48 28.2005 77.8376 29.3394 77.4348 30.5701C77.031 31.8009 76.8738 33.0992 76.9721 34.3909C77.0702 35.6824 77.423 36.9422 78.0003 38.0977C78.5857 39.2526 79.3933 40.2806 80.3769 41.1228C81.3599 41.9651 82.4996 42.6041 83.7302 43.0051C84.9605 43.4057 86.2579 43.5589 87.5477 43.4559C88.8369 43.3531 90.0944 42.9956 91.2459 42.404C92.3976 41.8132 93.4214 41.0007 94.2583 40.0132L91.6484 37.7861C91.0478 38.5027 90.2973 39.0789 89.4498 39.4738C88.602 39.8692 87.6798 40.0733 86.745 40.0725L86.7774 40.0733Z" fill="#AEAEAE"/>
<path d="M86.7779 23.8057C85.3661 23.8041 83.9702 24.1078 82.689 24.6955C81.4052 25.2836 80.2635 26.142 79.342 27.212L81.944 29.4399C83.0528 28.1611 84.6211 27.3734 86.3073 27.2492C87.9934 27.125 89.6606 27.6707 90.9458 28.7716C92.2309 29.8725 93.0289 31.4369 93.1681 33.1238C93.306 34.8109 92.7722 36.4841 91.6829 37.7797L94.2848 40.0068C95.4949 38.5737 96.2723 36.8243 96.523 34.9642C96.7735 33.1041 96.4876 31.2111 95.6989 29.5079C94.9105 27.8056 93.6518 26.3641 92.0712 25.3535C90.4871 24.3499 88.6522 23.8057 86.7779 23.8057Z" fill="#AEAEAE"/>
<path d="M39.7245 38.8334C39.4271 38.5756 39.0506 38.4269 38.6568 38.4127C38.2629 38.3985 37.8778 38.5195 37.563 38.7551C36.6139 39.4812 35.4814 39.9272 34.2927 40.0427C33.104 40.1582 31.9067 39.9399 30.8366 39.41C29.7665 38.8801 28.8642 38.0623 28.2322 37.0476C27.6006 36.0325 27.2649 34.8611 27.2629 33.6655C27.261 32.4698 27.5928 31.2974 28.2212 30.2801C28.849 29.2636 29.7483 28.4427 30.8176 27.9099C31.8869 27.3776 33.0835 27.1546 34.2722 27.2661C35.4608 27.3776 36.595 27.8197 37.5464 28.5434C37.8579 28.7835 38.2424 28.9093 38.6356 28.8998C39.0287 28.8903 39.4067 28.746 39.7063 28.4912C39.9 28.3251 40.0543 28.1195 40.1571 27.8877C40.2599 27.656 40.3121 27.4029 40.3073 27.1483C40.3026 26.8936 40.2393 26.6437 40.1254 26.4167C40.0115 26.1897 39.847 25.9896 39.6469 25.8346C38.1899 24.7193 36.4497 24.0343 34.6233 23.8574C32.7964 23.6803 30.9584 24.0188 29.3142 24.8342C27.6699 25.6496 26.2875 26.9118 25.321 28.473C24.3546 30.0342 23.8445 31.8366 23.8484 33.673C23.8524 35.5094 24.368 37.3094 25.3392 38.8675C26.3104 40.4255 27.6976 41.6806 29.3442 42.4897C30.9908 43.2987 32.832 43.6317 34.6565 43.449C36.4821 43.2659 38.2199 42.5753 39.673 41.4552C39.8706 41.3003 40.0311 41.1034 40.1432 40.8788C40.2552 40.6542 40.3159 40.4075 40.3208 40.1566C40.3258 39.9057 40.275 39.6568 40.172 39.428C40.069 39.1991 39.9164 38.996 39.7252 38.8334H39.7245Z" fill="#AEAEAE"/>
</svg>
