<svg width="131" height="131" viewBox="0 0 131 131" fill="none" xmlns="http://www.w3.org/2000/svg">
<rect x="0.423218" y="0.957031" width="130.043" height="130.043" rx="8" fill="#017737"/>
<path fill-rule="evenodd" clip-rule="evenodd" d="M71.6157 26.5393C62.7654 26.5393 57.6335 30.5551 55.1789 33.2332C54.8816 30.8524 53.3196 27.804 47.2221 27.804H33.91V41.6368H39.3382C40.2309 41.6368 40.5292 41.934 40.5292 42.8267V106.118H56.2958V80.682C58.7505 82.9142 63.4356 86.0372 70.7978 86.0372C86.1925 86.0372 96.9769 73.8394 96.9769 56.2882C97.0508 38.5136 86.7879 26.5403 71.6157 26.5403H71.6166L71.6157 26.5393ZM68.4179 72.2774C59.9396 72.2774 56.0716 64.1712 56.0716 56.5856C56.0716 44.6851 62.5419 40.4468 68.6413 40.4468C76.0783 40.4468 81.1354 46.8425 81.1354 56.436C81.0615 67.4438 74.665 72.2774 68.4179 72.2774Z" fill="white"/>
</svg>
