<svg width="36" height="36" viewBox="0 0 36 36" fill="none" xmlns="http://www.w3.org/2000/svg">
<circle cx="18" cy="17.9995" r="18" fill="#D9D9D9" fill-opacity="0.15"/>
<path d="M12.4444 9.99951C11.1023 9.99951 10 11.1018 10 12.444V23.5551C10 24.8972 11.1023 25.9995 12.4444 25.9995H23.5556C24.8977 25.9995 26 24.8972 26 23.5551V12.444C26 11.1018 24.8977 9.99951 23.5556 9.99951H12.4444ZM12.4444 11.3328H23.5556C24.177 11.3328 24.6667 11.8225 24.6667 12.444V23.5551C24.6667 24.1765 24.177 24.6662 23.5556 24.6662H12.4444C11.823 24.6662 11.3333 24.1765 11.3333 23.5551V12.444C11.3333 11.8225 11.823 11.3328 12.4444 11.3328ZM14.2222 13.1106C13.9275 13.1106 13.6449 13.2277 13.4365 13.4361C13.2282 13.6444 13.1111 13.927 13.1111 14.2217C13.1111 14.5164 13.2282 14.799 13.4365 15.0074C13.6449 15.2158 13.9275 15.3328 14.2222 15.3328C14.5169 15.3328 14.7995 15.2158 15.0079 15.0074C15.2163 14.799 15.3333 14.5164 15.3333 14.2217C15.3333 13.927 15.2163 13.6444 15.0079 13.4361C14.7995 13.2277 14.5169 13.1106 14.2222 13.1106ZM13.5556 16.2217C13.3098 16.2217 13.1111 16.4204 13.1111 16.6662V22.444C13.1111 22.6897 13.3098 22.8884 13.5556 22.8884H14.8889C15.1347 22.8884 15.3333 22.6897 15.3333 22.444V16.6662C15.3333 16.4204 15.1347 16.2217 14.8889 16.2217H13.5556ZM16.6667 16.2217C16.4209 16.2217 16.2222 16.4204 16.2222 16.6662V22.444C16.2222 22.6897 16.4209 22.8884 16.6667 22.8884H18C18.2458 22.8884 18.4444 22.6897 18.4444 22.444V19.1106C18.4444 18.4977 18.9427 17.9995 19.5556 17.9995C20.1684 17.9995 20.6667 18.4977 20.6667 19.1106V22.444C20.6667 22.6897 20.8653 22.8884 21.1111 22.8884H22.4444C22.6902 22.8884 22.8889 22.6897 22.8889 22.444V18.8884C22.8889 17.4177 21.6929 16.2217 20.2222 16.2217C19.5387 16.2217 18.9169 16.4822 18.4444 16.9066V16.6662C18.4444 16.4204 18.2458 16.2217 18 16.2217H16.6667Z" fill="#AFB3B9"/>
</svg>
