<svg width="118" height="118" viewBox="0 0 118 118" fill="none" xmlns="http://www.w3.org/2000/svg">
<rect x="0.394531" y="0.0839844" width="116.992" height="116.992" rx="8" fill="white"/>
<path d="M36.0257 18.0813C5.67633 36.0266 5.67635 81.1336 36.0257 99.079C66.375 117.024 104.518 94.4708 104.518 58.5801C104.518 22.6894 66.375 0.135889 36.0257 18.0813ZM90.8373 73.5243C90.6721 77.0898 88.8275 77.3247 73.6572 73.1512C73.9923 79.7058 73.3995 86.9245 71.7615 89.8656C59.98 88.5969 33.2967 82.192 27.3893 77.9514C25.7228 64.295 25.2887 51.7382 27.1222 41.2048C28.2596 38.6857 40.4969 42.1745 44.1388 43.6011C43.7785 37.1517 43.653 28.5766 45.6846 26.3302C56.8434 27.9447 81.1552 34.7602 85.4226 36.0039C88.2315 36.8226 90.8979 36.9181 91.2274 43.6334C91.9091 57.5251 91.0025 69.9588 90.8373 73.5243ZM72.7487 54.2459C73.1278 57.5448 73.6572 73.1512 73.6572 73.1512L48.2906 66.1531C46.2521 65.4868 44.8173 63.6491 44.6599 61.5027L44.1388 43.6011C44.1391 43.6011 50.8082 44.9077 58.0763 46.6907C71.3999 49.9591 72.5009 52.09 72.7487 54.2459Z" fill="black"/>
</svg>
