<svg width="150" height="38" viewBox="0 0 150 38" fill="none" xmlns="http://www.w3.org/2000/svg">
<path d="M74.6885 9.50675C74.6885 14.5543 71.1728 17.6181 66.5493 17.6181C61.3603 17.6181 57.6314 13.7873 57.6314 9.04327C57.627 7.90778 57.8482 6.78278 58.2822 5.7335C58.7161 4.68421 59.3541 3.73155 60.1592 2.93082C60.9642 2.13008 61.9203 1.49721 62.9719 1.06892C64.0235 0.640632 65.1496 0.425468 66.2851 0.435909C69.4462 0.435909 72.1114 1.9933 73.5042 4.20887L70.2968 6.04899C69.6015 4.96438 68.1252 4.11616 66.2619 4.11616C63.4809 4.11616 61.3951 6.16718 61.3951 9.06873C61.3951 11.8776 63.3766 13.9356 66.5864 13.9356C68.7788 13.9356 70.218 12.9692 70.8089 11.3863H66.4056V8.07914H74.6862L74.6885 9.50675Z" fill="#AEAEAE"/>
<path d="M83.7689 5.24731V9.25897C82.306 9.02723 80.2293 9.61354 80.2293 11.9474V17.2777H76.6931V5.4837H80.2293V7.5834C80.7024 6.00283 82.276 5.24731 83.7689 5.24731Z" fill="#AEAEAE"/>
<path d="M84.4758 11.3817C84.4696 10.1429 84.8311 8.93015 85.5156 7.89719C86.1994 6.86418 87.1747 6.05747 88.3169 5.57924C89.4598 5.10102 90.7189 4.9728 91.9349 5.21082C93.1509 5.44885 94.2685 6.04242 95.1469 6.91631C96.0245 7.7902 96.6236 8.90507 96.8674 10.1197C97.1113 11.3343 96.989 12.594 96.5167 13.7391C96.0437 14.8843 95.2422 15.8634 94.2123 16.5523C93.1825 17.2412 91.9718 17.6089 90.7327 17.6089C89.9105 17.6189 89.0952 17.4647 88.3338 17.1557C87.5716 16.8466 86.8793 16.3888 86.2971 15.8089C85.7141 15.2291 85.2534 14.5389 84.9403 13.7788C84.6273 13.0186 84.4696 12.2037 84.4758 11.3817ZM93.4394 11.3817C93.4394 9.70614 92.2603 8.60065 90.7281 8.60065C89.196 8.60065 88.0146 9.70844 88.0146 11.3817C88.0146 13.055 89.1937 14.1628 90.7281 14.1628C92.2626 14.1628 93.4394 13.0573 93.4394 11.3817Z" fill="#AEAEAE"/>
<path d="M115.261 5.48389L111.477 17.2802H108.184L106.297 10.9811L104.408 17.2802H101.106L97.3396 5.48389H101.113L102.811 11.8061L104.652 5.48389H107.955L109.794 11.8061L111.477 5.48389H115.261Z" fill="#AEAEAE"/>
<path d="M121.158 8.88131V13.0528C121.158 14.0657 122.028 14.1606 123.586 14.0657V17.2801C118.951 17.7435 117.618 16.353 117.618 13.0575V8.88593H115.732V5.48377H117.618V3.24967L121.158 2.18823V5.48377H123.586V8.88131H121.158Z" fill="#AEAEAE"/>
<path d="M136.914 10.0376V17.2799H133.376V10.559C133.376 9.09667 132.449 8.41067 131.324 8.41067C130.027 8.41067 129.13 9.1662 129.13 10.8418V17.2799H125.591V0.765137H129.13V6.59375C129.767 5.72004 130.947 5.15456 132.504 5.15456C134.884 5.15456 136.914 6.85332 136.914 10.0376Z" fill="#AEAEAE"/>
<path d="M74.86 37.2385H71.0801V27.637L66.8089 34.6429H66.3847L62.1135 27.637V37.2385H58.3406V20.7261H62.1135L66.5956 28.0634L71.0778 20.7261H74.86V37.2385Z" fill="#AEAEAE"/>
<path d="M89.6669 25.4445V37.2384H86.1281V36.1306C85.349 37.0275 84.1953 37.5698 82.6124 37.5698C79.5227 37.5698 76.9761 34.8559 76.9761 31.3403C76.9761 27.8246 79.525 25.113 82.6124 25.113C84.1953 25.113 85.349 25.6554 86.1281 26.5522V25.4445H89.6669ZM86.1281 31.3403C86.1281 29.572 84.9482 28.4642 83.3215 28.4642C81.6948 28.4642 80.5149 29.572 80.5149 31.3403C80.5149 33.1085 81.6948 34.2186 83.3215 34.2186C84.9482 34.2186 86.1281 33.1108 86.1281 31.3403Z" fill="#AEAEAE"/>
<path d="M91.6711 31.3406C91.6711 27.8272 94.3362 25.1133 97.9289 25.1133C99.0042 25.0988 100.065 25.37 101.001 25.8993C101.938 26.4287 102.717 27.1971 103.259 28.1262L100.167 29.92C99.7664 29.0949 98.918 28.599 97.8797 28.599C96.346 28.599 95.2146 29.7068 95.2146 31.3336C95.2146 32.9605 96.3414 34.0729 97.8751 34.0729C98.9134 34.0729 99.7848 33.577 100.162 32.752L103.254 34.5365C102.72 35.4747 101.944 36.2522 101.005 36.7875C100.068 37.3228 99.0034 37.5963 97.9243 37.5794C94.327 37.5702 91.6711 34.8563 91.6711 31.3406Z" fill="#AEAEAE"/>
<path d="M115.992 29.9963V37.2385H112.453V30.5177C112.453 29.0553 111.526 28.3716 110.402 28.3716C109.104 28.3716 108.207 29.1271 108.207 30.8004V37.2408H104.668V20.7261H108.207V26.5523C108.845 25.681 110.024 25.1132 111.581 25.1132C113.964 25.1132 115.992 26.8119 115.992 29.9963Z" fill="#AEAEAE"/>
<path d="M118.066 22.2833C118.066 21.8634 118.19 21.453 118.423 21.1039C118.657 20.7547 118.989 20.4827 119.376 20.322C119.764 20.1613 120.191 20.1193 120.603 20.2012C121.015 20.2831 121.393 20.4853 121.69 20.7822C121.987 21.0791 122.189 21.4574 122.271 21.8692C122.353 22.2809 122.311 22.7077 122.15 23.0956C121.989 23.4836 121.717 23.8151 121.368 24.0484C121.019 24.2816 120.608 24.4062 120.189 24.4062C119.628 24.3996 119.092 24.1737 118.695 23.777C118.298 23.3804 118.073 22.8443 118.066 22.2833ZM118.429 25.4444H121.968V37.2383H118.429V25.4444Z" fill="#AEAEAE"/>
<path d="M135.876 29.9961V37.2384H132.335V30.5175C132.335 29.0551 131.408 28.3715 130.284 28.3715C128.986 28.3715 128.089 29.127 128.089 30.8002V37.2407H124.553V25.4445H128.092V26.5522C128.728 25.6808 129.908 25.113 131.466 25.113C133.848 25.113 135.876 26.8118 135.876 29.9961Z" fill="#AEAEAE"/>
<path d="M144.296 34.409C144.714 34.4214 145.132 34.3483 145.521 34.1941C145.911 34.0399 146.265 33.8078 146.562 33.5121L149.391 35.1344C148.233 36.7404 146.49 37.5655 144.249 37.5655C140.216 37.5655 137.716 34.8516 137.716 31.3359C137.716 27.8202 140.266 25.1086 143.99 25.1086C147.433 25.1086 149.983 27.7739 149.983 31.3359C149.984 31.8115 149.937 32.286 149.841 32.7519H141.466C141.913 33.9849 142.995 34.409 144.296 34.409ZM146.472 30.1145C146.094 28.7472 145.033 28.2605 143.971 28.2605C142.627 28.2605 141.73 28.9211 141.401 30.1145H146.472Z" fill="#AEAEAE"/>
<path d="M22.6852 0.82536L0.698663 22.805C0.251168 23.2552 0 23.8642 0 24.4991C0 25.1338 0.251168 25.7429 0.698663 26.1932L11.3964 36.8886C11.7719 37.2635 12.2808 37.4741 12.8113 37.4741C13.3419 37.4741 13.8507 37.2635 14.2262 36.8886L21.7883 29.3334C21.9374 29.1831 22.0207 28.9797 22.02 28.768V21.9938C22.0195 21.8426 21.9744 21.6949 21.8902 21.5693C21.806 21.4436 21.6865 21.3457 21.5469 21.2878C21.4073 21.2298 21.2536 21.2144 21.1052 21.2436C20.9568 21.2727 20.8203 21.345 20.713 21.4515L15.5982 26.5755C15.5335 26.6411 15.4564 26.6931 15.3715 26.7286C15.2866 26.7641 15.1954 26.7824 15.1034 26.7824C15.0113 26.7824 14.9202 26.7641 14.8352 26.7286C14.7503 26.6931 14.6732 26.6411 14.6086 26.5755L11.8715 23.8362C11.806 23.7715 11.754 23.6945 11.7185 23.6096C11.683 23.5246 11.6647 23.4335 11.6647 23.3414C11.6647 23.2494 11.683 23.1582 11.7185 23.0733C11.754 22.9883 11.806 22.9113 11.8715 22.8466L20.9378 13.7804L23.8741 10.8441C23.9781 10.7398 24.1016 10.6571 24.2376 10.6006C24.3736 10.5442 24.5195 10.5151 24.6667 10.5151C24.814 10.5151 24.9597 10.5442 25.0958 10.6006C25.2318 10.6571 25.3553 10.7398 25.4593 10.8441L28.3956 13.7804L37.4618 22.8466C37.5274 22.9113 37.5794 22.9883 37.6149 23.0733C37.6504 23.1582 37.6687 23.2494 37.6687 23.3414C37.6687 23.4335 37.6504 23.5246 37.6149 23.6096C37.5794 23.6945 37.5274 23.7715 37.4618 23.8362L34.7248 26.5755C34.6602 26.6411 34.5831 26.6931 34.4982 26.7286C34.4132 26.7641 34.322 26.7824 34.23 26.7824C34.138 26.7824 34.0468 26.7641 33.9618 26.7286C33.8769 26.6931 33.7999 26.6411 33.7352 26.5755L28.6111 21.4515C28.5038 21.3443 28.3672 21.2712 28.2184 21.2417C28.0697 21.2121 27.9155 21.2273 27.7753 21.2853C27.6352 21.3434 27.5153 21.4417 27.431 21.5677C27.3467 21.6939 27.3018 21.8421 27.3018 21.9938V28.768C27.3013 28.9796 27.3846 29.1829 27.5335 29.3334L35.0956 36.8956C35.4711 37.2705 35.9799 37.4811 36.5105 37.4811C37.041 37.4811 37.5499 37.2705 37.9253 36.8956L48.6254 26.1932C48.8486 25.9704 49.0257 25.7058 49.1464 25.4144C49.2673 25.1232 49.3295 24.8109 49.3295 24.4955C49.3295 24.1802 49.2673 23.868 49.1464 23.5766C49.0257 23.2854 48.8486 23.0208 48.6254 22.798L26.6551 0.82536C26.3949 0.563783 26.0857 0.356207 25.745 0.214562C25.4044 0.072918 25.0391 0 24.6701 0C24.3012 0 23.9359 0.072918 23.5952 0.214562C23.2546 0.356207 22.9453 0.563783 22.6852 0.82536Z" fill="#AEAEAE"/>
</svg>
