<svg width="41" height="54" viewBox="0 0 41 54" fill="none" xmlns="http://www.w3.org/2000/svg">
<path d="M37.7018 4.39725H35.7989V2.494C35.7989 1.11889 34.6796 0 33.3041 0H2.494C1.11847 0 0 1.11889 0 2.494V46.7683C0 48.1439 1.11847 49.2627 2.494 49.2627H4.39683V51.166C4.39683 52.5411 5.51614 53.66 6.89167 53.66H37.7018C39.0773 53.66 40.1958 52.5411 40.1958 51.166V6.89167C40.1959 5.51614 39.0774 4.39725 37.7018 4.39725ZM1.67682 46.7683V2.494C1.67682 2.04321 2.04363 1.67682 2.494 1.67682H33.3041C33.7552 1.67682 34.1221 2.04321 34.1221 2.494V46.7683C34.1221 47.2191 33.7553 47.5859 33.3041 47.5859H2.494C2.04363 47.5858 1.67682 47.219 1.67682 46.7683ZM38.519 51.166C38.519 51.6168 38.1521 51.9832 37.7018 51.9832H6.89167C6.44046 51.9832 6.07365 51.6168 6.07365 51.166V49.2627H33.3041C34.6796 49.2627 35.7989 48.1439 35.7989 46.7683V6.07417H37.7018C38.1521 6.07417 38.519 6.44099 38.519 6.89177V51.166Z" fill="#1296FC"/>
<path d="M29.9947 4.65381H5.80685C4.8882 4.65381 4.14062 5.40138 4.14062 6.32004V10.8705C4.14062 11.7891 4.8882 12.5367 5.80685 12.5367H29.9946C30.9133 12.5367 31.6609 11.7891 31.6609 10.8705V6.32004C31.661 5.40138 30.9134 4.65381 29.9947 4.65381ZM29.984 10.8598L5.81755 10.8705L5.80685 6.33073L29.984 6.32004V10.8598Z" fill="#1296FC"/>
<path d="M30.8226 16.0137H29.316C28.8525 16.0137 28.4775 16.3891 28.4775 16.8521C28.4775 17.3152 28.8525 17.6906 29.316 17.6906H30.8226C31.286 17.6906 31.661 17.3152 31.661 16.8521C31.661 16.3891 31.286 16.0137 30.8226 16.0137Z" fill="#1296FC"/>
<path d="M4.97909 17.6906H24.5661C25.0296 17.6906 25.4046 17.3152 25.4046 16.8521C25.4046 16.3891 25.0296 16.0137 24.5661 16.0137H4.97909C4.51562 16.0137 4.14062 16.3891 4.14062 16.8521C4.14062 17.3152 4.51562 17.6906 4.97909 17.6906Z" fill="#1296FC"/>
<path d="M4.97909 23.4382H6.48565C6.94912 23.4382 7.32411 23.0627 7.32411 22.5997C7.32411 22.1366 6.94912 21.7612 6.48565 21.7612H4.97909C4.51562 21.7612 4.14062 22.1366 4.14062 22.5997C4.14062 23.0627 4.51562 23.4382 4.97909 23.4382Z" fill="#1296FC"/>
<path d="M30.823 21.7612H11.2359C10.7725 21.7612 10.3975 22.1366 10.3975 22.5997C10.3975 23.0627 10.7725 23.4382 11.2359 23.4382H30.823C31.2864 23.4382 31.6614 23.0627 31.6614 22.5997C31.6614 22.1366 31.2864 21.7612 30.823 21.7612Z" fill="#1296FC"/>
<path d="M30.8226 27.5093H29.316C28.8525 27.5093 28.4775 27.8847 28.4775 28.3477C28.4775 28.8108 28.8525 29.1862 29.316 29.1862H30.8226C31.286 29.1862 31.661 28.8108 31.661 28.3477C31.661 27.8847 31.286 27.5093 30.8226 27.5093Z" fill="#1296FC"/>
<path d="M4.97909 29.1862H24.5661C25.0296 29.1862 25.4046 28.8108 25.4046 28.3477C25.4046 27.8847 25.0296 27.5093 24.5661 27.5093H4.97909C4.51562 27.5093 4.14062 27.8847 4.14062 28.3477C4.14062 28.8108 4.51562 29.1862 4.97909 29.1862Z" fill="#1296FC"/>
<path d="M30.822 33.2568H20.4078C19.9443 33.2568 19.5693 33.6322 19.5693 34.0953C19.5693 34.5583 19.9443 34.9338 20.4078 34.9338H30.822C31.2854 34.9338 31.6604 34.5583 31.6604 34.0953C31.6604 33.6322 31.2854 33.2568 30.822 33.2568Z" fill="#1296FC"/>
<path d="M30.822 38.0928H20.4078C19.9443 38.0928 19.5693 38.4682 19.5693 38.9312C19.5693 39.3943 19.9443 39.7697 20.4078 39.7697H30.822C31.2854 39.7697 31.6604 39.3943 31.6604 38.9312C31.6604 38.4682 31.2854 38.0928 30.822 38.0928Z" fill="#1296FC"/>
<path d="M30.822 42.9282H20.4078C19.9443 42.9282 19.5693 43.3036 19.5693 43.7667C19.5693 44.2297 19.9443 44.6051 20.4078 44.6051H30.822C31.2854 44.6051 31.6604 44.2297 31.6604 43.7667C31.6604 43.3036 31.2854 42.9282 30.822 42.9282Z" fill="#1296FC"/>
<path d="M13.8264 33.2539H5.80392C4.88527 33.2539 4.1377 34.0015 4.1377 34.9201V42.9422C4.1377 43.8609 4.88527 44.6085 5.80392 44.6085H13.8264C14.7451 44.6085 15.4927 43.8609 15.4927 42.9422V34.9201C15.4927 34.0015 14.7451 33.2539 13.8264 33.2539ZM5.81462 42.9422L5.80392 34.9308H13.8157L13.8264 42.9316L5.81462 42.9422Z" fill="#1296FC"/>
</svg>
