<svg width="119" height="62" viewBox="0 0 119 62" fill="none" xmlns="http://www.w3.org/2000/svg">
<rect width="118.4" height="61.2992" rx="10" fill="#D9D9D9" fill-opacity="0.08"/>
<path d="M51.575 20.8784H48.3639V37.7897H58.5729V34.6865H51.575V20.8784Z" fill="#AEAEAE"/>
<path d="M65.3657 25.274C61.68 25.274 58.8616 28.0121 58.8616 31.6172C58.8616 35.2224 61.668 37.9749 65.3657 37.9724C69.0633 37.9701 71.8697 35.2464 71.8697 31.6292C71.8697 28.0121 69.1043 25.2884 65.3801 25.274H65.3657ZM65.3488 35.1215C63.3759 35.1215 61.9763 33.6347 61.998 31.5884C62.0197 29.5421 63.4072 28.1418 65.3825 28.1442C67.3579 28.1466 68.755 29.5853 68.7382 31.6461C68.7213 33.7068 67.3313 35.1359 65.3464 35.1215" fill="#AEAEAE"/>
<path d="M82.3251 26.1371C81.3008 25.5654 80.1457 25.2675 78.9719 25.2724C75.2862 25.258 72.4678 28.0105 72.4678 31.6132C72.4678 35.2159 75.2766 37.9732 78.9719 37.9709C80.1531 37.9786 81.3157 37.678 82.3444 37.099V38.4704C82.3444 40.5288 80.9375 41.9579 78.9526 41.9579C76.4039 41.9579 75.2814 39.4936 75.2814 39.4936L72.9472 40.9083C72.9472 40.9083 74.2889 44.8161 78.9694 44.8161C82.6792 44.8161 85.4738 42.09 85.4738 38.4704V25.2604H82.3419V26.1371H82.3251ZM82.3419 31.6757C82.3155 33.7124 80.9255 35.1295 78.9526 35.1151C76.9797 35.1007 75.5801 33.626 75.6042 31.582C75.6283 29.5381 77.011 28.1354 78.9887 28.1354C80.9664 28.1354 82.3323 29.5525 82.3419 31.594V31.6732" fill="#AEAEAE"/>
<path d="M95.9331 26.1371C94.9092 25.5652 93.7534 25.2673 92.5799 25.2724C88.8945 25.258 86.076 28.0105 86.076 31.6132C86.076 35.2159 88.8823 37.9732 92.5799 37.9709C93.7608 37.9783 94.9234 37.6777 95.952 37.099V38.4704C95.952 40.5288 94.5431 41.9579 92.5583 41.9579C90.0098 41.9579 88.8891 39.4936 88.8891 39.4936L86.5531 40.9083C86.5531 40.9083 87.8943 44.8136 92.5752 44.8136C96.285 44.8136 99.0791 42.09 99.0791 38.4704V25.2604H95.9473V26.1371H95.9331ZM95.9473 31.6757C95.9209 33.7124 94.5309 35.1295 92.5583 35.1151C90.585 35.1007 89.1855 33.626 89.2099 31.582C89.2336 29.5381 90.6168 28.133 92.582 28.1354C94.5478 28.1378 95.9256 29.5525 95.9378 31.594V31.6757" fill="#AEAEAE"/>
<path d="M103.545 25.2643H100.334V37.7898H103.545V25.2643Z" fill="#AEAEAE"/>
<path d="M101.94 24.0571C102.257 24.0571 102.568 23.9631 102.833 23.7871C103.097 23.6111 103.303 23.3609 103.424 23.0681C103.546 22.7754 103.578 22.4533 103.516 22.1425C103.454 21.8317 103.301 21.5463 103.076 21.3222C102.852 21.0982 102.565 20.9456 102.253 20.8838C101.941 20.822 101.619 20.8537 101.325 20.975C101.031 21.0962 100.781 21.3016 100.604 21.565C100.428 21.8285 100.334 22.1382 100.334 22.4551C100.334 22.8799 100.503 23.2874 100.804 23.5878C101.105 23.8883 101.514 24.0571 101.94 24.0571Z" fill="#AEAEAE"/>
<path d="M41.8437 23.2689C41.2338 22.96 40.6074 22.685 39.9672 22.4451L39.7888 22.3154C39.7888 22.3154 35.5372 19.2842 33.663 18.4964C31.7889 17.7086 28.5296 15.9985 25.2318 16.0946C23.6125 16.131 22.0036 16.3633 20.4404 16.7863C19.7732 16.9473 19.3251 17.1346 20.0574 17.4781C20.2983 17.5934 21.3486 18.213 22.6157 18.936C24.4706 19.9904 26.8 21.2633 27.8142 21.4939C29.3221 21.8539 30.8696 22.0225 32.42 21.9959C34.7494 21.9479 35.8816 22.9374 36.1105 23.3001C35.6937 22.7092 34.1087 22.2361 31.9912 22.3658C29.9533 22.4907 28.3152 22.3658 27.3637 22.0728C25.4626 21.4855 23.6062 20.7631 21.8087 19.9111C21.3398 20.0505 20.879 20.2157 20.4284 20.4059C19.843 20.6461 19.2914 21.1 20.1152 21.333C20.7054 21.4987 26.2146 23.4635 27.8238 23.5571C29.2439 23.6575 30.6711 23.5768 32.0707 23.3169C34.1544 22.9254 35.2408 23.7781 35.4938 24.1095C34.787 25.0994 34.4464 26.3031 34.5302 27.5153C26.9132 26.1751 24.4826 25.4834 22.7627 25.1879C19.7539 24.6715 15.9358 27.2127 15.466 30.3566C15.201 32.146 15.6587 33.8153 16.7476 35.3597C17.952 37.0698 19.5395 38.5445 19.7708 38.8568C19.9177 39.1258 19.8695 39.8319 19.8792 40.2979C19.8792 40.8335 20.5633 41.3114 20.9559 41.3474C21.1968 41.369 25.6991 42.7741 25.6991 42.7741L32.379 44.8229C32.379 44.8229 32.4826 44.3641 32.5019 44.1696C32.5525 43.6772 32.1767 42.4595 30.6109 42.0079C28.308 41.3163 27.8527 41.1865 27.3637 41.0472C27.0987 40.9679 27.2842 40.9631 27.6937 40.6413C28.3575 40.0756 28.9021 39.3841 29.2956 38.6069C30.6591 35.7248 28.9439 33.1404 28.9439 33.1404C29.6911 34.0259 30.1979 35.0877 30.4157 36.2243C30.9192 38.6742 29.2547 40.6173 29.2547 40.6173L30.2472 40.9055C30.2472 40.9055 36.6669 34.459 37.2932 33.7624C37.8232 33.174 38.7386 32.8018 39.2204 32.6528C40.9307 32.1581 43.0747 31.2118 43.6166 30.8563C44.1586 30.5008 44.8211 29.2999 44.9969 28.9996C45.2169 28.6527 45.3628 28.2644 45.4257 27.8587C45.4402 27.7026 44.5248 26.4849 44.5248 26.4849C44.5248 26.4849 43.0626 24.0159 41.8557 23.2857" fill="#AEAEAE"/>
<path d="M23.1596 43.1313C23.0111 43.2163 22.9024 43.3566 22.8573 43.5213C22.8121 43.686 22.8342 43.8618 22.9188 44.0103C22.9847 44.1263 23.0848 44.2194 23.2054 44.277C23.6872 44.534 25.3445 43.6333 25.3445 43.6333L23.692 43.1145C23.5206 43.0514 23.3314 43.0574 23.1644 43.1313" fill="#AEAEAE"/>
</svg>
