<svg width="121" height="62" viewBox="0 0 121 62" fill="none" xmlns="http://www.w3.org/2000/svg">
<rect x="0.960388" width="119.24" height="61.2992" rx="10" fill="#D9D9D9" fill-opacity="0.08"/>
<path fill-rule="evenodd" clip-rule="evenodd" d="M71.2525 29.3207L69.7431 29.7304C68.6919 30.1393 67.751 30.8452 66.9574 31.9194V29.9513L63.2314 29.9167V45.3698H67.1087V37.9775C67.1087 36.7126 67.2609 35.8229 67.6011 35.2639C67.8618 34.6721 68.3508 34.1882 68.9549 33.78C69.6323 33.3329 70.3469 33.1093 71.1019 33.1093L72.304 33.1862L72.2682 29.245L71.2525 29.3207ZM40.9079 45.3691H44.8233V25.2362H40.9079V45.3691ZM56.493 37.4951L55.7414 37.8998L53.7834 38.3837C52.954 38.4951 52.316 38.6808 51.9384 38.9033C51.3008 39.3122 50.997 39.8722 50.997 40.651C50.997 41.3566 51.1876 41.8374 51.5622 42.1743C51.9384 42.4684 52.3907 42.6184 52.954 42.6184C53.8586 42.6184 54.6491 42.3572 55.4029 41.8374C56.1159 41.3186 56.493 40.3882 56.493 39.0544V37.4951ZM60.5998 34.0009V45.3698H56.6816V43.7704C55.4753 44.8105 53.7834 45.3308 51.6388 45.3698C50.3189 45.3308 49.2281 44.9621 48.4368 44.2914C47.5358 43.4745 47.0843 42.3573 47.1209 40.9879C47.0843 39.0151 47.7981 37.6422 49.2655 36.7885C50.1334 36.3025 51.2607 35.9707 52.6521 35.7827L55.6655 35.3026C56.2665 35.0434 56.5684 34.6311 56.5684 34.1135C56.5303 33.4823 56.3421 33.0358 55.8912 32.8125C55.4402 32.5515 54.801 32.4018 53.9732 32.4404C52.9922 32.4018 52.316 32.6637 51.9018 33.1862C51.6388 33.4823 51.4113 33.9289 51.3385 34.5971H47.4212C47.5359 33.1862 47.8747 32.0683 48.5509 31.2153C49.605 29.841 51.4498 29.1335 54.0858 29.173C55.7791 29.1335 57.2838 29.4704 58.6388 30.176C59.9173 30.8452 60.5998 32.143 60.5998 34.0009ZM29.2381 29.0622C30.4444 29.0622 31.5345 29.3945 32.5893 30.0649C33.5311 30.697 34.2837 31.5874 34.8112 32.6269H38.9134C38.3112 30.4738 37.144 28.6894 35.3738 27.318C33.5698 25.9042 31.4985 25.1986 29.2381 25.2353C26.4164 25.1986 24.0801 26.1642 22.1235 28.1687C20.129 30.1393 19.1514 32.4772 19.1514 35.2639C19.1514 38.0116 20.129 40.4293 22.1235 42.3967C24.0801 44.3266 26.4164 45.2941 29.2381 45.2941C31.4985 45.2941 33.5698 44.624 35.3738 43.2494C37.144 41.8374 38.3112 40.0932 38.9134 37.9389H34.8112C34.2837 38.9794 33.5311 39.8305 32.5893 40.5009C31.5345 41.1349 30.4444 41.4684 29.2381 41.4684C27.5074 41.4684 26.0402 40.8369 24.8334 39.6449C23.5941 38.4209 22.9907 36.976 23.0274 35.2639C22.9907 33.5568 23.5941 32.1066 24.8334 30.8827C26.0402 29.6937 27.5074 29.0622 29.2381 29.0622ZM85.1048 37.3444C85.0655 36.1203 84.652 35.1147 83.8592 34.2992C82.9948 33.4462 81.9799 33.0358 80.7746 33.0737C79.6076 33.0358 78.5915 33.4462 77.7645 34.2992C76.9343 35.1147 76.4824 36.1203 76.4824 37.3444C76.4824 38.4951 76.9343 39.4985 77.7645 40.3539C78.5915 41.2111 79.6076 41.6149 80.7746 41.6149C81.9799 41.6149 82.9948 41.2111 83.8235 40.3539C84.652 39.4985 85.0655 38.4951 85.1048 37.3444ZM86.5709 31.5874C88.1527 33.1862 88.9439 35.1147 88.9439 37.3444C88.9439 39.5729 88.1527 41.5036 86.5709 43.0641C84.9526 44.6628 82.9948 45.4778 80.7746 45.4778C78.5542 45.4778 76.6321 44.6628 75.0523 43.0641C73.4322 41.5036 72.6436 39.5729 72.6436 37.3444C72.6436 35.1147 73.4322 33.1862 75.0523 31.5874C76.6321 29.9914 78.5542 29.2085 80.7746 29.2085C82.9948 29.2085 84.9526 29.9914 86.5709 31.5874ZM91.3558 37.1211H101.71V33.6664H91.3558V37.1211ZM79.4961 26.0883H82.9972V16.0927H79.4961V26.0883ZM99.075 20.4785L89.622 29.8031L87.1385 27.351L96.5881 18.0287L99.075 20.4785Z" fill="#AEAEAE"/>
</svg>
