<svg width="118" height="118" viewBox="0 0 118 118" fill="none" xmlns="http://www.w3.org/2000/svg">
<rect x="0.123047" y="0.666016" width="116.992" height="116.992" rx="8" fill="#322DE6"/>
<g clip-path="url(#clip0_1139_2188)">
<path d="M56.9841 73.1851C48.3605 73.1851 45.0628 71.6228 45.0628 66.4145C45.0628 61.2072 48.3605 59.645 56.9841 59.645C65.6077 59.645 68.9057 61.2072 68.9057 66.4145C68.9057 71.6228 65.6077 73.1851 56.9841 73.1851ZM86.5741 38.0509C86.5741 28.6116 79.0737 20.959 69.8214 20.959H36.3237V38.0483H69.8242V50.5364C66.6034 46.9872 61.5777 43.9637 51.914 43.9637C36.1949 43.9637 28.8496 54.2171 28.8496 66.3112C28.8496 78.4053 36.1949 88.6595 51.914 88.6595C61.5777 88.6595 66.6034 85.5038 69.8242 82.0871C69.8242 85.717 72.7083 88.6595 76.2658 88.6595H94.6561V71.5701H86.5741V38.0509Z" fill="white"/>
<path d="M96.5644 17.0912V2.58398H113.731V17.0912H96.5644ZM33.6191 108.799V115.74H17.9288L17.8808 108.799C17.8808 103.821 13.9006 99.7845 8.99074 99.7845L2.14648 99.7358V83.8245H8.99074C22.5929 83.8245 33.6191 95.0061 33.6191 108.799Z" fill="#51FF91"/>
</g>
<defs>
<clipPath id="clip0_1139_2188">
<rect x="2.14648" y="2.58398" width="111.585" height="113.156" rx="8" fill="white"/>
</clipPath>
</defs>
</svg>
