<svg width="1280" height="616" viewBox="0 0 1280 616" fill="none" xmlns="http://www.w3.org/2000/svg">
<path d="M2.52403 616H2.11329C0.886213 564.667 0.540486 513.334 0.117357 462.001C-0.200506 410.667 0.209207 359.334 0.382586 308.001L1.52916 0H1.93991L3.67061 307.999C3.941 359.333 4.44772 410.666 4.2279 461.999C3.90178 513.333 3.65306 564.666 2.52403 616Z" fill="#393939" fill-opacity="0.2"/>
<path d="M33.6393 616H33.2275C32.0015 564.667 31.6558 513.334 31.2316 462.001C30.9138 410.667 31.3235 359.334 31.4968 308.001L32.6445 0H33.0552L34.7859 307.999C35.0563 359.333 35.563 410.666 35.3432 461.999C35.0171 513.333 34.7684 564.666 33.6393 616Z" fill="#393939" fill-opacity="0.2"/>
<path d="M64.7536 616H64.5483H64.3429C63.1158 564.667 62.7711 513.334 62.347 462.001C62.0291 410.667 62.4388 359.334 62.6122 308.001L63.7598 0H63.9652H64.1706L65.9013 307.999C66.1716 359.333 66.6784 410.666 66.4585 461.999C66.1314 513.333 65.8827 564.666 64.7536 616Z" fill="#393939" fill-opacity="0.2"/>
<path d="M95.869 616H95.4583C94.2322 564.667 93.8865 513.334 93.4623 462.001C93.1445 410.667 93.5542 359.334 93.7276 308.001L94.8752 0H95.2859L97.0166 307.999C97.287 359.333 97.7947 410.666 97.5739 461.999C97.2467 513.333 96.998 564.666 95.869 616Z" fill="#393939" fill-opacity="0.2"/>
<path d="M126.985 616H126.574C125.348 564.667 125.002 513.334 124.578 462.001C124.26 410.667 124.67 359.334 124.843 308.001L125.991 0H126.402L128.131 307.999C128.402 359.333 128.909 410.666 128.689 461.999C128.362 513.333 128.114 564.666 126.985 616Z" fill="#393939" fill-opacity="0.2"/>
<path d="M158.099 616H157.689C156.462 564.667 156.117 513.334 155.693 462.001C155.375 410.667 155.785 359.334 155.958 308.001L157.106 0H157.516L159.247 307.999C159.517 359.333 160.025 410.666 159.804 461.999C159.477 513.333 159.228 564.666 158.099 616Z" fill="#393939" fill-opacity="0.2"/>
<path d="M189.215 616H189.01H188.804C187.578 564.667 187.232 513.334 186.808 462.001C186.491 410.667 186.9 359.334 187.074 308.001L188.221 0H188.427H188.632L190.363 307.999C190.633 359.333 191.14 410.666 190.92 461.999C190.593 513.333 190.344 564.666 189.215 616Z" fill="#393939" fill-opacity="0.2"/>
<path d="M220.33 616H219.92C218.693 564.667 218.348 513.334 217.924 462.001C217.606 410.667 218.016 359.334 218.189 308.001L219.337 0H219.747L221.478 307.999C221.748 359.333 222.255 410.666 222.035 461.999C221.708 513.333 221.46 564.666 220.33 616Z" fill="#393939" fill-opacity="0.2"/>
<path d="M251.446 616H251.035C249.809 564.667 249.463 513.334 249.039 462.001C248.721 410.667 249.131 359.334 249.304 308.001L250.452 0H250.864L252.594 307.999C252.865 359.333 253.372 410.666 253.152 461.999C252.824 513.333 252.575 564.666 251.446 616Z" fill="#393939" fill-opacity="0.2"/>
<path d="M282.562 616H282.151C280.924 564.667 280.58 513.334 280.155 462.001C279.838 410.667 280.247 359.334 280.421 308.001L281.568 0H281.979L283.71 307.999C283.98 359.333 284.487 410.666 284.267 461.999C283.94 513.333 283.691 564.666 282.562 616Z" fill="#393939" fill-opacity="0.2"/>
<path d="M313.677 616H313.472H313.267C312.041 564.667 311.695 513.334 311.271 462.001C310.953 410.667 311.363 359.334 311.536 308.001L312.684 0H312.889H313.094L314.825 307.999C315.095 359.333 315.602 410.666 315.382 461.999C315.055 513.333 314.808 564.666 313.677 616Z" fill="#393939" fill-opacity="0.2"/>
<path d="M344.793 616H344.382C343.155 564.667 342.81 513.334 342.386 462.001C342.068 410.667 342.478 359.334 342.651 308.001L343.799 0H344.21L345.94 307.999C346.211 359.333 346.718 410.666 346.498 461.999C346.171 513.333 345.923 564.666 344.793 616Z" fill="#393939" fill-opacity="0.2"/>
<path d="M375.908 616H375.497C374.27 564.667 373.926 513.334 373.501 462.001C373.184 410.667 373.593 359.334 373.767 308.001L374.914 0H375.325L377.056 307.999C377.326 359.333 377.833 410.666 377.613 461.999C377.286 513.333 377.038 564.666 375.908 616Z" fill="#393939" fill-opacity="0.2"/>
<path d="M407.023 616H406.613C405.386 564.667 405.041 513.334 404.617 462.001C404.299 410.667 404.709 359.334 404.882 308.001L406.03 0H406.44L408.171 307.999C408.441 359.333 408.948 410.666 408.728 461.999C408.401 513.333 408.154 564.666 407.023 616Z" fill="#393939" fill-opacity="0.2"/>
<path d="M438.139 616H437.933H437.728C436.501 564.667 436.156 513.334 435.732 462.001C435.414 410.667 435.824 359.334 435.997 308.001L437.145 0H437.35H437.556L439.286 307.999C439.557 359.333 440.064 410.666 439.843 461.999C439.518 513.333 439.269 564.666 438.139 616Z" fill="#393939" fill-opacity="0.2"/>
<path d="M469.254 616H468.843C467.617 564.667 467.271 513.334 466.847 462.001C466.529 410.667 466.939 359.334 467.112 308.001L468.26 0H468.672L470.402 307.999C470.673 359.333 471.179 410.666 470.958 461.999C470.631 513.333 470.384 564.666 469.254 616Z" fill="#393939" fill-opacity="0.2"/>
<path d="M500.369 616H499.959C498.732 564.667 498.387 513.334 497.963 462.001C497.645 410.667 498.055 359.334 498.228 308.001L499.376 0H499.786L501.517 307.999C501.787 359.333 502.294 410.666 502.073 461.999C501.747 513.333 501.499 564.666 500.369 616Z" fill="#393939" fill-opacity="0.2"/>
<path d="M531.485 616H531.073C529.847 564.667 529.502 513.334 529.078 462.001C528.76 410.667 529.169 359.334 529.343 308.001L530.491 0H530.902L532.633 307.999C532.903 359.333 533.41 410.666 533.19 461.999C532.863 513.333 532.615 564.666 531.485 616Z" fill="#393939" fill-opacity="0.2"/>
<path d="M562.601 616H562.19C560.963 564.667 560.618 513.334 560.194 462.001C559.876 410.667 560.286 359.334 560.459 308.001L561.607 0H561.812H562.017L563.748 307.999C564.019 359.333 564.525 410.666 564.305 461.999C563.978 513.333 563.731 564.666 562.601 616Z" fill="#393939" fill-opacity="0.2"/>
<path d="M593.716 616H593.305C592.078 564.667 591.733 513.334 591.309 462.001C590.991 410.667 591.401 359.334 591.574 308.001L592.721 0H593.132L594.862 307.999C595.133 359.333 595.64 410.666 595.42 461.999C595.093 513.333 594.845 564.666 593.716 616Z" fill="#393939" fill-opacity="0.2"/>
<path d="M624.83 616H624.42C623.193 564.667 622.848 513.334 622.424 462.001C622.106 410.667 622.516 359.334 622.689 308.001L623.837 0H624.247L625.978 307.999C626.248 359.333 626.756 410.666 626.535 461.999C626.209 513.333 625.96 564.666 624.83 616Z" fill="#393939" fill-opacity="0.2"/>
<path d="M655.946 616H655.535C654.308 564.667 653.964 513.334 653.54 462.001C653.222 410.667 653.631 359.334 653.805 308.001L654.951 0H655.362L657.093 307.999C657.363 359.333 657.87 410.666 657.65 461.999C657.324 513.333 657.075 564.666 655.946 616Z" fill="#393939" fill-opacity="0.2"/>
<path d="M687.06 616H686.65C685.423 564.667 685.078 513.334 684.654 462.001C684.336 410.667 684.746 359.334 684.919 308.001L686.066 0H686.476L688.207 307.999C688.477 359.333 688.984 410.666 688.764 461.999C688.438 513.333 688.189 564.666 687.06 616Z" fill="#393939" fill-opacity="0.2"/>
<path d="M718.175 616H717.969H717.764C716.537 564.667 716.192 513.334 715.768 462.001C715.45 410.667 715.86 359.334 716.033 308.001L717.18 0H717.591L719.321 307.999C719.592 359.333 720.098 410.666 719.878 461.999C719.552 513.333 719.304 564.666 718.175 616Z" fill="#393939" fill-opacity="0.2"/>
<path d="M749.288 616H748.878C747.652 564.667 747.306 513.334 746.882 462.001C746.564 410.667 746.974 359.334 747.147 308.001L748.294 0H748.705L750.436 307.999C750.706 359.333 751.213 410.666 750.993 461.999C750.666 513.333 750.417 564.666 749.288 616Z" fill="#393939" fill-opacity="0.2"/>
<path d="M780.404 616H779.993C778.766 564.667 778.421 513.334 777.997 462.001C777.679 410.667 778.089 359.334 778.262 308.001L779.409 0H779.82L781.55 307.999C781.821 359.333 782.327 410.666 782.107 461.999C781.782 513.333 781.533 564.666 780.404 616Z" fill="#393939" fill-opacity="0.2"/>
<path d="M811.519 616H811.107C809.881 564.667 809.535 513.334 809.111 462.001C808.793 410.667 809.203 359.334 809.376 308.001L810.524 0H810.934L812.665 307.999C812.936 359.333 813.442 410.666 813.222 461.999C812.896 513.333 812.648 564.666 811.519 616Z" fill="#393939" fill-opacity="0.2"/>
<path d="M842.633 616H842.427H842.222C840.995 564.667 840.65 513.334 840.226 462.001C839.908 410.667 840.318 359.334 840.491 308.001L841.638 0H842.049L843.779 307.999C844.05 359.333 844.557 410.666 844.337 461.999C844.011 513.333 843.762 564.666 842.633 616Z" fill="#393939" fill-opacity="0.2"/>
<path d="M873.747 616H873.336C872.11 564.667 871.765 513.334 871.34 462.001C871.023 410.667 871.432 359.334 871.606 308.001L872.752 0H873.163L874.894 307.999C875.164 359.333 875.671 410.666 875.451 461.999C875.125 513.333 874.876 564.666 873.747 616Z" fill="#393939" fill-opacity="0.2"/>
<path d="M904.861 616H904.451C903.224 564.667 902.879 513.334 902.455 462.001C902.137 410.667 902.547 359.334 902.72 308.001L903.867 0H904.277L906.008 307.999C906.278 359.333 906.785 410.666 906.565 461.999C906.239 513.333 905.99 564.666 904.861 616Z" fill="#393939" fill-opacity="0.2"/>
<path d="M935.976 616H935.565C934.338 564.667 933.993 513.334 933.569 462.001C933.251 410.667 933.661 359.334 933.834 308.001L934.981 0H935.392L937.122 307.999C937.393 359.333 937.899 410.666 937.679 461.999C937.354 513.333 937.105 564.666 935.976 616Z" fill="#393939" fill-opacity="0.2"/>
<path d="M967.09 616H966.884H966.679C965.453 564.667 965.107 513.334 964.683 462.001C964.365 410.667 964.775 359.334 964.948 308.001L966.095 0H966.506L968.237 307.999C968.508 359.333 969.014 410.666 968.793 461.999C968.467 513.333 968.219 564.666 967.09 616Z" fill="#393939" fill-opacity="0.2"/>
<path d="M998.204 616H997.794C996.567 564.667 996.222 513.334 995.798 462.001C995.48 410.667 995.89 359.334 996.063 308.001L997.211 0H997.621L999.352 307.999C999.622 359.333 1000.13 410.666 999.908 461.999C999.582 513.333 999.333 564.666 998.204 616Z" fill="#393939" fill-opacity="0.2"/>
<path d="M1029.32 616H1028.91C1027.68 564.667 1027.34 513.334 1026.91 462.001C1026.59 410.667 1027 359.334 1027.18 308.001L1028.33 0H1028.74L1030.47 307.999C1030.74 359.333 1031.24 410.666 1031.02 461.999C1030.7 513.333 1030.45 564.666 1029.32 616Z" fill="#393939" fill-opacity="0.2"/>
<path d="M1060.43 616H1060.02C1058.8 564.667 1058.45 513.334 1058.03 462.001C1057.71 410.667 1058.12 359.334 1058.29 308.001L1059.44 0H1059.85L1061.58 307.999C1061.85 359.333 1062.36 410.666 1062.14 461.999C1061.81 513.333 1061.56 564.666 1060.43 616Z" fill="#393939" fill-opacity="0.2"/>
<path d="M1091.55 616H1091.34H1091.14C1089.91 564.667 1089.57 513.334 1089.14 462.001C1088.82 410.667 1089.23 359.334 1089.41 308.001L1090.55 0H1090.97L1092.7 307.999C1092.97 359.333 1093.47 410.666 1093.25 461.999C1092.93 513.333 1092.68 564.666 1091.55 616Z" fill="#393939" fill-opacity="0.2"/>
<path d="M1122.66 616H1122.25C1121.03 564.667 1120.68 513.334 1120.26 462.001C1119.94 410.667 1120.35 359.334 1120.52 308.001L1121.67 0H1122.08L1123.81 307.999C1124.08 359.333 1124.59 410.666 1124.37 461.999C1124.04 513.333 1123.79 564.666 1122.66 616Z" fill="#393939" fill-opacity="0.2"/>
<path d="M1153.78 616H1153.37C1152.14 564.667 1151.8 513.334 1151.37 462.001C1151.06 410.667 1151.47 359.334 1151.64 308.001L1152.79 0H1153.2L1154.93 307.999C1155.2 359.333 1155.7 410.666 1155.48 461.999C1155.16 513.333 1154.91 564.666 1153.78 616Z" fill="#393939" fill-opacity="0.2"/>
<path d="M1184.9 616H1184.48C1183.26 564.667 1182.91 513.334 1182.49 462.001C1182.17 410.667 1182.58 359.334 1182.75 308.001L1183.9 0H1184.31L1186.04 307.999C1186.31 359.333 1186.82 410.666 1186.6 461.999C1186.27 513.333 1186.02 564.666 1184.9 616Z" fill="#393939" fill-opacity="0.2"/>
<path d="M1216.01 616H1215.81H1215.6C1214.37 564.667 1214.03 513.334 1213.6 462.001C1213.29 410.667 1213.7 359.334 1213.87 308.001L1215.02 0H1215.43L1217.16 307.999C1217.43 359.333 1217.94 410.666 1217.72 461.999C1217.39 513.333 1217.14 564.666 1216.01 616Z" fill="#393939" fill-opacity="0.2"/>
<path d="M1247.13 616H1246.72C1245.49 564.667 1245.14 513.334 1244.72 462.001C1244.4 410.667 1244.81 359.334 1244.99 308.001L1246.13 0H1246.54L1248.27 307.999C1248.54 359.333 1249.05 410.666 1248.83 461.999C1248.5 513.333 1248.26 564.666 1247.13 616Z" fill="#393939" fill-opacity="0.2"/>
<path d="M1279.95 461.999C1279.62 513.333 1279.37 564.666 1278.24 616H1277.83C1276.6 564.667 1276.26 513.334 1275.84 462.001C1275.52 410.667 1275.93 359.334 1276.1 308.001L1277.25 0H1277.66L1279.39 307.999C1279.66 359.333 1280.17 410.666 1279.95 461.999Z" fill="#393939" fill-opacity="0.2"/>
</svg>
