<svg width="65" height="61" viewBox="0 0 65 61" fill="none" xmlns="http://www.w3.org/2000/svg">
<rect x="0.53125" y="0.5" width="63" height="60" rx="5.5" fill="#0D0D0D" stroke="#0C446F"/>
<rect x="8.03125" y="8" width="47.8115" height="45.899" rx="6" fill="#084CBD"/>
<path d="M40.4313 32.9167C41.386 32.9167 42.3017 33.2986 42.9768 33.9784C43.652 34.6582 44.0312 35.5803 44.0312 36.5417V37.4056C44.0312 41.7278 38.9792 45 32.0312 45C25.0833 45 20.0312 41.8982 20.0312 37.4056V36.5417C20.0312 35.5803 20.4105 34.6582 21.0857 33.9784C21.7608 33.2986 22.6765 32.9167 23.6313 32.9167H40.4313ZM32.0312 16C32.9768 16 33.913 16.1875 34.7866 16.5519C35.6601 16.9162 36.4538 17.4503 37.1224 18.1235C37.791 18.7967 38.3214 19.5959 38.6832 20.4755C39.045 21.3552 39.2313 22.2979 39.2313 23.25C39.2313 24.2021 39.045 25.1448 38.6832 26.0245C38.3214 26.9041 37.791 27.7033 37.1224 28.3765C36.4538 29.0497 35.6601 29.5838 34.7866 29.9481C33.913 30.3125 32.9768 30.5 32.0312 30.5C30.1217 30.5 28.2903 29.7362 26.9401 28.3765C25.5898 27.0169 24.8313 25.1728 24.8313 23.25C24.8313 21.3272 25.5898 19.4831 26.9401 18.1235C28.2903 16.7638 30.1217 16 32.0312 16Z" fill="white"/>
</svg>
