<svg width="91" height="86" viewBox="0 0 91 86" fill="none" xmlns="http://www.w3.org/2000/svg">
<rect x="0.982361" y="0.443299" width="89.5464" height="85.1134" rx="4.87629" fill="#1C1C1C" stroke="#3A3A3A" stroke-width="0.886598"/>
<rect x="12.0664" y="11.5258" width="67.3814" height="64.7216" rx="5.31959" fill="#084CBD"/>
<path d="M39.886 41.3462H44.6702C46.2027 41.3462 47.4661 41.0873 48.4602 40.5695C49.4543 40.0311 50.1895 39.2855 50.6659 38.3328C51.1629 37.3594 51.4114 36.2307 51.4114 34.9466C51.4114 33.7868 51.1836 32.7617 50.728 31.8711C50.2931 30.9599 49.62 30.2557 48.7087 29.7586C47.7975 29.2409 46.648 28.982 45.2604 28.982C44.1628 28.982 43.1479 29.1995 42.216 29.6344C41.284 30.0693 40.5384 30.6803 39.9792 31.4673C39.42 32.2543 39.1404 33.2069 39.1404 34.3253H30.1624C30.1624 31.8401 30.8252 29.6758 32.1506 27.8326C33.4968 25.9893 35.2986 24.5499 37.5561 23.5144C39.8135 22.4789 42.2988 21.9611 45.0119 21.9611C48.077 21.9611 50.7591 22.4582 53.0579 23.4523C55.3568 24.4257 57.1483 25.8651 58.4323 27.7704C59.7164 29.6758 60.3584 32.0368 60.3584 34.8534C60.3584 36.2825 60.027 37.6701 59.3643 39.0163C58.7016 40.3417 57.7489 41.5429 56.5062 42.6199C55.2843 43.6761 53.7932 44.5253 52.0328 45.1673C50.2724 45.7886 48.2945 46.0993 46.0992 46.0993H39.886V41.3462ZM39.886 48.1496V43.5208H46.0992C48.5637 43.5208 50.728 43.8004 52.5919 44.3596C54.4559 44.9188 56.0195 45.7265 57.2829 46.7827C58.5462 47.8182 59.4989 49.0505 60.1409 50.4795C60.783 51.8879 61.104 53.4515 61.104 55.1705C61.104 57.283 60.7001 59.1676 59.8924 60.8245C59.0847 62.4606 57.9456 63.8482 56.4752 64.9873C55.0254 66.1264 53.3272 66.9962 51.3804 67.5968C49.4336 68.1767 47.3108 68.4667 45.0119 68.4667C43.1065 68.4667 41.2322 68.2078 39.389 67.69C37.5664 67.1515 35.9096 66.3542 34.4184 65.2979C32.948 64.221 31.7675 62.8748 30.8769 61.2594C30.0071 59.6233 29.5722 57.6868 29.5722 55.4501H38.5502C38.5502 56.6099 38.8401 57.6454 39.42 58.5567C39.9999 59.4679 40.7973 60.1824 41.8121 60.7002C42.8476 61.218 43.9971 61.4768 45.2604 61.4768C46.6894 61.4768 47.9114 61.218 48.9262 60.7002C49.9617 60.1617 50.7487 59.4161 51.2872 58.4635C51.8464 57.4901 52.126 56.3613 52.126 55.0773C52.126 53.4204 51.8257 52.095 51.225 51.1009C50.6244 50.086 49.765 49.3405 48.6466 48.8641C47.5282 48.3878 46.2027 48.1496 44.6702 48.1496H39.886Z" fill="white"/>
</svg>
