<svg width="91" height="86" viewBox="0 0 91 86" fill="none" xmlns="http://www.w3.org/2000/svg">
<rect x="0.982361" y="0.443299" width="89.5464" height="85.1134" rx="4.87629" fill="#1C1C1C" stroke="#3A3A3A" stroke-width="0.886598"/>
<rect x="12.0664" y="11.5258" width="67.3814" height="64.7216" rx="5.31959" fill="#084CBD"/>
<path d="M61.6593 60.8555V67.8453H30.7177V61.8807L45.3497 46.1925C46.8201 44.5563 47.9799 43.1169 48.8291 41.8743C49.6782 40.611 50.2892 39.4822 50.662 38.4881C51.0555 37.4733 51.2522 36.5103 51.2522 35.599C51.2522 34.2321 51.0244 33.062 50.5688 32.0886C50.1131 31.0945 49.44 30.3282 48.5495 29.7897C47.6796 29.2512 46.6027 28.982 45.3186 28.982C43.9517 28.982 42.7712 29.3134 41.7771 29.9761C40.8037 30.6388 40.0582 31.5605 39.5404 32.741C39.0433 33.9215 38.7948 35.2573 38.7948 36.7485H29.8168C29.8168 34.0561 30.4588 31.5915 31.7429 29.3548C33.0269 27.0973 34.8391 25.3059 37.1794 23.9804C39.5197 22.6342 42.2949 21.9611 45.505 21.9611C48.6737 21.9611 51.3454 22.4789 53.52 23.5144C55.7153 24.5292 57.3722 25.9997 58.4905 27.9258C59.6296 29.8311 60.1992 32.1093 60.1992 34.7602C60.1992 36.2514 59.961 37.7115 59.4846 39.1405C59.0083 40.5488 58.3249 41.9572 57.4343 43.3655C56.5645 44.7531 55.5082 46.1614 54.2656 47.5904C53.023 49.0195 51.6457 50.5003 50.1338 52.0328L42.2742 60.8555H61.6593Z" fill="white"/>
</svg>
