<svg width="120" height="62" viewBox="0 0 120 62" fill="none" xmlns="http://www.w3.org/2000/svg">
<rect x="0.360413" y="0.400208" width="119.24" height="61.2992" rx="10" fill="#D9D9D9" fill-opacity="0.08"/>
<mask id="mask0_558_2254" style="mask-type:luminance" maskUnits="userSpaceOnUse" x="11" y="20" width="98" height="21">
<path d="M11.5562 20.6916H108.107V40.7832H11.5562V20.6916Z" fill="white"/>
</mask>
<g mask="url(#mask0_558_2254)">
<path d="M25.1694 20.8115C24.4924 20.5001 24.0085 20.8115 24.0085 21.5549V35.4851C24.0085 36.2274 24.4684 36.5399 25.1694 36.2274L26.0646 35.844C26.6205 35.5805 26.8867 35.2211 26.8867 34.6217V22.4412C26.8867 21.8418 26.6205 21.4584 26.064 21.219L25.1694 20.8115ZM46.4486 25.1513C45.3123 25.1513 44.224 25.6307 43.4985 26.3736V21.4595C43.4985 21.1001 43.2808 20.9081 42.9426 20.9081H41.2014C40.8386 20.9081 40.6455 21.1241 40.6455 21.4595V35.5811C40.6455 35.9405 40.8632 36.1325 41.2014 36.1325H42.7735C43.1363 36.1325 43.3294 35.9165 43.3294 35.5811V34.9817C44.0064 35.7491 45.2638 36.3245 46.5217 36.3245C49.2536 36.3245 51.6228 33.8549 51.6228 30.7379C51.6228 27.5735 49.2291 25.1513 46.4486 25.1513ZM20.4066 25.3428C20.0438 25.3428 19.8507 25.5587 19.8507 25.8942V26.4936C19.2217 25.7267 18.0369 25.1513 16.876 25.1513C14.023 25.1508 11.5562 27.5729 11.5562 30.7373C11.5562 33.9018 13.8779 36.0834 16.8035 36.0834C18.1094 36.0834 19.1246 35.484 19.705 34.8611C19.6805 37.0662 18.5202 38.0736 16.4887 38.0736C15.425 38.0496 14.4092 37.7376 13.2489 36.9942C12.9347 36.7788 12.596 36.8508 12.4269 37.1862L11.7253 38.5535C11.5562 38.865 11.6048 39.1769 11.943 39.3924C13.3941 40.3277 15.1113 40.7831 16.5858 40.7831C20.4546 40.7831 22.5826 38.7215 22.5826 33.9503V25.8942C22.5826 25.5347 22.3649 25.3428 22.0262 25.3428H20.4066ZM33.7541 25.1513C30.7314 25.1513 28.1926 27.5009 28.1926 30.7379C28.1926 33.9743 30.6834 36.3239 33.7541 36.3239C36.7768 36.3239 39.3155 33.9743 39.3155 30.7373C39.3155 27.5004 36.8247 25.1508 33.7535 25.1508L33.7541 25.1513ZM58.3451 25.1513C55.323 25.1513 52.7842 27.5009 52.7842 30.7379C52.7842 33.9743 55.2744 36.3239 58.3456 36.3239C61.3666 36.3239 63.906 33.9743 63.906 30.7373C63.906 27.5004 61.4157 25.1508 58.3445 25.1508L58.3451 25.1513ZM76.2869 32.1761C75.9727 32.1761 75.8036 32.3201 75.6339 32.5835C75.2231 33.3029 74.5216 33.5903 73.6755 33.5903C72.2005 33.5903 71.0642 32.3681 71.0642 30.7373C71.0642 29.0831 72.2245 27.8843 73.6755 27.8843C74.4976 27.8843 75.1266 28.2198 75.5373 28.8432C75.7064 29.1311 75.9241 29.2506 76.2143 29.2506H78.1007C78.4874 29.2506 78.7051 29.0111 78.584 28.6277C77.9556 26.5895 75.9241 25.1753 73.627 25.1753C70.6774 25.1753 68.2352 27.5249 68.2352 30.7619C68.2352 33.9983 70.5803 36.3479 73.627 36.3479C75.9727 36.3479 78.0281 34.9571 78.6326 32.8235C78.7291 32.4395 78.4874 32.2241 78.1247 32.2241H76.2869V32.1761ZM85.1846 25.1508C82.162 25.1508 79.6232 27.5004 79.6232 30.7373C79.6232 33.9738 82.114 36.3234 85.1846 36.3234C88.2073 36.3234 90.7461 33.9738 90.7461 30.7368C90.7461 27.4998 88.2559 25.1508 85.1846 25.1508ZM103.586 25.1508C102.425 25.1508 101.24 25.6302 100.418 26.6855C99.8136 25.7982 98.7984 25.1508 97.5164 25.1508C96.259 25.1508 95.3644 25.7022 94.784 26.4456V25.8936C94.784 25.5342 94.5669 25.3422 94.2281 25.3422H92.6565C92.2937 25.3422 92.1001 25.5582 92.1001 25.8936V35.556C92.1001 35.9154 92.3177 36.1074 92.6565 36.1074H94.3972C94.76 36.1074 94.9536 35.8914 94.9536 35.556V30.2574C94.9536 28.7472 95.7032 27.8358 96.888 27.8358C98.0483 27.8358 98.6773 28.6272 98.6773 30.1614V35.556C98.6773 35.9154 98.8949 36.1074 99.2331 36.1074H100.974C101.337 36.1074 101.53 35.8914 101.53 35.556V30.2574C101.53 28.7472 102.28 27.8358 103.465 27.8358C104.649 27.8358 105.254 28.6272 105.254 30.1614V35.556C105.254 35.9154 105.472 36.1074 105.81 36.1074H107.552C107.914 36.1074 108.107 35.8914 108.107 35.556V29.8265C108.059 26.9735 106.391 25.1513 103.586 25.1513V25.1508ZM17.0691 33.5664C15.5941 33.5664 14.3612 32.4155 14.3612 30.7133C14.3612 28.9871 15.5946 27.8603 17.0691 27.8603C18.5442 27.8603 19.7776 29.0111 19.7776 30.7133C19.7536 32.4155 18.5442 33.5664 17.0691 33.5664ZM33.7535 33.5903C32.2545 33.5903 31.0456 32.3916 31.0456 30.7373C31.0456 29.0831 32.2545 27.8843 33.7535 27.8843C35.2526 27.8843 36.462 29.0831 36.462 30.7373C36.486 32.3916 35.2526 33.5903 33.7535 33.5903ZM46.1099 33.5903C44.6588 33.5903 43.4254 32.4395 43.4254 30.7373C43.4254 29.0351 44.6348 27.8843 46.1099 27.8843C47.5609 27.8843 48.7938 29.0351 48.7938 30.7373C48.7938 32.4635 47.5609 33.5903 46.1099 33.5903ZM58.3445 33.5903C56.8455 33.5903 55.6366 32.3916 55.6366 30.7373C55.6366 29.0831 56.8455 27.8843 58.3445 27.8843C59.8441 27.8843 61.053 29.0831 61.053 30.7373C61.077 32.3916 59.8441 33.5903 58.3445 33.5903ZM85.1846 33.5903C83.6856 33.5903 82.4767 32.3916 82.4767 30.7373C82.4767 29.0831 83.6856 27.8843 85.1846 27.8843C86.6837 27.8843 87.8931 29.0831 87.8931 30.7373C87.9171 32.3916 86.7083 33.5903 85.1846 33.5903ZM66.0586 32.6075C65.0908 32.6075 64.1962 33.3509 64.1962 34.4537C64.1962 35.5805 65.0908 36.3234 66.058 36.3234C67.0252 36.3234 67.9204 35.5805 67.9204 34.4777C67.9204 33.3504 67.0258 32.6075 66.0586 32.6075Z" fill="#AEAEAE"/>
</g>
</svg>
