<svg width="120" height="62" viewBox="0 0 120 62" fill="none" xmlns="http://www.w3.org/2000/svg">
<rect x="0.560303" width="119.24" height="61.2992" rx="10" fill="#D9D9D9" fill-opacity="0.08"/>
<path d="M87.5128 21.1963H87.1075L87.0283 21.2013C86.4133 21.2763 85.8192 21.4724 85.2804 21.7782C84.7416 22.0841 84.2687 22.4937 83.8891 22.9833L80.7303 27.0433C80.6795 27.1399 80.6032 27.2208 80.5097 27.2772C80.4163 27.3337 80.3092 27.3635 80.2 27.3635C80.0908 27.3635 79.9837 27.3337 79.8903 27.2772C79.7968 27.2208 79.7205 27.1399 79.6697 27.0433L76.515 22.9833C76.1354 22.4937 75.6625 22.0841 75.1237 21.7782C74.5849 21.4724 73.9908 21.2763 73.3758 21.2013H73.1144C72.6857 21.2003 72.261 21.2839 71.8646 21.4472C71.4682 21.6105 71.1079 21.8504 70.8043 22.1531C70.5007 22.4557 70.2597 22.8153 70.0952 23.2112C69.9307 23.6071 69.8458 24.0315 69.8454 24.4602V38.5134C69.8454 38.5689 69.8564 38.6238 69.8776 38.6751C69.8989 38.7263 69.93 38.7729 69.9693 38.8121C70.0085 38.8513 70.0551 38.8824 70.1064 38.9036C70.1577 38.9248 70.2126 38.9357 70.2681 38.9356H73.5083C73.5638 38.9357 73.6188 38.9248 73.67 38.9036C73.7213 38.8824 73.7679 38.8513 73.8072 38.8121C73.8464 38.7729 73.8776 38.7263 73.8988 38.6751C73.92 38.6238 73.931 38.5689 73.931 38.5134V26.7847C73.9307 26.718 73.9514 26.6529 73.9901 26.5986C74.0288 26.5443 74.0835 26.5035 74.1466 26.4819C74.2097 26.4603 74.278 26.4591 74.3418 26.4784C74.4057 26.4976 74.4619 26.5364 74.5025 26.5893L76.6662 29.3728C77.0779 29.9234 77.6106 30.372 78.2232 30.6839C78.8358 30.9959 79.5119 31.163 80.1993 31.1721C80.887 31.163 81.5634 30.996 82.1763 30.684C82.7892 30.3721 83.3222 29.9234 83.7342 29.3728L85.9011 26.5879C85.9417 26.535 85.9979 26.4963 86.0618 26.477C86.1256 26.4577 86.1939 26.459 86.257 26.4805C86.3201 26.5021 86.3748 26.5429 86.4135 26.5972C86.4522 26.6515 86.4729 26.7166 86.4727 26.7833V38.5139C86.4727 38.5694 86.4836 38.6243 86.5048 38.6755C86.5261 38.7268 86.5572 38.7733 86.5965 38.8126C86.6357 38.8518 86.6823 38.8829 86.7336 38.904C86.7848 38.9252 86.8398 38.9361 86.8953 38.9361H90.1356C90.191 38.9361 90.246 38.9252 90.2973 38.904C90.3485 38.8829 90.3951 38.8518 90.4344 38.8126C90.4736 38.7733 90.5048 38.7268 90.526 38.6755C90.5473 38.6243 90.5582 38.5694 90.5582 38.5139V24.2384C90.558 23.8387 90.4791 23.4429 90.3259 23.0737C90.1728 22.7045 89.9484 22.3691 89.6656 22.0866C89.3829 21.8041 89.0472 21.58 88.6778 21.4273C88.3084 21.2745 87.9125 21.196 87.5128 21.1963Z" fill="#AEAEAE"/>
<path d="M105.418 21.9281C104.121 21.4346 102.741 21.1941 101.353 21.2195H100.318C98.934 21.1947 97.5581 21.4351 96.2646 21.9277C94.3938 22.7816 93.4279 24.3377 93.386 26.5515H93.3819V33.9006H93.3905C93.4775 36.0255 94.4416 37.5243 96.2646 38.3554C98.3563 39.3118 102.78 39.3118 104.872 38.3554C105.555 38.0706 106.159 37.625 106.633 37.0565C107.107 36.4879 107.437 35.8134 107.594 35.0901L107.639 34.8938C107.663 34.7881 107.646 34.677 107.591 34.5837C107.535 34.4904 107.446 34.4221 107.342 34.3929L104.325 33.5522C104.27 33.5365 104.212 33.5324 104.154 33.5401C104.097 33.5477 104.042 33.567 103.993 33.5966C103.944 33.6262 103.901 33.6657 103.867 33.7125C103.834 33.7592 103.81 33.8124 103.798 33.8687C103.798 33.8687 103.574 34.7339 103.033 34.9589C102.067 35.3574 98.911 35.3688 97.9597 34.9362C97.813 34.8692 97.4697 34.7126 97.4697 33.8646V32.2579H101.364C102.749 32.2829 104.127 32.0423 105.421 31.5492C107.238 30.7195 108.202 29.2266 108.294 27.1144H108.304V26.552H108.299C108.255 24.3386 107.289 22.7825 105.418 21.9281ZM103.896 27.0584C103.896 27.9077 103.552 28.0644 103.406 28.1309C102.638 28.3667 101.836 28.4762 101.033 28.4551H97.1472V26.4185C97.1472 25.5705 97.4906 25.4139 97.6373 25.3474C98.4054 25.1115 99.2067 25.002 100.01 25.0231H101.023C101.829 25.0015 102.634 25.1109 103.406 25.3469C103.552 25.4139 103.896 25.5705 103.896 26.4185V27.0584Z" fill="#AEAEAE"/>
<path d="M64.1386 21.968C62.0469 21.0116 57.623 21.0116 55.5313 21.968C54.8482 22.2527 54.244 22.6984 53.7702 23.2669C53.2965 23.8354 52.9671 24.51 52.8102 25.2333L52.7646 25.4296C52.7403 25.5353 52.7577 25.6463 52.813 25.7396C52.8684 25.8328 52.9576 25.9012 53.062 25.9305L56.0787 26.7708C56.1341 26.7864 56.1922 26.7905 56.2493 26.7828C56.3063 26.7752 56.3613 26.756 56.4107 26.7263C56.4601 26.6967 56.5029 26.6572 56.5365 26.6105C56.57 26.5637 56.5937 26.5105 56.6061 26.4542C56.6061 26.4542 56.8301 25.589 57.3702 25.364C58.3371 24.9655 61.4926 24.9541 62.444 25.3867C62.5907 25.4537 62.934 25.6104 62.934 26.4583V28.0651H59.0421C57.6569 28.04 56.2798 28.2806 54.9852 28.7737C53.1686 29.6034 52.204 31.0963 52.112 33.2085H52.1029V33.7709H52.107C52.1484 35.9838 53.1144 37.5404 54.9852 38.3948C56.283 38.8884 57.6634 39.129 59.0516 39.1034H60.0863C61.7304 39.0793 63.2082 38.9804 64.1395 38.5542C66.0104 37.7007 66.9763 36.1441 67.0182 33.9303H67.0223V26.4228H67.0118C66.9258 24.2978 65.9616 22.7991 64.1386 21.968ZM62.9354 34.0651C62.9354 34.9127 62.592 35.0698 62.4454 35.1363C62.0496 35.3185 61.1147 35.2843 60.0727 35.3011H59.0598C58.2534 35.3227 57.4489 35.2132 56.6775 34.9769C56.5309 34.9099 56.1871 34.7533 56.1871 33.9053V33.2677C56.1871 32.4184 56.5304 32.2617 56.6766 32.1952C57.4449 31.9594 58.2464 31.8499 59.0498 31.871H62.9354V34.0651Z" fill="#AEAEAE"/>
<path d="M45.4344 23.7884V23.7934L40.6781 19.0762C40.1034 18.5114 39.3299 18.1949 38.5242 18.1949C37.7184 18.1949 36.9449 18.5114 36.3703 19.0762L31.2651 24.1391C30.6918 24.7058 29.9182 25.0236 29.1121 25.0236C28.306 25.0236 27.5324 24.7058 26.9591 24.1391L21.8539 19.0762C21.2793 18.5114 20.5058 18.1949 19.7 18.1949C18.8943 18.1949 18.1208 18.5114 17.5462 19.0762L12.7898 23.7934V23.7884C12.1556 24.4193 11.7859 25.2683 11.7561 26.1624C11.7263 27.0564 12.0387 27.9282 12.6295 28.5999C12.6359 28.6072 26.9587 42.8111 26.9587 42.8111C27.532 43.3778 28.3056 43.6956 29.1117 43.6956C29.9178 43.6956 30.6913 43.3778 31.2646 42.8111C31.2646 42.8111 45.5875 28.6072 45.5938 28.5999C46.1846 27.9282 46.497 27.0564 46.4672 26.1624C46.4374 25.2683 46.0677 24.4193 45.4335 23.7884H45.4344Z" fill="#AEAEAE"/>
<path opacity="0.5" d="M26.9577 24.1393C27.5313 24.706 28.3052 25.0237 29.1116 25.0237C29.9179 25.0237 30.6918 24.706 31.2654 24.1393L36.3693 19.0751C36.914 18.5358 37.6421 18.2219 38.4082 18.1961V18.1911H19.814V18.1961C20.5807 18.2219 21.3094 18.536 21.8547 19.0755L26.9577 24.1393Z" fill="#AEAEAE"/>
</svg>
