<svg width="131" height="131" viewBox="0 0 131 131" fill="none" xmlns="http://www.w3.org/2000/svg">
<rect x="0.0595703" y="0.348877" width="130.043" height="130.043" rx="8" fill="#786FB2"/>
<path fill-rule="evenodd" clip-rule="evenodd" d="M36.9121 57.8801C32.0574 57.8801 28.63 57.2512 25.0292 55.5015C19.3431 52.7376 20.0805 51.8111 17.5 50.3261C17.5 64.4598 18.3634 71.6034 26.9478 82.497C29.2884 85.4655 32.299 87.9401 35.6519 90.1258C36.8749 90.9234 37.9101 91.5483 39.1268 92.1761C46.613 96.0461 51.5004 97.2271 60.7209 97.2271C69.591 97.2271 76.4703 91.2924 76.4703 83.6922C76.4703 75.0306 72.8723 69.4561 66.6726 64.0972C65.3895 62.9886 62.5141 60.8103 60.7209 60.3984V59.7681C62.5525 59.6382 64.3783 58.786 66.4298 58.3795C79.5191 55.7894 87.5103 59.3946 97.5576 65.8833C102.503 69.0782 105.64 71.7299 111.999 71.7299C114.435 71.7299 114.197 70.6656 114.197 69.5265C114.197 65.9355 103.856 57.7143 100.722 55.9237C91.7352 50.7886 86.1093 49.3813 74.6387 49.3813C59.7893 49.3813 51.7855 57.8796 36.9121 57.8796V57.8801Z" fill="white"/>
<path fill-rule="evenodd" clip-rule="evenodd" d="M72.0863 61.8936C72.0863 65.5009 78.3136 65.5009 78.3136 61.8936C78.3136 58.3489 72.0863 58.6805 72.0863 61.8936Z" fill="white"/>
</svg>
