<svg width="118" height="118" viewBox="0 0 118 118" fill="none" xmlns="http://www.w3.org/2000/svg">
<rect x="0.123047" y="0.554688" width="116.992" height="116.992" rx="8" fill="url(#paint0_linear_1139_2197)"/>
<path fill-rule="evenodd" clip-rule="evenodd" d="M23.2902 46.6377H20.9957V39.9341C23.6991 39.9341 26.6681 39.5441 27.9737 41.6116C28.6671 42.7093 28.5179 45.0861 26.9214 45.9838C26.0377 46.481 24.6828 46.6379 23.2905 46.6379L23.2902 46.6377ZM25.1027 50.2687H16.502C16.502 42.7663 16.5744 34.937 16.502 27.4488V26.5067C16.5615 26.3641 16.7306 26.3274 17.163 26.3318C20.3481 26.3658 25.5617 25.9612 28.0076 27.2399C29.4925 28.0163 30.6091 29.1362 31.0933 30.7525C31.3574 31.6337 31.4236 32.6891 31.2042 33.6741C30.9979 34.6006 30.6732 35.2557 30.1762 35.9317C29.4674 36.8961 28.7946 37.0504 28.358 37.4198C28.8026 37.4559 29.5877 37.8185 29.9526 38.0087C31.4002 38.7623 32.2526 39.9809 32.7472 41.5257C33.418 43.6208 32.675 46.1645 31.1083 47.8264C30.79 48.1638 30.3075 48.5388 29.9085 48.7996C29.4689 49.087 29.0231 49.3193 28.5371 49.5122C27.626 49.8741 26.3284 50.2195 25.1029 50.2687H25.1027ZM23.1945 36.3026H20.9957V30.0644H23.4814C27.9184 30.0644 28.1204 36.3026 23.1945 36.3026Z" fill="white"/>
<path fill-rule="evenodd" clip-rule="evenodd" d="M19.6858 61.8769L21.3368 66.5572C24.4138 65.1189 26.8399 64.3634 30.4933 64.3634C33.1763 64.3634 35.1467 65.7902 35.1467 68.4584C35.1467 71.2063 32.5291 72.9662 30.8363 74.2041C30.3095 74.5893 29.9194 74.8922 29.3793 75.2709L26.4867 77.4255C22.0863 81.0489 18.6348 86.2504 18.6348 92.2982H42.0518C42.0518 86.3167 42.4806 87.0048 40.5536 87.0303L26.7409 87.033C26.9008 85.1611 28.7638 83.0873 30.0058 81.8772C31.5199 80.4016 33.016 79.3843 34.6759 78.0911C38.0647 75.4507 41.7518 72.9467 41.7518 67.7269C41.7518 64.9372 40.703 63.2154 38.9406 61.5447C36.567 59.2948 32.7803 59.2441 29.5929 59.2441C26.3312 59.2441 21.8448 60.7636 19.6858 61.8769Z" fill="#006198"/>
<path fill-rule="evenodd" clip-rule="evenodd" d="M59.3908 76.6791V79.3067H54.7949C53.4021 79.3067 52.6386 79.4528 51.2717 79.4528L59.6973 68.7969C59.6973 71.5079 59.3908 73.6872 59.3908 76.6791ZM65.6717 92.2982H59.8422C59.4958 92.2966 59.3908 92.194 59.3908 91.8605V84.2696H44.2246V80.6206C44.2246 79.9665 44.81 79.5406 45.1876 79.0565L48.3823 75.0938C51.8009 70.7401 55.7209 66.1853 59.1291 61.8324C61.6541 58.6073 60.3455 59.3085 65.6722 59.3085V79.3067H70.4213C70.7745 79.3067 70.8811 79.4083 70.8811 79.7448V84.27H65.6722L65.6717 92.2982Z" fill="#006198"/>
<path fill-rule="evenodd" clip-rule="evenodd" d="M86.8743 41.6027L80.2773 50.2617H85.0578L88.2135 45.9795C88.4212 45.6916 89.1151 44.742 89.3602 44.5821C89.424 44.815 89.6951 45.1289 89.839 45.3263L91.4066 47.4312C92.1073 48.4193 92.7997 49.2845 93.4717 50.2617H98.1568C98.0721 49.9532 96.8155 48.3764 96.5867 48.0666L94.9607 45.9259C94.5395 45.3801 92.0495 42.1528 91.7508 41.6029L96.5179 35.2587C96.7789 34.9221 98.0275 33.4318 98.0611 33.0374H93.4717C92.8943 33.8769 89.5289 38.4354 89.2649 38.6239L86.2862 34.5415C84.8174 32.5945 86.084 33.0374 80.5643 33.0374C80.6532 33.4093 80.6673 33.3309 80.8633 33.5842L83.6785 37.3602C84.2366 38.0791 84.7108 38.7682 85.2493 39.4619L86.4533 41.0826C86.6077 41.3021 86.7201 41.4302 86.8748 41.6034L86.8743 41.6027Z" fill="white"/>
<path fill-rule="evenodd" clip-rule="evenodd" d="M47.0947 29.1213V33.032H44.2264C44.0059 33.032 43.9395 33.0968 43.9395 33.3112V36.2907C43.9395 36.5053 44.0059 36.5701 44.2264 36.5701H47.0947V45.6949C47.0947 46.8676 47.3924 48.0124 47.8987 48.7292C48.2988 49.2953 49.3371 50.2558 50.248 50.257H54.7452C55.5662 50.256 56.959 49.4212 57.3249 49.3261L55.9863 46.2535C54.9913 46.7664 52.4266 47.8671 51.7857 46.1545C51.4398 45.2309 51.5882 37.9754 51.5882 36.5703H55.6038C55.937 36.5703 55.9792 36.0884 56.0706 35.8145L56.8703 33.3192C56.8957 33.163 56.9816 33.0325 56.6556 33.0325H51.5882V27.8184C51.2791 27.9629 50.8816 28.035 50.5008 28.156L47.0944 29.1218L47.0947 29.1213Z" fill="white"/>
<path fill-rule="evenodd" clip-rule="evenodd" d="M64.0254 34.8661C63.8764 34.244 63.6959 33.6262 63.5472 33.004L60.4818 32.9985C60.0759 32.9922 59.7227 32.9063 59.7227 33.2832V50.2288H64.2165V38.3111C64.2165 37.9676 65.3512 37.2945 65.6493 37.0995C67.6773 35.772 69.0761 36.8303 69.8575 37.0076C70.054 36.1868 71.27 33.7736 71.3875 33.2832C71.0812 33.2037 71.1907 33.1872 70.8687 33.0433C70.6821 32.9604 70.453 32.8772 70.3162 32.8364C66.7102 31.7675 64.6028 34.716 64.0252 34.8661H64.0254Z" fill="white"/>
<path fill-rule="evenodd" clip-rule="evenodd" d="M73.3887 33.2968V50.2423H77.6964C77.9126 50.2414 77.978 50.1759 77.978 49.9632V33.2968C77.978 33.0823 77.9115 33.0176 77.6911 33.0176H73.6756C73.4552 33.0176 73.3887 33.0823 73.3887 33.2968Z" fill="white"/>
<path fill-rule="evenodd" clip-rule="evenodd" d="M41.2613 50.2423V33.2968C41.2613 33.0823 41.1948 33.0176 40.9744 33.0176H36.7676V50.2423H41.2613Z" fill="white"/>
<path fill-rule="evenodd" clip-rule="evenodd" d="M87.276 61.7263C89.476 61.7263 90.5263 61.7981 92.6018 62.7587C93.8164 63.3211 94.6468 64.1434 95.5242 65.0082C99.3738 68.8042 99.2116 75.4139 95.2287 79.3982C90.2751 84.3523 81.7948 82.9462 78.5965 76.5821C77.9044 75.2059 77.829 74.2396 77.5696 72.4317C77.1596 69.5749 79.1841 65.6325 81.5659 63.8512C83.1007 62.7034 85.2198 61.7266 87.2756 61.7266L87.276 61.7263ZM100.737 71.4315V72.6758C100.653 74.3856 100.224 76.0854 99.4467 77.7034C98.6055 79.4528 96.6297 81.6857 94.9986 82.7101C88.8897 86.5453 81.5467 85.0054 77.5753 79.5189C75.7076 76.9376 75.1465 74.7758 75.1465 71.465C75.1465 66.8261 78.6416 61.9596 82.8785 60.2905C88.4656 58.0891 93.7894 59.4068 97.669 63.754C97.9495 64.068 98.0744 64.2264 98.3303 64.57C98.8046 65.2081 99.1515 65.7317 99.5053 66.4963C100.244 68.09 100.655 69.7575 100.737 71.4315Z" fill="#006198"/>
<path fill-rule="evenodd" clip-rule="evenodd" d="M72.9121 27.73C72.9121 29.3488 74.1218 30.3258 75.6085 30.4027C77.02 30.4759 78.4577 29.3444 78.4577 27.6368C78.4577 26.3538 77.2181 25.1243 75.687 25.123H75.6828C74.1694 25.1243 72.9121 26.2679 72.9121 27.73Z" fill="white"/>
<path fill-rule="evenodd" clip-rule="evenodd" d="M36.2871 27.6284C36.2871 28.8882 36.8458 29.8773 38.0879 30.2511C40.3485 30.9309 42.5053 28.9541 41.5601 26.6836C40.5468 24.2494 36.2874 24.7927 36.2874 27.6284H36.2871Z" fill="white"/>
<path fill-rule="evenodd" clip-rule="evenodd" d="M87.9414 66.1226V73.7154C87.9414 74.0651 88.0339 74.1707 88.3403 74.1707H95.3818C95.3818 72.7798 95.5504 72.1967 94.9834 72.1967H89.6687V65.6673C88.4517 65.6673 87.9414 65.475 87.9414 66.123V66.1226Z" fill="#006198"/>
<defs>
<linearGradient id="paint0_linear_1139_2197" x1="58.6192" y1="0.554687" x2="58.6192" y2="117.547" gradientUnits="userSpaceOnUse">
<stop stop-color="#30C6F7"/>
<stop offset="1" stop-color="#3CAAF2"/>
</linearGradient>
</defs>
</svg>
