<svg width="114" height="114" viewBox="0 0 114 114" fill="none" xmlns="http://www.w3.org/2000/svg">
<rect width="113.713" height="113.713" rx="10" fill="white"/>
<path fill-rule="evenodd" clip-rule="evenodd" d="M72.5126 60.2984C71.3743 60.2984 70.0987 60.3903 69.384 59.433C68.5908 58.3703 68.5874 55.1736 69.4717 54.262C69.7806 53.9434 70.002 53.8078 70.4752 53.6609C70.8944 53.5305 71.4811 53.4874 72.0133 53.4874C73.9732 53.4874 74.918 54.0702 75.116 55.8764C75.1406 56.1012 75.1367 56.4074 75.1722 56.6405C75.2066 56.868 75.1264 57.8826 75.091 58.0984C74.943 59.0031 74.6574 59.6322 73.8445 60.0257C73.549 60.1689 72.9396 60.2986 72.5126 60.2986V60.2984ZM75.1873 45H78.7176V63.7575C78.7176 63.8397 78.6928 63.8646 78.6106 63.8646H75.1873V62.2954C75.0297 62.4007 74.8941 62.6133 74.5602 62.8452C74.4288 62.9362 74.3535 62.9926 74.2179 63.0737C72.1666 64.3035 69.1496 64.0005 67.5506 62.6931C67.334 62.5162 67.1549 62.344 66.9577 62.1445L66.6946 61.8369C64.8812 59.6191 64.8065 54.6487 66.445 52.3049C66.7836 51.8204 66.9514 51.6273 67.3853 51.2484C67.749 50.931 68.1528 50.6844 68.6132 50.4793C69.9987 49.8628 72.1284 49.7481 73.5706 50.3964C74.7873 50.9435 74.8822 51.2932 75.1875 51.4544V45H75.1873Z" fill="#322DE6"/>
<path fill-rule="evenodd" clip-rule="evenodd" d="M12.5305 59.3356C12.5305 58.6975 12.688 58.3222 13.2531 58.0969C13.9848 57.8057 16.108 57.7723 16.8344 58.0985C17.3369 58.3243 17.5586 58.6448 17.5586 59.2643C17.5586 60.4136 16.5205 60.6278 15.5614 60.6194C15.3458 60.6175 15.2533 60.6436 15.0946 60.6547L14.1805 60.6098C13.4429 60.5122 12.5303 60.4076 12.5303 59.3356H12.5305ZM9 59.3948V58.9832C9.02355 58.3384 9.15932 57.7116 9.41555 57.1835C9.66565 56.6672 9.95176 56.2116 10.3823 55.8322L11.0661 55.3393C12.6433 54.3944 15.3341 54.4366 16.8744 55.4197C17.2635 55.6681 17.4259 55.8943 17.5586 55.9833V53.4871H10.569V49.9565H17.5586C19.5183 49.9565 21.089 51.5587 21.089 53.5227V60.2983H22.6583C22.7405 60.2983 22.7654 60.323 22.7654 60.4053V63.7574C22.7654 63.8395 22.7405 63.8644 22.6583 63.8644H19.1991C18.641 63.8644 18.3679 63.7756 18.0362 63.5295C17.7768 63.3368 17.5586 62.909 17.5586 62.545C17.3053 62.7145 17.1298 62.9446 16.7727 63.1496C16.3592 63.3872 16.319 63.4033 15.8604 63.5571C15.6089 63.6413 15.4356 63.6829 15.1488 63.7369C13.2284 64.0975 11.0236 63.6858 9.85047 62.0869C9.32862 61.3759 9.036 60.3837 9.00019 59.3944L9 59.3948Z" fill="#322DE6"/>
<path fill-rule="evenodd" clip-rule="evenodd" d="M42.165 53.4872C42.9115 53.4872 43.5913 53.5889 44.0407 53.9292C44.4337 54.2264 44.7323 54.845 44.7323 55.5198H39.6684C39.6816 54.9284 40.0355 54.248 40.381 53.9857C40.8909 53.5988 41.4681 53.4872 42.1648 53.4872H42.165ZM36.1022 56.9105C36.1022 58.9912 36.6643 60.7599 37.9653 62.0725C38.9673 63.0832 40.6868 63.7075 42.0932 63.7931C42.4149 63.8126 42.8974 63.8236 43.2042 63.8594C43.4402 63.8869 43.5334 63.8333 43.7326 63.8276C44.5735 63.8023 44.3969 63.8477 45.3809 63.7282L47.3714 63.3651V59.9058C47.1628 59.9058 45.6208 60.2982 44.3402 60.2982C42.8323 60.2982 40.6745 60.4644 39.9684 58.7859C39.9139 58.6555 39.8231 58.4098 39.8112 58.2654H47.835C48.4413 58.2673 48.2987 58.5482 48.2987 56.4469C48.2987 55.1127 48.0076 53.7162 47.4311 52.6427C47.273 52.3479 47.1482 52.1898 46.959 51.9377C46.8843 51.8378 46.8537 51.8181 46.7802 51.724C46.5498 51.4289 46.2699 51.2185 45.9757 50.9957C44.3767 49.7851 41.2977 49.6627 39.5023 50.4676C38.7955 50.7843 38.0971 51.2445 37.6153 51.8613C36.4787 53.3156 36.1024 54.9802 36.1024 56.9101L36.1022 56.9105Z" fill="#322DE6"/>
<path fill-rule="evenodd" clip-rule="evenodd" d="M88.0251 60.2986C86.9286 60.2986 85.5672 60.3778 84.9075 59.4221C84.4515 58.7619 84.3519 57.8914 84.3519 56.8395C84.3519 54.2438 85.1402 53.4874 87.6328 53.4874C88.1098 53.4874 88.6837 53.5462 89.0723 53.6527C89.2818 53.7099 89.4681 53.7879 89.6288 53.8807C90.417 54.3354 90.6028 55.2172 90.6944 56.06L90.7353 56.8395C90.7353 57.128 90.6997 57.2648 90.7006 57.5536C90.7016 57.7679 90.6595 58.0639 90.6196 58.2571C90.4595 59.0375 90.1531 59.7689 89.3498 60.0538C88.9741 60.1871 88.5417 60.2984 88.025 60.2984L88.0251 60.2986ZM80.8214 56.8038C80.8214 57.9699 80.9911 58.9546 81.3358 59.8556C82.1202 61.9062 83.8035 63.3406 86.0328 63.7177C87.5929 63.9812 89.6614 63.8553 91.0141 63.0378C91.2039 62.9231 91.3692 62.8471 91.5459 62.7136C92.2376 62.1916 92.7472 61.7251 93.208 60.9522C93.6595 60.1944 93.9753 59.3353 94.1237 58.4446C94.1628 58.2108 94.1998 57.9253 94.2253 57.6903C94.2404 57.552 94.2205 57.4109 94.2358 57.2726C94.2979 56.7148 94.2134 55.8793 94.1237 55.3413C93.9395 54.2356 93.5197 53.2116 92.8554 52.3307C92.7196 52.1509 92.6115 52.0285 92.4562 51.8738C91.1046 50.5243 89.5528 49.957 87.4905 49.957C85.8476 49.957 84.253 50.4366 83.079 51.4295L82.2584 52.2849C81.2915 53.5852 80.8216 55.0489 80.8216 56.804L80.8214 56.8038Z" fill="#322DE6"/>
<path fill-rule="evenodd" clip-rule="evenodd" d="M50.5453 53.5939V63.7574C50.5453 63.8395 50.5702 63.8644 50.6525 63.8644H54.0759V53.4871C54.7794 53.4871 59.4489 53.4214 59.7104 53.5225V63.8644L62.885 63.865C63.0499 63.8675 63.241 63.9127 63.241 63.7574V53.6652C63.241 52.6483 62.9306 51.7243 62.2515 51.0529C61.5805 50.3895 60.7721 49.9565 59.7461 49.9565H54.0402C53.2643 49.9565 52.5935 50.2292 52.0287 50.6195C51.1597 51.2195 50.5453 52.28 50.5453 53.5938V53.5939Z" fill="#322DE6"/>
<path fill-rule="evenodd" clip-rule="evenodd" d="M26.8664 55.6625C26.8664 54.5412 27.1029 53.6138 28.3659 53.5248L29.7914 53.5933C30.7419 53.8359 30.896 54.6334 30.896 55.6981C30.896 57.5306 30.2449 57.8022 28.7208 57.8022C27.801 57.8022 27.1225 57.5432 26.9524 56.5748C26.9066 56.3136 26.8666 55.9425 26.8666 55.6625H26.8664ZM23.3715 55.6625C23.3715 56.9237 23.6448 57.9004 24.1793 58.8841C24.3698 59.2348 24.5188 59.392 24.7513 59.6672L25.4545 60.3189C26.2622 60.9012 27.4063 61.3325 28.5063 61.3325C29.5774 61.3325 30.4307 61.3116 31.4068 60.8451C31.4924 60.8043 31.5401 60.7865 31.6262 60.7436C32.1872 60.4627 32.1923 60.3976 32.6226 60.0636C32.8564 59.8819 33.0803 59.6222 33.2597 59.3817C34.9113 57.1675 34.7389 53.3373 32.8837 51.4988C32.4009 51.0203 31.9307 50.6687 31.2423 50.3943C29.184 49.5741 26.3725 49.8785 24.8415 51.5341L24.2419 52.325C24.0462 52.6442 23.9332 52.8938 23.7882 53.2622C23.544 53.8821 23.3709 54.8134 23.3709 55.6623L23.3715 55.6625Z" fill="#322DE6"/>
<path fill-rule="evenodd" clip-rule="evenodd" d="M96.2986 53.7724V63.7574C96.2986 63.8395 96.3234 63.8644 96.4054 63.8644H99.8291V53.4871H105V49.9565H99.7935C98.3856 49.9565 97.0571 50.8905 96.5632 52.1824C96.3784 52.6652 96.2986 53.1219 96.2986 53.7724Z" fill="#322DE6"/>
<path fill-rule="evenodd" clip-rule="evenodd" d="M27.3298 65.9683C27.3298 66.1385 27.6191 66.0755 27.9358 66.0755C28.834 66.0753 29.5962 65.9801 30.2458 66.6186C31.0323 67.3909 30.8601 68.3536 30.8601 69.5702H34.3906V67.9655C34.3906 65.907 33.2274 64.2901 31.7448 63.3361C31.6678 63.2863 31.6152 63.2641 31.5395 63.2206C30.1188 62.4021 28.9345 62.545 27.3295 62.545V65.9683H27.3298Z" fill="#322DE6"/>
<path fill-rule="evenodd" clip-rule="evenodd" d="M30.8602 46.1412V48.7801H34.3907V46.1412C34.3907 46.0591 34.3658 46.0342 34.2837 46.0342H30.9672C30.8851 46.0342 30.8602 46.0591 30.8602 46.1412Z" fill="#322DE6"/>
</svg>
