<svg width="114" height="114" viewBox="0 0 114 114" fill="none" xmlns="http://www.w3.org/2000/svg">
<rect width="113.713" height="113.713" rx="10" fill="white"/>
<path fill-rule="evenodd" clip-rule="evenodd" d="M13.4966 50.5417C11.5023 50.5417 10.3458 51.4467 9.79271 52.0501C9.72573 51.5137 9.37375 50.8267 7.99973 50.8267H5V53.9438H6.22319C6.42435 53.9438 6.49155 54.0108 6.49155 54.212V68.4739H10.0444V62.7422C10.5975 63.2452 11.6533 63.949 13.3123 63.949C16.7813 63.949 19.2115 61.2003 19.2115 57.2454C19.2281 53.24 16.9155 50.542 13.4966 50.542H13.4968L13.4966 50.5417ZM12.776 60.8484C10.8655 60.8484 9.99387 59.0217 9.99387 57.3124C9.99387 54.6307 11.4519 53.6757 12.8263 53.6757C14.5022 53.6757 15.6417 55.1169 15.6417 57.2787C15.6251 59.7592 14.1837 60.8484 12.776 60.8484Z" fill="#203232"/>
<path fill-rule="evenodd" clip-rule="evenodd" d="M24.0045 60.2953V52.7371C24.0045 51.4634 23.3844 50.8435 22.1275 50.8435L18.9435 50.8433V53.9603H20.1669C20.368 53.9603 20.435 54.0275 20.435 54.2287V61.7534C20.435 63.044 21.0383 63.647 22.312 63.647L25.4961 63.6472V60.5468H24.2727C24.0884 60.5635 24.0045 60.4798 24.0045 60.2953Z" fill="#203232"/>
<path fill-rule="evenodd" clip-rule="evenodd" d="M33.2887 50.5417C31.2946 50.5417 30.1382 51.4467 29.5682 52.0501C29.5012 51.5137 29.1492 50.8267 27.775 50.8267H24.7921V53.9438H26.0155C26.2167 53.9438 26.2837 54.0108 26.2837 54.212V68.4739H29.87V62.7422C30.4234 63.2452 31.4957 63.949 33.1381 63.949C36.6071 63.949 39.0373 61.2003 39.0373 57.2454C39.0373 53.24 36.7244 50.542 33.2889 50.542L33.2887 50.5417ZM32.5681 60.8484C30.6576 60.8484 29.7862 59.0217 29.7862 57.3124C29.7862 54.6307 31.2442 53.6757 32.6185 53.6757C34.2943 53.6757 35.4341 55.1169 35.4341 57.2787C35.4341 59.7592 33.9927 60.8484 32.5681 60.8484Z" fill="#203232"/>
<path fill-rule="evenodd" clip-rule="evenodd" d="M45.724 50.5415C41.8861 50.5415 39.2215 53.3067 39.2215 57.2449C39.2215 61.1331 42.1041 63.9485 46.0926 63.9485C49.2265 63.9485 51.1372 62.0883 51.221 62.0214L51.3718 61.8872L49.83 59.323L49.5953 59.5411C49.5784 59.5577 48.1707 60.8483 46.3106 60.8483C44.5342 60.8483 43.227 59.7589 42.9085 58.0493H51.3383L51.355 57.8147C51.355 57.7812 51.4388 57.0271 51.4388 56.6583C51.4388 53.0049 49.1428 50.5413 45.7241 50.5413L45.724 50.5415ZM43.0423 55.4016C43.428 54.1447 44.3999 53.4241 45.724 53.4241C46.7963 53.4241 47.6176 54.2452 47.7684 55.4016H43.0423Z" fill="#203232"/>
<path fill-rule="evenodd" clip-rule="evenodd" d="M64.3765 60.2953V47.9107C64.3765 46.637 63.7565 46.0171 62.4828 46.0171L59.2985 46.0168V49.1341H60.5219C60.7231 49.1341 60.7903 49.2011 60.7903 49.4022V51.6479C60.2707 51.1786 59.2484 50.5585 57.4719 50.5585C54.0197 50.5585 51.6064 53.3237 51.6064 57.2621C51.6064 61.2676 53.919 63.9655 57.3379 63.9655C59.2986 63.9655 60.4381 63.0606 60.9912 62.4238C61.0584 62.9769 61.4271 63.6807 62.7511 63.6807H65.8347V60.5803H64.6448C64.4436 60.5637 64.3766 60.4798 64.3766 60.2953H64.3765ZM58.0246 60.8484C56.3319 60.8484 55.2427 59.4407 55.2427 57.2452C55.2427 55.1169 56.3822 53.6924 58.0749 53.6924C60.0021 53.6924 60.8571 55.4687 60.8571 57.2286C60.8571 59.91 59.399 60.8484 58.0246 60.8484Z" fill="#203232"/>
<path fill-rule="evenodd" clip-rule="evenodd" d="M73.7614 50.6589C72.2867 50.6589 70.9123 51.5135 70.1081 52.871V52.586C70.1081 51.4298 69.4713 50.8264 68.2144 50.8264H65.1644V53.9434H66.3878C66.5889 53.9434 66.6559 54.0104 66.6559 54.2116V63.647H70.2088V58.5185C70.2088 57.8483 70.2926 57.1946 70.4603 56.5914C70.9966 54.815 72.4209 54.1947 73.5607 54.1947C73.9628 54.1947 74.2644 54.245 74.2644 54.245L74.5661 54.2954V50.7592L74.3483 50.7257C74.3483 50.709 74.0464 50.6587 73.7616 50.6587H73.7614V50.6589Z" fill="#203232"/>
<path fill-rule="evenodd" clip-rule="evenodd" d="M79.6272 60.2953V52.7371C79.6272 51.4634 79.0073 50.8435 77.7504 50.8435L74.8676 50.8433V53.9603H75.7893C75.9905 53.9603 76.0575 54.0275 76.0575 54.2287V61.7534C76.0575 63.044 76.6607 63.647 77.9345 63.647L81.1185 63.6472V60.5468H79.8951C79.7108 60.5635 79.627 60.4798 79.627 60.2953H79.6272Z" fill="#203232"/>
<path fill-rule="evenodd" clip-rule="evenodd" d="M93.0512 50.8433H91.1573C90.0513 50.8433 89.448 51.2289 89.0962 52.1673L86.7834 58.6363C86.6996 58.871 86.6326 59.1391 86.5654 59.4073C86.4984 59.1558 86.4146 58.8708 86.3307 58.6363L84.0181 52.1673C83.6662 51.2121 83.0964 50.8433 81.9568 50.8433H79.9458V53.9603H80.4655C80.7505 53.9603 80.8343 54.061 80.9013 54.2287L84.4876 63.6639H88.4931L92.0795 54.2287C92.1467 54.061 92.2303 53.9603 92.5153 53.9603H93.0685V50.8433H93.0518H93.0512Z" fill="#203232"/>
<path fill-rule="evenodd" clip-rule="evenodd" d="M99.1847 50.5415C95.347 50.5415 92.6824 53.3067 92.6824 57.2449C92.6824 61.1331 95.565 63.9485 99.5535 63.9485C102.687 63.9485 104.598 62.0883 104.682 62.0214L104.833 61.8872L103.291 59.323L103.056 59.5411C103.039 59.5577 101.632 60.8483 99.7882 60.8483C98.0118 60.8483 96.7046 59.7589 96.3861 58.0493H104.816L104.833 57.8147C104.833 57.7812 104.9 57.0271 104.9 56.6583C104.9 53.0049 102.604 50.5413 99.1849 50.5413L99.1847 50.5415ZM96.5033 55.4016C96.8889 54.1447 97.8608 53.4241 99.1847 53.4241C100.257 53.4241 101.079 54.2452 101.229 55.4016H96.5033Z" fill="#203232"/>
<path fill-rule="evenodd" clip-rule="evenodd" d="M20.5856 46H23.753V49.3351H20.5856V46Z" fill="#203232"/>
<path fill-rule="evenodd" clip-rule="evenodd" d="M76.2249 46H79.3925V49.3351H76.2249V46Z" fill="#203232"/>
<path fill-rule="evenodd" clip-rule="evenodd" d="M105.302 52.1171H105.654V50.8434H106.123V50.5417H104.833V50.8434H105.302V52.1171Z" fill="#203232"/>
<path fill-rule="evenodd" clip-rule="evenodd" d="M106.793 50.5417H106.307V52.1171H106.626V51.0111H106.643L107.028 52.1171H107.296L107.682 51.0111V52.1171H108V50.5417H107.514L107.162 51.631L106.793 50.5417Z" fill="#203232"/>
</svg>
