<svg width="114" height="114" viewBox="0 0 114 114" fill="none" xmlns="http://www.w3.org/2000/svg">
<rect width="113.713" height="113.713" rx="10" fill="white"/>
<path fill-rule="evenodd" clip-rule="evenodd" d="M40.6359 49.3349C40.6297 46.9955 40.2513 47.156 42.2158 47.1618C42.455 47.9323 42.4613 57.9125 42.2167 58.6383C41.14 58.6341 40.7032 58.9516 40.6361 58.0268L40.6359 49.3349ZM67.3727 50.5181C72.7067 48.8409 74.1112 57.3904 69.6902 58.66C67.0768 59.4106 65.1887 57.8243 64.8132 55.6864C64.4277 53.4934 64.9741 51.2725 67.3727 50.5179V50.5181ZM92.0054 56.9937C92.8163 58.3452 92.523 58.5287 90.9605 58.7383C89.8332 58.8895 88.6387 58.8717 87.6269 58.4183C87.0601 58.1646 86.9379 58.0558 86.5247 57.5952C85.4998 56.4527 85.352 54.7185 85.6804 53.2672C86.7191 48.6797 93.8476 49.5617 92.6815 55.03L87.4014 55.0309C87.639 58.0252 89.7294 57.3183 92.0054 56.9939V56.9937ZM50.7226 58.1482C49.5505 59.3215 46.3062 58.8885 45.1395 57.9628C43.8593 56.9469 43.3316 54.6609 44.1429 52.5755C45.577 48.8889 52.0124 49.7245 50.9281 55.023L45.6374 55.0824C45.828 57.9421 48.0454 57.4312 50.3409 56.9426L50.7226 58.148V58.1482ZM38.4601 51.4251C39.1668 52.3754 39.1946 56.9011 38.905 58.2915C36.7406 59.0065 32.9686 59.3476 32.2938 57.0699C31.4247 54.1355 34.26 53.1817 37.2474 53.5497C37.1992 51.0268 34.6758 51.7012 33.151 52.3803C32.9184 52.0378 32.7351 51.6181 32.7113 51.0736C34.2964 50.0411 37.3779 49.9701 38.4599 51.4251H38.4601ZM25.3625 56.5497C26.0626 56.7361 29.0557 58.399 29.5411 56.7348C29.9401 55.3676 26.8875 55.151 26.1079 54.5663C24.7687 53.5624 25.0709 51.5086 26.336 50.7677C27.6603 49.9921 29.7665 50.2642 30.9916 51.0738C30.975 51.6451 30.8965 51.935 30.5705 52.3808C29.4152 51.9694 26.8927 50.8841 26.995 53.039C28.5542 54.1537 32.3043 54.069 31.1157 57.2798C30.351 59.3447 26.6841 59.229 25.0088 57.8404L25.3627 56.5497H25.3625ZM52.5459 56.5749C53.3199 56.8214 53.8472 57.3061 54.8043 57.404C55.6908 57.4947 56.7546 57.2706 56.5491 56.3301C56.341 55.3772 53.7225 55.2069 52.8777 54.39C51.2852 52.8507 52.6055 48.6804 58.1305 51.0604L57.587 52.3472C56.3799 51.9885 54.8085 51.2027 53.9912 52.3027C53.3448 54.1369 59.2615 53.4478 58.2005 57.0743C57.5337 59.3532 53.7942 59.2147 52.0662 57.8531L52.5461 56.5749H52.5459ZM85.0986 58.4413C81.7922 59.6231 78.7065 58.2909 78.7421 54.5483C78.7832 50.2043 82.8083 49.7323 85.0605 50.7644L84.5195 52.0632C82.1126 51.521 80.4708 51.9029 80.5352 54.7231C80.5979 57.4604 82.4197 57.3794 84.6591 57.048L85.0986 58.4413ZM75.4239 51.1801C76.1608 50.3259 77.1328 50.3819 78.5379 50.5786L78.133 52.0204C73.6371 51.904 76.1614 55.5687 75.2435 58.6372C74.054 58.637 73.6779 58.9723 73.6441 57.8734L73.6607 50.5666L75.2973 50.5219L75.4237 51.1799L75.4239 51.1801ZM61.0187 50.508C61.3186 49.303 61.5864 48.2593 62.325 47.6417C62.8163 47.2309 66.1066 46.1794 65.5673 47.9101C65.485 48.1735 65.3405 48.4258 65.2363 48.5872C63.587 48.3047 62.9242 48.838 62.8455 50.5078L64.6452 50.5113L64.3993 51.9321L62.5214 52.0096C62.1403 54.3411 61.7575 56.8291 61.266 59.0949C60.7546 61.4518 59.1522 63.2487 56.5998 62.0911L56.9859 60.8196L58.7042 60.8066C59.6729 59.4145 59.6679 58.4315 59.9916 56.5946C60.2638 55.0487 60.5912 53.5094 60.7994 51.9462L59.4854 51.9301L59.7031 50.5357L61.0189 50.508H61.0187ZM35.3366 25C24.5809 24.999 16.5877 34.8601 18.2954 45.3486C18.5649 47.0021 19.1591 48.1392 19.4315 49.5403C17.6384 50.171 15.3999 52.6662 14.3239 54.3933C12.6207 57.1269 12.0025 59.5345 12 63.0681C11.9954 71.0064 18.965 77.7694 26.9928 77.7558C27.6905 77.8359 29.3527 77.5435 30.1426 77.4515C31.5753 82.998 38.5187 88.0121 44.8972 88.0121C52.4889 88.0121 58.1126 83.4509 60.1726 78.2127C62.2966 78.8572 63.4135 79.5859 66.1043 79.5817C69.3342 79.5762 71.774 78.7963 74.09 77.3161C77.044 75.4286 77.3364 74.1507 78.7937 72.4063L82.4444 72.7151C92.5587 73.1426 102.008 64.1547 102 53.3335C101.992 42.7162 94.2728 34.8624 85.0442 33.6901C79.9318 33.0406 78.4294 34.1735 74.7959 35.1143C73.8255 34.2058 71.325 28.4661 63.4105 27.1803C54.7925 25.78 50.337 31.3279 49.3411 31.79C46.7813 28.2039 41.9317 25.0004 35.3366 25.0002V25Z" fill="#00A0E0"/>
<path fill-rule="evenodd" clip-rule="evenodd" d="M61.0187 50.5078L59.7029 50.5355L59.4852 51.9298L60.7992 51.946C60.5908 53.5091 60.2633 55.0484 59.9914 56.5944C59.6677 58.4313 59.6727 59.4145 58.704 60.8064L56.9857 60.8194L56.5996 62.0909C59.1519 63.2485 60.7546 61.4517 61.2658 59.0947C61.7573 56.8288 62.1401 54.3409 62.5212 52.0094L64.3991 51.9319L64.645 50.5111L62.8453 50.5076C62.924 48.8375 63.5868 48.3044 65.2361 48.5869C65.3403 48.4254 65.4848 48.1731 65.567 47.9099C66.1064 46.1792 62.8159 47.2309 62.3248 47.6414C61.5862 48.2589 61.3184 49.3027 61.0185 50.5078H61.0187Z" fill="#FEFEFE"/>
<path fill-rule="evenodd" clip-rule="evenodd" d="M37.247 54.8985L37.2221 57.2547C35.8469 57.4768 33.9095 57.7042 33.9345 56.1185C33.9598 54.5354 36.0024 54.7722 37.247 54.8985ZM32.7113 51.073C32.7351 51.6176 32.9184 52.0372 33.151 52.3798C34.6758 51.7006 37.1991 51.0262 37.2474 53.5491C34.2599 53.1811 31.4246 54.1351 32.2937 57.0693C32.9683 59.347 36.7404 59.0059 38.905 58.2909C39.1947 56.9005 39.167 52.3748 38.4601 51.4245C37.3781 49.9695 34.2964 50.0405 32.7115 51.073H32.7113Z" fill="#FEFEFE"/>
<path fill-rule="evenodd" clip-rule="evenodd" d="M45.6807 53.7243C46.0631 51.0949 48.9692 51.028 49.3068 53.7231L45.6807 53.7243ZM50.7226 58.148L50.3409 56.9425C48.0454 57.4311 45.828 57.9419 45.6375 55.0824L50.9281 55.023C52.0124 49.7244 45.5768 48.8889 44.1429 52.5754C43.3316 54.6607 43.8593 56.9467 45.1395 57.9628C46.3062 58.8884 49.5506 59.3215 50.7226 58.1482V58.148Z" fill="#FEFEFE"/>
<path fill-rule="evenodd" clip-rule="evenodd" d="M91.0586 53.6341L87.4325 53.7329C87.6231 52.6074 87.9986 51.8179 89.2289 51.7792C90.4735 51.7398 90.9192 52.524 91.0586 53.6341ZM92.0053 56.9934C89.7293 57.3177 87.6388 58.0244 87.4013 55.0303L92.6814 55.0295C93.8474 49.5613 86.719 48.6792 85.6803 53.2667C85.3518 54.7182 85.4997 56.4522 86.5245 57.5947C86.9377 58.0555 87.0601 58.1642 87.6268 58.4178C88.6386 58.8711 89.8331 58.889 90.9604 58.7378C92.5229 58.5281 92.8162 58.3446 92.0053 56.9932V56.9934Z" fill="#FEFEFE"/>
<path fill-rule="evenodd" clip-rule="evenodd" d="M67.9187 51.9212C70.9188 50.8144 71.2096 56.4689 69.3084 57.2365C67.7194 57.8775 66.8097 56.796 66.6051 55.4174C66.3593 53.7606 66.6527 52.3887 67.9187 51.9214V51.9212ZM67.3727 50.518C64.974 51.2723 64.4277 53.4934 64.8131 55.6864C65.1886 57.8241 67.0767 59.4106 69.6902 58.66C74.1111 57.3904 72.7064 48.8409 67.3727 50.5182V50.518Z" fill="#FEFEFE"/>
<path fill-rule="evenodd" clip-rule="evenodd" d="M25.3624 56.5491L25.0085 57.8399C26.6838 59.2286 30.3507 59.3444 31.1154 57.2792C32.304 54.0684 28.5539 54.1531 26.9947 53.0384C26.8924 50.8836 29.4149 51.9689 30.5702 52.3802C30.8962 51.9345 30.9747 51.6445 30.9913 51.0733C29.7662 50.2639 27.66 49.9915 26.3357 50.7672C25.0706 51.5078 24.7684 53.5618 26.1076 54.5657C26.8872 55.1506 29.9398 55.3671 29.5408 56.7343C29.0554 58.3987 26.0625 56.7355 25.3622 56.5491H25.3624Z" fill="#FEFEFE"/>
<path fill-rule="evenodd" clip-rule="evenodd" d="M52.5461 56.5746L52.0662 57.8527C53.7942 59.2143 57.5335 59.3529 58.2004 57.0739C59.2615 53.4475 53.3447 54.1366 53.9911 52.3023C54.8084 51.2023 56.3798 51.9881 57.5869 52.3469L58.1304 51.06C52.6057 48.68 51.2853 52.8506 52.8776 54.3897C53.7225 55.2066 56.3409 55.3768 56.549 56.3298C56.7547 57.2703 55.691 57.4944 54.8043 57.4037C53.8472 57.3057 53.3199 56.8208 52.5459 56.5746H52.5461Z" fill="#FEFEFE"/>
<path fill-rule="evenodd" clip-rule="evenodd" d="M85.0985 58.4406L84.659 57.0473C82.4198 57.3787 80.5978 57.4597 80.535 54.7224C80.4706 51.9023 82.1124 51.5205 84.5194 52.0626L85.0604 50.7637C82.8082 49.7317 78.783 50.2035 78.742 54.5476C78.7064 58.2902 81.7918 59.6224 85.0985 58.4406Z" fill="#FEFEFE"/>
<path fill-rule="evenodd" clip-rule="evenodd" d="M40.6362 58.0258C40.7033 58.9506 41.1401 58.6331 42.2167 58.6373C42.4613 57.9115 42.4551 47.9313 42.2159 47.1608C40.2516 47.155 40.6298 46.9945 40.636 49.3339L40.6362 58.0258Z" fill="#FEFEFE"/>
<path fill-rule="evenodd" clip-rule="evenodd" d="M75.424 51.1796L75.2976 50.5216L73.661 50.5663L73.6444 57.8731C73.6782 58.972 74.0543 58.6367 75.2438 58.6369C76.1615 55.5685 73.6371 51.9037 78.1333 52.0201L78.5382 50.5783C77.1329 50.3814 76.1611 50.3254 75.4242 51.1798L75.424 51.1796Z" fill="#FEFEFE"/>
<path fill-rule="evenodd" clip-rule="evenodd" d="M67.9186 51.9211C66.6527 52.3884 66.3592 53.7603 66.605 55.4171C66.8097 56.7959 67.7193 57.8774 69.3083 57.2362C71.2095 56.4688 70.9187 50.8141 67.9186 51.9209V51.9211Z" fill="#00A1E0"/>
<path fill-rule="evenodd" clip-rule="evenodd" d="M37.2472 54.8986C36.0026 54.7723 33.96 54.5355 33.9347 56.1185C33.9096 57.7042 35.847 57.4768 37.2223 57.2548L37.2472 54.8986Z" fill="#00A1E0"/>
<path fill-rule="evenodd" clip-rule="evenodd" d="M45.681 53.7244L49.307 53.7232C48.9694 51.0281 46.0633 51.095 45.681 53.7244Z" fill="#00A1E0"/>
<path fill-rule="evenodd" clip-rule="evenodd" d="M91.0586 53.6337C90.919 52.5236 90.4733 51.7394 89.229 51.7788C87.9987 51.8175 87.6232 52.607 87.4326 53.7325L91.0586 53.6337Z" fill="#00A1E0"/>
</svg>
