<svg width="114" height="114" viewBox="0 0 114 114" fill="none" xmlns="http://www.w3.org/2000/svg">
<rect width="113.713" height="113.713" rx="10" fill="white"/>
<path fill-rule="evenodd" clip-rule="evenodd" d="M33.4022 56.2225H31.6507V54.0953C33.2478 54.0953 34.7784 53.7996 34.7784 55.3466C34.7784 55.8794 34.0042 56.2225 33.402 56.2225H33.4022ZM28.6476 52.0934V60.9769C28.6476 61.6212 29.8833 61.3523 31.6507 61.3523V58.5998H33.4022C33.5152 59.0847 34.587 60.8792 34.9039 61.3523H37.7815L35.9048 57.9743C38.6528 57.3341 38.5129 51.718 34.153 51.718H29.023C28.7349 51.718 28.6476 51.8053 28.6476 52.0936V52.0934Z" fill="black"/>
<path fill-rule="evenodd" clip-rule="evenodd" d="M43.0366 58.8502H42.0356V54.2206H43.412C44.6314 54.2206 45.5389 55.2748 45.5389 56.4729C45.5389 57.9739 44.5587 58.8502 43.0366 58.8502ZM39.1578 61.3523C41.69 61.3523 45.068 61.7052 46.8219 60.1329C48.3847 58.7313 48.542 57.9704 48.542 55.9722C48.542 53.7828 46.1207 51.718 43.412 51.718H39.158V61.3523H39.1578Z" fill="black"/>
<path fill-rule="evenodd" clip-rule="evenodd" d="M24.1433 48.6969C22.9808 49.1078 14.9333 52.1986 14.5228 52.1787C14.1624 52.1612 10.4529 50.7035 9.77186 50.4507C8.23121 49.8792 6.57372 49.1964 5 48.6963V51.9682L14.5296 55.3971C14.8524 55.4146 18.5077 53.9501 19.248 53.7043C19.9352 53.4764 23.5556 52.017 24.1433 51.968V48.6965V48.6969Z" fill="black"/>
<path fill-rule="evenodd" clip-rule="evenodd" d="M5 64.3743C6.57372 63.8741 8.23121 63.1914 9.77186 62.6197C10.4718 62.3599 14.1386 60.9137 14.5279 60.8926C14.9643 60.8689 22.9606 63.9552 24.1433 64.3735V61.1018C23.5743 61.0546 20.0342 59.6296 19.3427 59.3963C12.6525 57.1405 16.5249 57.1648 9.89488 59.3657L6.3281 60.6784C5.81243 60.8579 5.56763 61.0546 5 61.1018V64.3741V64.3743Z" fill="black"/>
<path fill-rule="evenodd" clip-rule="evenodd" d="M5 64.3743C5.69331 64.9002 6.8298 65.3319 7.66318 65.6958C8.66146 66.1318 8.27269 66.2474 9.5513 65.779C10.414 65.4627 11.2141 65.1629 12.0212 64.8702C15.0857 63.7596 13.9353 63.6826 17.0295 64.8376C17.8904 65.159 18.6568 65.4362 19.4992 65.7461C19.8362 65.8702 20.3217 66.1371 20.7055 66.0581C21.2344 65.949 23.8246 64.6166 24.1433 64.3737C22.9606 63.9553 14.9643 60.8691 14.5279 60.8927C14.1386 60.9139 10.4718 62.3601 9.77186 62.6199C8.23121 63.1916 6.57372 63.8742 5 64.3745V64.3743Z" fill="#18C0CD"/>
<path fill-rule="evenodd" clip-rule="evenodd" d="M5 48.6964C6.57372 49.1965 8.23121 49.8793 9.77186 50.4509C10.4529 50.7037 14.1624 52.1613 14.5228 52.1788C14.9333 52.1987 22.9808 49.108 24.1433 48.697C23.5993 48.2824 22.6614 47.9146 22.0168 47.5889C20.1315 46.637 20.5074 46.9824 17.1207 48.199C13.741 49.4135 15.5124 49.4848 9.64391 47.3244C8.19752 46.7919 8.63412 46.9477 7.21586 47.5534C6.62359 47.8064 5.43722 48.3648 5 48.6966V48.6964Z" fill="#18C0CD"/>
<path fill-rule="evenodd" clip-rule="evenodd" d="M101.342 60.9772H103.094V55.472C103.094 54.8433 102.981 54.9117 102.969 54.3459C103.359 54.6314 106.212 59.4731 106.697 60.2525C107.264 61.1641 106.666 60.9772 109.475 60.9772V51.9686H107.723V57.0987C107.723 57.8598 107.849 58.0113 107.849 58.7252L104.166 52.7731C103.571 51.7567 104.065 51.9688 101.342 51.9688V60.9774V60.9772Z" fill="black"/>
<path fill-rule="evenodd" clip-rule="evenodd" d="M91.5833 56.5979C91.5833 52.1857 97.8392 52.7933 97.8392 56.0973C97.8392 58.1355 96.9804 59.6006 94.7115 59.6006C92.9513 59.6006 91.5835 58.3651 91.5835 56.5979H91.5833ZM89.7065 56.2225C89.7065 58.4854 90.6935 60.1374 92.6514 60.9102C96.1554 62.2934 99.7162 59.9518 99.7162 56.8481C99.7162 55.6354 99.7682 55.4528 99.1776 54.2584C97.0833 50.0221 89.7065 51.3771 89.7065 56.2223V56.2225Z" fill="black"/>
<path fill-rule="evenodd" clip-rule="evenodd" d="M52.1701 54.3455C52.1701 55.704 53 56.3741 54.0289 56.7411C55.2243 57.167 56.6042 57.2697 57.3474 57.6764C58.4069 58.2561 58.2502 59.3844 56.4457 59.6306C55.1884 59.8021 53.9458 59.4012 53.6716 58.2243H51.7947C51.813 59.0418 52.3759 59.7579 52.8228 60.1989C54.5549 61.9083 58.2516 61.4343 59.3263 60.0001C60.4293 58.5278 59.7943 56.8787 58.3484 56.1749C56.7572 55.4007 54.0472 55.5329 54.0472 54.3453C54.0472 53.0466 57.4994 52.8735 57.9259 54.4706H59.8028C58.8546 50.4019 52.1701 51.2114 52.1701 54.3453V54.3455Z" fill="black"/>
<path fill-rule="evenodd" clip-rule="evenodd" d="M71.9392 53.7201H73.5657C73.615 54.3119 73.8411 54.8182 73.9919 55.4213C74.1512 56.0582 74.3022 56.4991 74.442 57.0985H71.0638C71.1441 56.1302 71.709 54.7089 71.9394 53.7203L71.9392 53.7201ZM68.1855 60.9771H69.9373C69.9987 60.2404 70.4205 59.6295 70.438 58.8503H74.9421C75.0924 59.4943 75.4276 60.2981 75.4428 60.9771H77.3194L76.6793 58.7396C76.4696 58.0212 76.239 57.2731 76.0422 56.4991L74.8174 51.9685H70.6884C70.3485 53.4272 68.2032 60.2018 68.1857 60.9771H68.1855Z" fill="black"/>
<path fill-rule="evenodd" clip-rule="evenodd" d="M60.1782 52.3439C60.1782 54.107 59.6523 53.7203 63.4314 53.7203V60.9773H65.308V53.7203H68.4359V51.9685H60.5534C60.2653 51.9685 60.178 52.0558 60.178 52.3439H60.1782Z" fill="black"/>
<path fill-rule="evenodd" clip-rule="evenodd" d="M76.9441 52.3439C76.9441 54.107 76.4181 53.7203 80.1973 53.7203V60.9773H82.0741V53.7203H85.2018V51.9685H77.3193C77.0311 51.9685 76.9439 52.0558 76.9439 52.3439H76.9441Z" fill="black"/>
<path fill-rule="evenodd" clip-rule="evenodd" d="M86.3278 60.9773H88.0795V51.9685H86.3278V60.9773Z" fill="black"/>
</svg>
