<svg width="189" height="45" viewBox="0 0 189 45" fill="none" xmlns="http://www.w3.org/2000/svg">
<path d="M0.267706 27.4659C-0.34193 26.8117 0.0935246 25.9354 1.53448 23.8814C1.88285 23.4452 2.23121 23.358 2.67062 23.5325C7.34186 25.9393 9.96251 25.9393 12.1002 25.9393C16.336 25.9393 18.1688 23.7109 15.9837 20.9115C14.8911 19.4682 11.3995 18.8139 9.915 18.3302C5.33086 16.9741 2.66667 15.1343 1.79576 12.1168C-0.0371119 6.4744 3.71571 1.40298 11.1382 0.617879C13.6678 0.399796 16.5497 0.879579 18.8616 1.84311C21.1299 2.98111 22.1354 3.98429 21.8742 4.72974C21.5258 5.55845 20.4768 6.8273 19.8671 7.65998C19.3446 8.31423 17.6859 6.9185 15.6749 6.47837C13.9726 6.12944 12.0527 5.64569 9.56268 6.52199C6.94204 7.79083 6.41949 10.0629 8.42654 11.5934C10.5207 13.0803 13.1849 14.0003 14.8 14.5673C16.4152 15.1779 18.9923 16.0542 20.2986 17.672C21.4783 18.81 22.3492 21.1256 22.3492 22.9615C22.3492 27.8148 18.2441 30.8759 12.3971 30.9632C7.64272 31.0504 2.10057 29.1273 0.267706 27.4659Z" fill="white"/>
<path d="M29.165 30.309V1.31977C29.165 0.883601 29.5134 0.534668 29.9489 0.534668H40.1187C45.4867 0.534668 49.766 4.86461 49.766 10.1977C49.766 15.5745 45.4867 19.8608 40.1187 19.8608H35.7562C35.1031 19.8608 34.6636 20.0353 34.6636 20.7371V30.3129C34.6636 30.7491 34.3153 31.102 33.8759 31.102H29.9489C29.5134 31.0941 29.165 30.7451 29.165 30.309ZM40.1187 14.262C42.3435 14.262 44.1803 12.4698 44.1803 10.1938C44.1803 7.96535 42.3474 6.16914 40.1187 6.16914H35.7127C34.9724 6.16914 34.6636 6.47446 34.6636 7.04544V14.262H40.1187Z" fill="white"/>
<path d="M56.0977 30.1775V1.36274C56.0977 0.92657 56.446 0.577637 56.8815 0.577637H76.4373C76.8728 0.577637 77.2251 0.92657 77.2251 1.36274V5.03446C77.2251 5.47063 76.8767 5.81956 76.4373 5.81956H62.3365C61.9011 5.81956 61.5488 6.1685 61.5488 6.60466V13.0322C61.5488 13.5992 61.5052 13.8648 62.5543 13.8648H73.4683C73.8602 13.8648 74.2126 14.1702 74.2126 14.5627V18.2781C74.2126 18.6706 73.8642 18.9799 73.4683 18.9799H62.5107C61.5963 18.9799 61.5488 19.765 61.5488 19.9831V24.6183C61.5488 25.0545 61.6358 25.6691 62.772 25.6691H76.7422C77.1776 25.6691 77.526 26.0616 77.526 26.5018V30.1735C77.526 30.6097 77.1776 30.9586 76.7422 30.9586H56.8854C56.446 30.9626 56.0977 30.6136 56.0977 30.1775Z" fill="white"/>
<path d="M84.3377 30.1775V1.36274C84.3377 0.92657 84.6861 0.577637 85.1215 0.577637H104.677C105.113 0.577637 105.461 0.92657 105.461 1.36274V5.03446C105.461 5.47063 105.113 5.81956 104.677 5.81956H90.5766C90.1411 5.81956 89.7888 6.1685 89.7888 6.60466V13.0322C89.7888 13.5992 89.7453 13.8648 90.7943 13.8648H101.708C102.1 13.8648 102.449 14.1702 102.449 14.5627V18.2781C102.449 18.6706 102.1 18.9799 101.708 18.9799H90.7508C89.8363 18.9799 89.7888 19.765 89.7888 19.9831V24.6183C89.7888 25.0545 89.8759 25.6691 91.012 25.6691H104.982C105.418 25.6691 105.766 26.0616 105.766 26.5018V30.1735C105.766 30.6097 105.418 30.9586 104.982 30.9586H85.1176C84.69 30.9626 84.3377 30.6136 84.3377 30.1775Z" fill="white"/>
<path d="M118.081 30.0877V26.2851C118.081 25.7181 118.517 25.3255 119.043 25.3255H122.578C127.859 25.3255 132.138 21.0392 132.138 15.7497C132.138 10.4602 127.859 6.17387 122.578 6.17387H119.043C118.738 6.17387 118.52 6.39196 118.52 6.69727V17.2009C118.52 17.7243 118.085 18.1169 117.559 18.1169H113.762C113.283 18.1169 112.844 17.6807 112.844 17.2009V1.44742C112.844 0.924018 113.279 0.483887 113.762 0.483887H122.582C131.006 0.483887 137.815 7.30394 137.815 15.7457C137.815 24.1836 131.006 31.0076 122.582 31.0076H119.047C118.517 31.0036 118.081 30.6111 118.081 30.0877Z" fill="white"/>
<path d="M144.669 30.3084V1.27555C144.669 0.839386 145.061 0.442871 145.5 0.442871H150.041C150.476 0.442871 150.829 0.835421 150.829 1.27555V30.3084C150.829 30.7445 150.48 31.0974 150.041 31.0974H145.5C145.061 31.0935 144.669 30.7445 144.669 30.3084Z" fill="white"/>
<path d="M161.427 5.64522C164.353 2.10434 168.367 0.224864 172.515 0.00281592C173.038 -0.0408007 173.434 0.351749 173.477 0.92273V4.72531C173.477 5.29232 173.172 5.59764 172.559 5.64522C169.938 5.8633 167.452 7.17577 165.793 9.27333C162.215 13.5597 162.781 19.9435 166.973 23.4844C171.253 27.0689 177.539 26.5455 181.03 22.2592C183.651 19.1109 184.13 14.7373 182.297 11.1092C181.905 10.2765 181.992 9.7095 182.602 9.22971C183.081 8.96801 184.653 7.83002 185.223 7.43747C185.832 7.04492 186.577 7.263 186.925 7.87363C190.155 13.6033 189.589 20.8159 185.397 25.8873C180.16 32.5765 169.681 33.4964 163.438 27.8976C156.843 22.3068 155.968 12.2908 161.427 5.64522Z" fill="white"/>
<path d="M180.44 42.4401C180.44 42.4401 179.565 42.7455 178.999 42.9199C178.476 43.0944 176.161 43.7962 174.154 43.9707C172.234 44.1452 169.352 44.3196 169.352 44.3196C167.998 44.4069 165.817 44.4505 164.506 44.3632C164.506 44.3632 162.103 44.2324 159.704 43.9707C157.305 43.6654 154.772 42.8763 154.772 42.8763L153.462 42.4401C152.895 42.2657 152.456 41.655 152.456 41.0841V38.8993C152.456 38.3322 152.935 37.9794 153.462 38.1142L154.772 38.4631C159.617 39.6883 161.102 40.1245 164.506 40.2117C165.817 40.2117 167.998 40.1681 169.352 40.1245C169.352 40.1245 171.885 39.95 174.154 39.6883C176.422 39.4266 179.086 38.5939 179.086 38.5939L180.44 38.1578C180.962 38.0269 181.402 38.3322 181.402 38.9032V41.088C181.398 41.655 180.962 42.2657 180.44 42.4401Z" fill="white"/>
<path d="M180.188 15.8466C180.188 19.6016 177.147 22.6468 173.399 22.6468C169.65 22.6468 166.609 19.6016 166.609 15.8466C166.609 12.0916 169.65 9.04639 173.399 9.04639C177.147 9.04639 180.188 12.0916 180.188 15.8466Z" fill="#6AABDD"/>
</svg>
