<svg width="131" height="131" viewBox="0 0 131 131" fill="none" xmlns="http://www.w3.org/2000/svg">
<rect x="0.625" y="0.812012" width="130.043" height="130.043" rx="8" fill="#18C0CD"/>
<path fill-rule="evenodd" clip-rule="evenodd" d="M106.186 25.4421C101.262 27.5536 67.1782 43.4354 65.4395 43.333C63.913 43.2433 48.202 35.7531 45.3178 34.4541C38.7926 31.5173 31.7726 28.0085 25.1074 25.439V42.2514L65.4682 59.8712C66.8355 59.9609 82.3168 52.4358 85.4524 51.1726C88.3627 50.0013 103.696 42.5026 106.186 42.2504V25.44V25.4421Z" fill="black"/>
<path fill-rule="evenodd" clip-rule="evenodd" d="M25.1074 106.187C31.7726 103.616 38.7926 100.109 45.3178 97.1709C48.282 95.8359 63.8121 88.4048 65.4612 88.2961C67.3095 88.1748 101.176 104.033 106.186 106.183V89.3714C103.775 89.1287 88.7819 81.8062 85.8533 80.6074C57.5182 69.0164 73.9191 69.1409 45.8388 80.4502L30.7323 87.1955C28.5483 88.1178 27.5115 89.1287 25.1074 89.3714V106.186V106.187Z" fill="black"/>
<path fill-rule="evenodd" clip-rule="evenodd" d="M25.1074 106.066C28.0438 108.768 32.8572 110.986 36.3868 112.856C40.6149 115.097 38.9683 115.691 44.3836 113.284C48.0376 111.659 51.4263 110.118 54.8445 108.614C67.8235 102.907 62.9511 102.512 76.0562 108.446C79.7023 110.098 82.9483 111.522 86.5162 113.115C87.9435 113.752 89.9997 115.124 91.6254 114.718C93.8651 114.157 104.836 107.311 106.186 106.062C101.176 103.913 67.3095 88.0544 65.4612 88.1757C63.8121 88.2844 48.282 95.7157 45.3178 97.0506C38.7926 99.9884 31.7726 103.496 25.1074 106.067V106.066Z" fill="white"/>
<path fill-rule="evenodd" clip-rule="evenodd" d="M25.1074 25.5505C31.7726 28.1201 38.7926 31.6288 45.3178 34.5656C48.202 35.8647 63.913 43.3549 65.4395 43.4446C67.1782 43.547 101.262 27.6652 106.186 25.5536C103.881 23.423 99.9092 21.5331 97.179 19.8594C89.1943 14.9683 90.786 16.7432 76.4423 22.9946C62.1282 29.2355 69.631 29.6016 44.7759 18.5002C38.6499 15.7639 40.4991 16.5649 34.4923 19.6769C31.9838 20.977 26.9592 23.8463 25.1074 25.5516V25.5505Z" fill="white"/>
</svg>
