<svg width="152" height="36" viewBox="0 0 152 36" fill="none" xmlns="http://www.w3.org/2000/svg">
<path d="M0.215298 22.0901C-0.274991 21.5639 0.0752153 20.8592 1.23408 19.2073C1.51424 18.8565 1.79441 18.7864 2.1478 18.9267C5.90455 20.8624 8.01215 20.8624 9.73134 20.8624C13.1379 20.8624 14.6119 19.0702 12.8545 16.8188C11.9758 15.6581 9.16783 15.1319 7.97395 14.7429C4.28724 13.6523 2.14461 12.1726 1.4442 9.74587C-0.0298465 5.20808 2.98829 1.12949 8.95771 0.498087C10.9921 0.322698 13.3098 0.708554 15.1691 1.48345C16.9933 2.39867 17.802 3.20546 17.5919 3.80497C17.3117 4.47145 16.468 5.49189 15.9777 6.16156C15.5575 6.68773 14.2235 5.56524 12.6062 5.21127C11.2372 4.93065 9.69314 4.5416 7.6906 5.24635C5.583 6.26679 5.16275 8.09403 6.77688 9.32494C8.46105 10.5208 10.6037 11.2606 11.9026 11.7166C13.2016 12.2077 15.2741 12.9124 16.3248 14.2135C17.2735 15.1287 17.9739 16.991 17.9739 18.4675C17.9739 22.3707 14.6724 24.8325 9.97012 24.9027C6.14651 24.9728 1.68935 23.4262 0.215298 22.0901Z" fill="white"/>
<path d="M23.4568 24.3779V1.0639C23.4568 0.713117 23.737 0.432495 24.0872 0.432495H32.2661C36.5832 0.432495 40.0248 3.91476 40.0248 8.20382C40.0248 12.528 36.5832 15.9751 32.2661 15.9751H28.7577C28.2324 15.9751 27.879 16.1155 27.879 16.6799V24.3811C27.879 24.7318 27.5988 25.0157 27.2454 25.0157H24.0872C23.737 25.0093 23.4568 24.7287 23.4568 24.3779ZM32.2661 11.4724C34.0553 11.4724 35.5326 10.0311 35.5326 8.20063C35.5326 6.40848 34.0585 4.96391 32.2661 4.96391H28.7227C28.1273 4.96391 27.879 5.20945 27.879 5.66865V11.4724H32.2661Z" fill="white"/>
<path d="M45.1178 24.2706V1.09689C45.1178 0.746107 45.3979 0.465485 45.7481 0.465485H61.4756C61.8258 0.465485 62.1091 0.746107 62.1091 1.09689V4.0498C62.1091 4.40058 61.8289 4.6812 61.4756 4.6812H50.1353C49.7851 4.6812 49.5017 4.96182 49.5017 5.3126V10.4818C49.5017 10.9378 49.4667 11.1515 50.3104 11.1515H59.0878C59.403 11.1515 59.6863 11.397 59.6863 11.7127V14.7007C59.6863 15.0164 59.4062 15.2651 59.0878 15.2651H50.2753C49.5399 15.2651 49.5017 15.8965 49.5017 16.0719V19.7997C49.5017 20.1505 49.5717 20.6448 50.4855 20.6448H61.7207C62.0709 20.6448 62.3511 20.9605 62.3511 21.3145V24.2674C62.3511 24.6181 62.0709 24.8988 61.7207 24.8988H45.7513C45.3979 24.902 45.1178 24.6213 45.1178 24.2706Z" fill="white"/>
<path d="M67.8287 24.2706V1.09689C67.8287 0.746107 68.1089 0.465485 68.4591 0.465485H84.1865C84.5367 0.465485 84.8169 0.746107 84.8169 1.09689V4.0498C84.8169 4.40058 84.5367 4.6812 84.1865 4.6812H72.8462C72.496 4.6812 72.2127 4.96182 72.2127 5.3126V10.4818C72.2127 10.9378 72.1776 11.1515 73.0213 11.1515H81.7987C82.1139 11.1515 82.3941 11.397 82.3941 11.7127V14.7007C82.3941 15.0164 82.1139 15.2651 81.7987 15.2651H72.9863C72.2509 15.2651 72.2127 15.8965 72.2127 16.0719V19.7997C72.2127 20.1505 72.2827 20.6448 73.1964 20.6448H84.4317C84.7819 20.6448 85.062 20.9605 85.062 21.3145V24.2674C85.062 24.6181 84.7819 24.8988 84.4317 24.8988H68.4559C68.1121 24.902 67.8287 24.6213 67.8287 24.2706Z" fill="white"/>
<path d="M94.968 24.2004V21.1423C94.968 20.6863 95.3182 20.3706 95.7416 20.3706H98.5847C102.832 20.3706 106.273 16.9234 106.273 12.6694C106.273 8.41543 102.832 4.96824 98.5847 4.96824H95.7416C95.4965 4.96824 95.3214 5.14363 95.3214 5.38917V13.8365C95.3214 14.2575 94.9712 14.5732 94.5478 14.5732H91.4946C91.1094 14.5732 90.756 14.2224 90.756 13.8365V1.16708C90.756 0.746148 91.1062 0.392181 91.4946 0.392181H98.5879C105.363 0.392181 110.839 5.87707 110.839 12.6662C110.839 19.4522 105.363 24.9403 98.5879 24.9403H95.7448C95.3182 24.9371 94.968 24.6214 94.968 24.2004Z" fill="white"/>
<path d="M116.344 24.3743V1.0252C116.344 0.674419 116.659 0.35553 117.013 0.35553H120.664C121.015 0.35553 121.298 0.67123 121.298 1.0252V24.3743C121.298 24.725 121.018 25.0088 120.664 25.0088H117.013C116.659 25.0057 116.344 24.725 116.344 24.3743Z" fill="white"/>
<path d="M129.826 4.54045C132.179 1.69277 135.407 0.181235 138.744 0.00265734C139.164 -0.0324205 139.482 0.28328 139.517 0.74248V3.80063C139.517 4.25664 139.272 4.50218 138.779 4.54045C136.671 4.71584 134.672 5.77136 133.338 7.45828C130.46 10.9055 130.915 16.0396 134.286 18.8873C137.728 21.77 142.784 21.3491 145.592 17.9019C147.699 15.3699 148.084 11.8526 146.61 8.93474C146.295 8.26507 146.365 7.80906 146.856 7.42321C147.241 7.21274 148.505 6.29753 148.963 5.98183C149.453 5.66613 150.052 5.84152 150.332 6.33261C152.93 10.9406 152.475 16.7411 149.103 20.8197C144.891 26.1994 136.464 26.9392 131.443 22.4365C126.139 17.9402 125.436 9.88503 129.826 4.54045Z" fill="white"/>
<path d="M145.114 34.1323C145.114 34.1323 144.41 34.3778 143.955 34.5181C143.535 34.6584 141.672 35.2229 140.058 35.3632C138.514 35.5035 136.196 35.6438 136.196 35.6438C135.107 35.714 133.353 35.749 132.299 35.6789C132.299 35.6789 130.367 35.5736 128.438 35.3632C126.508 35.1176 124.471 34.483 124.471 34.483L123.417 34.1323C122.962 33.992 122.608 33.5009 122.608 33.0417V31.2846C122.608 30.8286 122.993 30.5448 123.417 30.6532L124.471 30.9338C128.368 31.9192 129.561 32.27 132.299 32.3401C133.353 32.3401 135.107 32.305 136.196 32.27C136.196 32.27 138.234 32.1296 140.058 31.9192C141.882 31.7087 144.025 31.039 144.025 31.039L145.114 30.6883C145.534 30.583 145.887 30.8286 145.887 31.2878V33.0449C145.884 33.5009 145.534 33.992 145.114 34.1323Z" fill="white"/>
<path d="M144.917 12.7442C144.917 15.7641 142.472 18.2132 139.457 18.2132C136.442 18.2132 133.997 15.7641 133.997 12.7442C133.997 9.72437 136.442 7.2753 139.457 7.2753C142.472 7.2753 144.917 9.72437 144.917 12.7442Z" fill="#6AABDD"/>
</svg>
