<svg width="36" height="36" viewBox="0 0 36 36" fill="none" xmlns="http://www.w3.org/2000/svg">
<circle cx="18" cy="17.9995" r="18" fill="#D9D9D9" fill-opacity="0.15"/>
<path d="M14.8421 9.99951C12.1753 9.99951 10 12.1748 10 14.8416V21.1574C10 23.8238 12.1752 25.9995 14.8421 25.9995H21.1579C23.8244 25.9995 26 23.8239 26 21.1574V14.8416C26 12.1748 23.8243 9.99951 21.1579 9.99951H14.8421ZM14.8421 11.2627H21.1579C23.1416 11.2627 24.7368 12.8575 24.7368 14.8416V21.1574C24.7368 23.141 23.1415 24.7364 21.1579 24.7364H14.8421C12.858 24.7364 11.2632 23.1411 11.2632 21.1574V14.8416C11.2632 12.8575 12.8579 11.2627 14.8421 11.2627ZM22.2105 12.9469C21.7453 12.9469 21.3684 13.3237 21.3684 13.789C21.3684 14.2542 21.7453 14.6311 22.2105 14.6311C22.6758 14.6311 23.0526 14.2542 23.0526 13.789C23.0526 13.3237 22.6758 12.9469 22.2105 12.9469ZM18 13.789C15.6822 13.789 13.7895 15.6817 13.7895 17.9995C13.7895 20.3173 15.6822 22.21 18 22.21C20.3178 22.21 22.2105 20.3173 22.2105 17.9995C22.2105 15.6817 20.3178 13.789 18 13.789ZM18 15.0521C19.635 15.0521 20.9474 16.3645 20.9474 17.9995C20.9474 19.6345 19.635 20.9469 18 20.9469C16.365 20.9469 15.0526 19.6345 15.0526 17.9995C15.0526 16.3645 16.365 15.0521 18 15.0521Z" fill="#AFB3B9"/>
</svg>
