<svg width="20" height="20" viewBox="0 0 20 20" fill="none" xmlns="http://www.w3.org/2000/svg">
<path d="M18 0H2C0.89543 0 0 0.89543 0 2C0 3.10457 0.89543 4 2 4H18C19.1046 4 20 3.10457 20 2C20 0.89543 19.1046 0 18 0Z" fill="#1296FC"/>
<path d="M18 8H6C4.89543 8 4 8.89543 4 10C4 11.1046 4.89543 12 6 12H18C19.1046 12 20 11.1046 20 10C20 8.89543 19.1046 8 18 8Z" fill="#1296FC"/>
<path d="M18 16H10C8.89543 16 8 16.8954 8 18C8 19.1046 8.89543 20 10 20H18C19.1046 20 20 19.1046 20 18C20 16.8954 19.1046 16 18 16Z" fill="#1296FC"/>
</svg>
