<svg width="115" height="114" viewBox="0 0 115 114" fill="none" xmlns="http://www.w3.org/2000/svg">
<rect x="0.643555" width="113.713" height="113.713" rx="10" fill="white"/>
<path fill-rule="evenodd" clip-rule="evenodd" d="M14.6904 63.2608H13.105V58.5043C14.973 58.5043 17.0244 58.2276 17.9266 59.6946C18.4057 60.4735 18.3026 62.1599 17.1995 62.7969C16.5888 63.1497 15.6527 63.261 14.6906 63.261L14.6904 63.2608ZM15.9428 65.8372H10C10 60.5139 10.0501 54.9587 10 49.6454V48.977C10.0411 48.8758 10.158 48.8498 10.4567 48.8529C12.6576 48.877 16.2599 48.5899 17.95 49.4973C18.976 50.0482 19.7476 50.8427 20.0821 51.9896C20.2646 52.6149 20.3103 53.3637 20.1587 54.0626C20.0162 54.72 19.7918 55.1848 19.4485 55.6645C18.9587 56.3488 18.4938 56.4582 18.1921 56.7203C18.4993 56.746 19.0418 57.0033 19.2939 57.1382C20.2942 57.6729 20.8831 58.5375 21.2249 59.6336C21.6884 61.1202 21.175 62.9251 20.0925 64.1043C19.8726 64.3437 19.5392 64.6098 19.2635 64.7948C18.9597 64.9987 18.6517 65.1636 18.3159 65.3004C17.6863 65.5572 16.7897 65.8023 15.943 65.8372H15.9428ZM14.6243 55.9276H13.105V51.5014H14.8226C17.8884 51.5014 18.028 55.9276 14.6243 55.9276Z" fill="#2FC6F7"/>
<path fill-rule="evenodd" clip-rule="evenodd" d="M68.9952 52.0962L69.7218 54.2103C71.076 53.5606 72.1437 53.2193 73.7517 53.2193C74.9325 53.2193 75.7997 53.8638 75.7997 55.0691C75.7997 56.3103 74.6476 57.1052 73.9026 57.6643C73.6708 57.8383 73.4991 57.9752 73.2614 58.1462L71.9883 59.1195C70.0517 60.7561 68.5326 63.1056 68.5326 65.8374H78.8387C78.8387 63.1356 79.0274 63.4464 78.1793 63.4579L72.1002 63.4591C72.1706 62.6136 72.9905 61.6769 73.5371 61.1303C74.2035 60.4637 74.8619 60.0042 75.5925 59.4201C77.0839 58.2275 78.7066 57.0964 78.7066 54.7386C78.7066 53.4785 78.245 52.7008 77.4694 51.9461C76.4247 50.9299 74.7582 50.907 73.3554 50.907C71.9199 50.907 69.9453 51.5933 68.9952 52.0962Z" fill="#006198"/>
<path fill-rule="evenodd" clip-rule="evenodd" d="M85.6432 58.7686V59.9579H83.6613C83.0606 59.9579 82.7314 60.0239 82.1419 60.0239L85.7754 55.2013C85.7754 56.4282 85.6432 57.4145 85.6432 58.7686ZM88.3517 65.8375H85.8378C85.6884 65.8368 85.6432 65.7903 85.6432 65.6394V62.2039H79.103V60.5525C79.103 60.2564 79.3555 60.0637 79.5183 59.8446L80.896 58.0511C82.3702 56.0808 84.0606 54.0193 85.5303 52.0493C86.6192 50.5897 86.0549 50.9071 88.3519 50.9071V59.9579H90.3999C90.5522 59.9579 90.5981 60.0038 90.5981 60.1561V62.2041H88.3519V65.8375H88.3517Z" fill="#006198"/>
<path fill-rule="evenodd" clip-rule="evenodd" d="M58.6229 59.6931L54.0646 65.8371H57.3678L59.5483 62.7986C59.6918 62.5944 60.1712 61.9206 60.3406 61.8072C60.3847 61.9724 60.5719 62.1951 60.6714 62.3352L61.7546 63.8287C62.2387 64.5298 62.7171 65.1437 63.1815 65.8371H66.4187C66.3602 65.6182 65.492 64.4993 65.3338 64.2796L64.2103 62.7606C63.9193 62.3734 62.1988 60.0834 61.9924 59.6933L65.2863 55.1918C65.4666 54.9529 66.3294 53.8955 66.3526 53.6157H63.1815C62.7825 54.2113 60.4571 57.4458 60.2747 57.5795L58.2166 54.6829C57.2017 53.3014 58.0768 53.6157 54.2629 53.6157C54.3243 53.8795 54.3341 53.8239 54.4695 54.0036L56.4147 56.6829C56.8004 57.193 57.128 57.6819 57.5001 58.1741L58.332 59.3241C58.4387 59.4798 58.5163 59.5707 58.6232 59.6936L58.6229 59.6931Z" fill="#2FC6F7"/>
<path fill-rule="evenodd" clip-rule="evenodd" d="M31.1405 50.8408V53.6156H29.1586C29.0063 53.6156 28.9603 53.6615 28.9603 53.8137V55.9277C28.9603 56.08 29.0063 56.126 29.1586 56.126H31.1405V62.6004C31.1405 63.4325 31.3462 64.2448 31.6961 64.7534C31.9724 65.1551 32.6899 65.8366 33.3193 65.8375H36.4267C36.994 65.8368 37.9564 65.2444 38.2092 65.1769L37.2843 62.9968C36.5967 63.3608 34.8246 64.1418 34.3818 62.9266C34.1428 62.2712 34.2454 57.1231 34.2454 56.1262H37.0199C37.2502 56.1262 37.2793 55.7842 37.3425 55.5899L37.8951 53.8193C37.9127 53.7085 37.972 53.6159 37.7467 53.6159H34.2454V49.9163C34.0318 50.0188 33.7571 50.0699 33.494 50.1558L31.1403 50.8411L31.1405 50.8408Z" fill="#2FC6F7"/>
<path fill-rule="evenodd" clip-rule="evenodd" d="M42.8337 54.9367C42.7308 54.4953 42.606 54.0569 42.5033 53.6155L40.3852 53.6115C40.1047 53.6071 39.8607 53.5461 39.8607 53.8136V65.8372H42.9657V57.381C42.9657 57.1374 43.7498 56.6598 43.9558 56.5214C45.357 55.5795 46.3236 56.3304 46.8635 56.4562C46.9993 55.8738 47.8395 54.1616 47.9207 53.8136C47.709 53.7571 47.7847 53.7454 47.5622 53.6434C47.4333 53.5845 47.2749 53.5255 47.1804 53.4966C44.6888 52.7381 43.2327 54.8302 42.8336 54.9367H42.8337Z" fill="#2FC6F7"/>
<path fill-rule="evenodd" clip-rule="evenodd" d="M49.3081 53.8138V65.8375H52.2846C52.434 65.8368 52.4792 65.7903 52.4792 65.6394V53.8138C52.4792 53.6617 52.4333 53.6157 52.2809 53.6157H49.5064C49.354 53.6157 49.3081 53.6617 49.3081 53.8138Z" fill="#2FC6F7"/>
<path fill-rule="evenodd" clip-rule="evenodd" d="M27.1105 65.8375V53.8138C27.1105 53.6617 27.0646 53.6157 26.9122 53.6157H24.0055V65.8375H27.1105Z" fill="#2FC6F7"/>
<path fill-rule="evenodd" clip-rule="evenodd" d="M98.9883 52.3604C99.9708 52.3604 100.44 52.3926 101.367 52.8227C101.909 53.0745 102.28 53.4426 102.672 53.8298C104.391 55.5293 104.319 58.4886 102.54 60.2724C100.328 62.4905 96.5403 61.8609 95.1118 59.0116C94.8027 58.3955 94.769 57.9628 94.6532 57.1535C94.4701 55.8744 95.3743 54.1093 96.438 53.3118C97.1235 52.7979 98.0699 52.3606 98.9881 52.3606L98.9883 52.3604ZM105 56.7056V57.2627C104.963 58.0282 104.771 58.7893 104.424 59.5136C104.048 60.2969 103.166 61.2966 102.437 61.7553C99.7089 63.4723 96.4294 62.7829 94.6558 60.3265C93.8216 59.1708 93.571 58.2029 93.571 56.7206C93.571 54.6437 95.132 52.4649 97.0242 51.7177C99.5195 50.732 101.897 51.322 103.63 53.2683C103.755 53.4089 103.811 53.4798 103.925 53.6337C104.137 53.9193 104.292 54.1537 104.45 54.496C104.78 55.2096 104.964 55.9561 105 56.7056Z" fill="#006198"/>
<path fill-rule="evenodd" clip-rule="evenodd" d="M48.9777 49.8497C48.9777 50.9983 49.8135 51.6916 50.8408 51.7461C51.8161 51.7981 52.8095 50.9952 52.8095 49.7837C52.8095 48.8732 51.9529 48.0009 50.895 48H50.8921C49.8464 48.0009 48.9777 48.8123 48.9777 49.8497Z" fill="#2FC6F7"/>
<path fill-rule="evenodd" clip-rule="evenodd" d="M23.675 49.784C23.675 50.6778 24.0611 51.3797 24.9194 51.6449C26.4813 52.1273 27.9716 50.7247 27.3185 49.1136C26.6184 47.3864 23.6753 47.7719 23.6753 49.784H23.675Z" fill="#2FC6F7"/>
<path fill-rule="evenodd" clip-rule="evenodd" d="M98.856 54.2759V57.5791C98.856 57.7313 98.902 57.7772 99.0543 57.7772H102.555C102.555 57.1721 102.639 56.9185 102.357 56.9185H99.7148V54.0778C99.1097 54.0778 98.856 53.9941 98.856 54.276V54.2759Z" fill="#006198"/>
</svg>
