<svg width="114" height="114" viewBox="0 0 114 114" fill="none" xmlns="http://www.w3.org/2000/svg">
<rect width="113.713" height="113.713" rx="10" fill="white"/>
<path fill-rule="evenodd" clip-rule="evenodd" d="M15.9754 70.1372C16.3364 69.4406 16.121 70.0427 16.1969 69.2573L16.2894 44.9188C15.659 42.9234 13.8547 42.4274 12.1464 41.5734C11.1211 41.0608 7.82836 39.2215 7 39L7.48702 39.7996C9.52957 42.4608 9.88589 42.5937 11.338 46.4993C13.89 53.3622 13.6754 59.7029 11.2805 66.4402C10.5934 68.3734 9.36421 70.7015 8.24178 72.4081C7.69082 73.2458 7.23241 73.3849 7.00022 74.2545L11.4836 72.3046C12.4656 71.8966 12.8733 71.6579 13.7997 71.2755C14.5154 70.9799 15.3473 70.7354 15.9758 70.1372H15.9754Z" fill="#FF225C"/>
<path fill-rule="evenodd" clip-rule="evenodd" d="M19.1021 54.6973C19.1481 58.179 18.4885 67.2842 16.197 69.2572C16.1212 70.0427 16.3365 69.4406 15.9756 70.1371C17.1059 69.435 19.231 66.6869 20.017 65.3984L22.4027 61.0933C22.581 60.6407 22.4864 60.7767 22.6959 60.3573C22.9107 59.9274 22.9358 59.9041 23.2118 59.5866L23.3552 59.0719C24.4287 54.0984 22.0775 49.6152 20.5168 45.6907C20.4296 45.9514 20.0538 53.1515 19.1022 54.6973H19.1021Z" fill="#B2113B"/>
<path fill-rule="evenodd" clip-rule="evenodd" d="M86.5151 58.815C86.5151 62.4441 90.4866 61.3573 90.9134 61.1546C91.9991 60.6391 91.4111 61.0514 91.6617 60.359C91.7017 60.405 91.7535 60.4253 91.7731 60.5048C91.9778 61.3447 92.8907 61.1309 93.7204 61.1309C94.6962 61.1309 94.5857 59.829 94.7723 58.8376C96.0769 51.9038 97.061 52.3817 93.7204 52.3817C92.7872 56.3866 92.9602 59.3297 89.8603 59.3297C88.0348 59.3297 89.8603 55.4881 89.8603 52.3817C87.3193 52.3817 87.7268 51.9101 87.0481 55.2304C86.7942 56.4714 86.5149 57.3741 86.5149 58.815H86.5151Z" fill="black"/>
<path fill-rule="evenodd" clip-rule="evenodd" d="M100.154 53.4109C100.061 52.2992 100.112 52.3815 98.6096 52.3815C97.5179 52.3815 97.392 54.9942 97.1728 56.0914C96.0857 61.534 95.4448 61.1307 98.6096 61.1307C98.7763 59.1288 99.3474 54.1827 101.955 54.1827C104.886 54.1827 102.47 56.9734 102.47 61.1307C105.23 61.1307 104.61 61.2621 105.301 58.3004C105.783 56.2352 107.432 52.1243 102.984 52.1243C101.159 52.1243 101.176 52.7262 100.154 53.4111V53.4109Z" fill="black"/>
<path fill-rule="evenodd" clip-rule="evenodd" d="M16.1969 69.2571C18.4883 67.2841 19.1479 58.1788 19.1019 54.6972C19.008 51.942 17.4873 46.422 16.2894 44.9187L16.1969 69.2571Z" fill="#FE275A"/>
<path fill-rule="evenodd" clip-rule="evenodd" d="M63.0978 60.1009C60.3465 60.1009 59.7526 59.959 59.7526 57.013C59.7526 56.336 60.2501 55.3639 60.5188 54.9486C62.457 51.9543 67.7258 53.8386 64.9999 58.6578C64.6796 59.2238 63.7473 60.1012 63.0978 60.1012V60.1009ZM56.9221 64.4755C56.9221 64.9439 56.9058 64.5033 57.1793 64.9903C58.5016 64.8803 58.232 64.3729 58.4931 62.9587C58.6761 61.9678 58.9809 61.0289 58.9809 59.8437C60.3602 60.8544 59.4284 61.3878 62.5836 61.3878C64.1668 61.3878 65.1176 60.7038 65.8634 59.7782C68.3561 56.6852 66.9542 52.3813 64.3848 52.3813C63.0997 52.3813 62.0541 52.1727 61.193 53.0493C60.8024 53.447 60.9912 53.0901 60.782 53.6677C60.5211 53.2923 60.5644 52.9248 59.7527 52.3811C58.7092 53.371 57.857 59.623 57.4882 61.1816C57.2336 62.2569 56.9222 63.2518 56.9222 64.4755H56.9221Z" fill="black"/>
<path fill-rule="evenodd" clip-rule="evenodd" d="M47.1433 60.101C45.4846 60.101 44.0553 59.8847 44.0553 57.7851C44.0553 54.7 47.0331 52.4944 49.2075 53.9126C51.1351 55.1699 49.869 60.1008 47.1433 60.1008V60.101ZM41.4819 64.9903C42.8413 64.8773 42.7321 64.0664 42.9676 62.8734C43.1708 61.8434 43.462 60.7897 43.5406 59.8437L44.5222 60.9207C45.9264 61.8795 51.5179 62.075 51.5179 55.7266C51.5179 52.4478 49.1918 52.3813 47.4005 52.3813C46.1896 52.3813 45.5571 53.1793 44.8272 53.668C44.7996 52.4222 44.8942 52.8252 44.0553 52.3813C43.371 53.4032 43.4936 53.9147 43.1746 55.3605C42.758 57.2487 41.0494 64.0888 41.4821 64.9903H41.4819Z" fill="black"/>
<path fill-rule="evenodd" clip-rule="evenodd" d="M24.457 66.02C25.066 65.8882 25.065 65.8941 25.6369 65.6054C26.0547 65.3945 25.8723 65.487 26.102 65.3219C26.4557 65.0675 26.3009 65.1884 26.4766 64.9905L26.8967 64.2173C26.4214 63.7523 26.3685 63.8638 26.4285 62.1579L26.4492 49.0361C26.3431 48.2763 26.8426 48.8024 25.6434 48.1593C25.1123 47.8746 24.672 47.7202 24.1999 47.4922L24.4572 66.02H24.457Z" fill="#FF3C56"/>
<path fill-rule="evenodd" clip-rule="evenodd" d="M73.6489 53.411C75.3518 53.411 76.0892 54.3836 76.2223 55.9842H70.5611C70.8987 54.5351 71.9255 53.411 73.6489 53.411ZM68.7596 57.5281C68.7596 62.1521 74.2813 62.041 75.9466 60.3099C76.3342 59.907 76.8012 59.5946 76.2508 59.044C75.196 57.9892 75.1374 60.6565 72.277 60.1672C70.3025 59.8295 70.3038 58.6676 70.3038 57.2708C75.31 57.2708 77.5093 57.9559 77.5093 55.984C77.5093 50.3255 68.76 51.4815 68.76 57.5281H68.7596Z" fill="black"/>
<path fill-rule="evenodd" clip-rule="evenodd" d="M30.9316 51.2439L31.6315 52.7403C32.2273 55.0905 32.4378 56.4213 32.1259 58.8145C32.2466 59.1503 32.3121 59.0717 31.961 59.0717C31.933 60.3306 31.3577 61.7869 30.9316 62.6745C35.2428 61.6701 39.9159 56.1966 32.628 51.7088C32.4709 51.6121 31.6972 51.1797 31.6039 51.1448C30.5652 50.754 31.1801 50.6862 30.9316 51.2443V51.2439Z" fill="#FF5051"/>
<path fill-rule="evenodd" clip-rule="evenodd" d="M23.3549 59.0719C23.5684 59.8458 23.5082 59.4069 23.2116 59.5866C23.2116 62.0821 21.2974 66.3467 20.3809 68.0785L23.5649 66.6273C23.9213 66.4373 23.7783 66.5285 24.0465 66.348C24.3687 66.1315 24.2843 66.1898 24.4569 66.0197L24.1996 47.4919L20.5166 45.6907C22.0775 49.6151 24.4285 54.0984 23.3549 59.0719Z" fill="#FF3657"/>
<path fill-rule="evenodd" clip-rule="evenodd" d="M28.6153 57.2705L28.5079 57.5278C28.0286 60.2524 27.5315 61.7792 26.8958 64.2172L26.4757 64.9904C27.6422 64.3415 28.5054 63.2147 29.4568 62.2292C29.9731 61.6946 30.2893 61.2419 30.7133 60.6553C31.1581 60.0401 31.3811 59.4961 31.9605 59.0715L32.1254 58.8142C32.4375 56.4211 32.2269 55.0903 31.6309 52.74L30.9311 51.2437C30.5618 52.1985 30.8083 52.741 30.0558 54.5933C29.8284 55.1525 29.6194 55.5382 29.3934 55.9895L28.6153 57.2702V57.2705Z" fill="#B2113B"/>
<path fill-rule="evenodd" clip-rule="evenodd" d="M82.9123 53.6682L82.6548 52.3816C79.873 52.3816 80.5742 51.7973 79.4602 57.4213C78.659 61.4669 78.0787 61.1307 81.1109 61.1307C81.427 59.7746 81.7027 58.0161 82.1625 56.7784C82.7788 55.1186 83.6726 54.8625 85.4857 54.44C85.568 53.4484 85.743 53.6105 85.743 52.3816C84.4037 52.0693 83.1991 52.594 82.9125 53.6682H82.9123Z" fill="black"/>
<path fill-rule="evenodd" clip-rule="evenodd" d="M26.8964 64.2173C27.5318 61.7793 28.0292 60.2525 28.5085 57.528C28.3196 57.2038 28.2483 57.2707 28.616 57.2707C28.616 55.9965 28.2483 53.9421 27.9518 52.7882C27.6567 51.6405 27.2447 49.8547 26.4491 49.0359L26.4284 62.1577C26.3684 63.8637 26.4213 63.7524 26.8966 64.2171L26.8964 64.2173Z" fill="#FF4155"/>
<path fill-rule="evenodd" clip-rule="evenodd" d="M53.3198 61.1305C55.0924 61.091 54.4629 60.7035 55.2774 57.1695C55.4884 56.2542 55.6742 55.3866 55.8384 54.627C56.1486 53.1932 56.3029 53.3775 55.6357 52.3813C54.7029 52.8748 54.8246 52.6189 54.5637 53.8827C54.1303 55.9827 53.3196 59.2146 53.3196 61.1305H53.3198Z" fill="black"/>
<path fill-rule="evenodd" clip-rule="evenodd" d="M55.1514 50.6176C55.7156 51.7051 55.0248 51.0143 56.1497 51.6096L56.7018 50.8687L55.9477 50.0105L55.1516 50.6176H55.1514Z" fill="black"/>
</svg>
