<svg width="114" height="114" viewBox="0 0 114 114" fill="none" xmlns="http://www.w3.org/2000/svg">
<rect width="113.713" height="113.713" rx="10" fill="white"/>
<path fill-rule="evenodd" clip-rule="evenodd" d="M12.6248 50.3749C10.968 50.3749 9.79833 50.1252 8.56948 49.4304C6.62898 48.3328 6.88066 47.9649 6 47.3752C6 52.9878 6.29465 55.8245 9.22425 60.1504C10.023 61.3293 11.0505 62.3119 12.1947 63.1799C12.6121 63.4966 12.9653 63.7448 13.3806 63.9941C15.9354 65.5309 17.6033 65.9999 20.75 65.9999C23.7771 65.9999 26.1248 63.6432 26.1248 60.6251C26.1248 57.1855 24.8969 54.9718 22.7811 52.8438C22.3432 52.4035 21.362 51.5385 20.75 51.375V51.1246C21.3751 51.0731 21.9982 50.7346 22.6983 50.5732C27.1653 49.5447 29.8924 50.9763 33.3213 53.553C35.0091 54.8218 36.0795 55.8748 38.2496 55.8748C39.081 55.8748 38.9997 55.4521 38.9997 54.9998C38.9997 53.5738 35.4706 50.3091 34.4012 49.598C31.3343 47.5588 29.4143 47 25.4997 47C20.4321 47 17.7006 50.3747 12.6248 50.3747V50.3749Z" fill="#786FB2"/>
<path fill-rule="evenodd" clip-rule="evenodd" d="M76.7495 53.3752V62.375H77.7495V54.3748C77.7495 53.7677 79.9743 53.5001 80.4998 53.5001C82.4496 53.5001 83.2498 54.418 83.2498 56.3749V62.375H84.2498C84.2498 60.0623 84.4882 56.3468 83.9999 54.2502C85.2 53.6149 88.1277 52.9506 89.2051 54.2941C90.0727 55.3761 89.7497 60.5287 89.7497 62.375H90.7497V55.6252C90.7497 53.8383 89.4115 52.5 87.6249 52.5C84.379 52.5 84.6432 53.0798 83.3749 53.3752C81.9229 52.4029 81.8148 52.5 80.1248 52.5C78.6206 52.5 77.8994 53.1071 76.7497 53.3752H76.7495Z" fill="#786FB2"/>
<path fill-rule="evenodd" clip-rule="evenodd" d="M45.875 61.5003C45.2777 61.5003 42.8748 61.4786 42.8748 60.75V55.3752C42.8748 53.4358 45.0037 53.5003 46.2499 53.5003C47.8336 53.5003 48.8749 55.1419 48.8749 56.7502C48.8749 58.7088 48.9556 61.5005 45.8752 61.5005L45.875 61.5003ZM41.7501 55.6253V66.0001H42.8748V62.1248C43.3102 62.1611 43.4823 62.2756 43.8815 62.3682C45.4072 62.7219 47.9513 62.5218 48.9536 61.2035C50.8742 58.6764 50.3633 52.5001 46.1249 52.5001C44.8863 52.5001 43.7469 52.4405 42.7146 53.3399C42.1644 53.8188 41.7501 54.6387 41.7501 55.6253Z" fill="#786FB2"/>
<path fill-rule="evenodd" clip-rule="evenodd" d="M96.874 53.4999H97.1243C98.9304 53.4999 100.124 54.9507 100.124 56.7497V57.1249H93.8742C93.8742 55.1006 94.8633 53.4999 96.874 53.4999ZM92.7491 57.5C92.7491 60.8466 94.1564 62.5001 97.6245 62.5001C98.675 62.5001 99.9355 62.2392 100.624 61.875V60.8749C100.214 60.9091 96.737 62.4151 94.8385 60.6606C94.3567 60.2155 93.8742 59.0128 93.8742 58.1247H101.249C101.249 56.4228 101.296 55.3784 100.271 53.9788C98.3711 51.3864 92.7493 51.8302 92.7493 57.5002L92.7491 57.5Z" fill="#786FB2"/>
<path fill-rule="evenodd" clip-rule="evenodd" d="M60.1249 61.5001C57.0464 61.5001 56.2495 60.2903 56.2495 57.1249C56.2495 56.1452 56.5502 55.176 56.9764 54.6021C58.1795 52.9831 63.2495 52.4199 63.2495 57.25C63.2495 59.4611 62.6203 61.5001 60.1247 61.5001H60.1249ZM55.1248 57.5003C55.1248 60.0387 56.3918 62.5003 59.2497 62.5003H60.2493C62.633 62.5003 64.2495 60.5381 64.2495 58.125C64.2495 56.3341 64.3701 55.3452 63.2022 53.7975C61.8272 51.9768 55.1246 51.0398 55.1246 57.5005L55.1248 57.5003Z" fill="#786FB2"/>
<path fill-rule="evenodd" clip-rule="evenodd" d="M70.6246 61.4999H69.8745C66.8534 61.4999 66.7495 58.7943 66.7495 56.8749C66.7495 55.1267 67.8943 53.4998 69.6245 53.4998C70.9161 53.4998 72.1573 53.3669 73.0563 54.6929C73.9817 56.0591 73.9798 58.9422 73.0571 60.3074C72.6006 60.9825 71.7061 61.4999 70.6246 61.4999ZM65.6246 57.5002C65.6246 60.1785 66.9906 62.5002 69.7494 62.5002H70.7491C73.1015 62.5002 74.7492 60.505 74.7492 58.1248C74.7492 56.4223 74.8178 55.2808 73.7371 53.8874C72.1211 51.8047 65.6244 51.2129 65.6244 57.5003L65.6246 57.5002Z" fill="#786FB2"/>
<path fill-rule="evenodd" clip-rule="evenodd" d="M102.624 54.9999C102.624 58.7517 108.124 56.9976 108.124 59.75C108.124 61.6096 105.636 61.6694 103.995 61.2543C103.441 61.114 102.983 60.8626 102.499 60.7496V61.7497C104.56 63.1296 109.124 62.6809 109.124 60.2496C109.124 58.9782 109.124 58.2837 107.779 57.4697C107.135 57.0801 105.99 56.8495 105.168 56.5814C102.767 55.799 103.303 53.4998 106.124 53.4998C107.317 53.4998 107.769 53.9289 108.624 53.9998V52.9998C106.823 52.5805 107.93 52.4998 105.499 52.4998C103.983 52.4998 102.624 53.5084 102.624 54.9999Z" fill="#786FB2"/>
<path fill-rule="evenodd" clip-rule="evenodd" d="M52.1245 62.3752H53.1247V48.875H52.1245V62.3752Z" fill="#786FB2"/>
<path fill-rule="evenodd" clip-rule="evenodd" d="M24.6252 52.0004C24.6252 53.4328 26.7504 53.4328 26.7504 52.0004C26.7504 50.5927 24.6252 50.7244 24.6252 52.0004Z" fill="#786FB2"/>
</svg>
