<svg width="114" height="114" viewBox="0 0 114 114" fill="none" xmlns="http://www.w3.org/2000/svg">
<rect width="113.713" height="113.713" rx="10" fill="white"/>
<path fill-rule="evenodd" clip-rule="evenodd" d="M79.0863 51.4796C79.0834 51.4727 79.0717 51.4484 79.0686 51.4431L79.0162 51.4149C79.0142 51.4023 78.9941 51.4164 78.9842 51.4207L79.2598 51.3831C79.2688 51.3566 79.2961 51.3549 79.3122 51.3385C79.1513 51.5481 79.3671 51.5689 79.3951 51.585C79.3684 51.5907 79.3414 51.5944 79.3266 51.6001C79.3187 51.6034 79.2936 51.6119 79.2845 51.616L79.0668 51.7496C79.1269 51.6757 79.2014 51.8829 79.0998 51.5252C79.0973 51.5159 79.0899 51.4876 79.0863 51.4796ZM84.8084 46.4997C84.8197 46.4943 84.8709 46.7592 84.8571 46.3521C84.8566 46.3343 84.8169 46.197 84.8084 46.171C85.3385 46.0667 84.8723 46.1757 85.0189 46.0125L85.1765 45.8636C85.2954 45.6827 85.1819 45.7812 85.2513 45.5273L85.3832 45.3501C85.4468 45.6759 85.3431 45.4256 85.5294 45.5235L85.6423 45.5467C85.6443 45.5476 85.6567 45.5496 85.6586 45.5508C85.8855 45.7427 85.4795 45.2577 85.6905 45.6343C85.9231 46.049 85.8602 45.7693 85.8758 45.7612H85.2195V46.2532C84.8852 46.4375 84.9076 46.175 84.8085 46.4997H84.8084ZM85.5469 43.7097L85.2529 43.8179C85.0494 43.8924 84.9735 43.883 84.7254 43.8801C84.2926 43.875 84.1813 43.7735 83.9065 43.628C83.9661 43.356 83.9551 43.3311 84.1815 43.2456C84.5424 43.1097 84.8868 43.12 85.2491 43.2684C85.5406 43.3878 85.4976 43.4332 85.5471 43.7097H85.5469ZM67.3359 43.4641L67.1882 43.2834C67.2567 41.9164 69.026 41.561 68.0095 42.989L67.7385 43.281C67.5896 43.4023 67.5444 43.4189 67.3357 43.4641H67.3359ZM67.1716 45.9247C67.6649 45.7857 67.4725 45.8349 67.5816 45.6784C67.5796 45.6833 67.3715 45.6829 67.6523 45.8596C67.872 45.9979 68.0558 45.9296 68.2386 46.0075C67.7547 46.3622 68.3276 45.6023 68.1057 46.1672C68.0513 46.3062 68.0794 46.3385 68.0746 46.499C68.363 46.4133 68.5701 46.3895 68.73 46.1708L68.6488 46.663C69.8404 46.515 69.2654 46.8584 69.4681 46.4173C69.3503 46.4775 69.4119 46.7268 69.469 46.8277C69.7676 46.8277 70.2231 46.7447 70.4716 46.6L70.6992 46.4173C70.8552 46.5055 70.8868 46.5272 70.9586 46.5803L79.1344 52.5009C79.3102 52.6341 79.5182 52.7794 79.7225 52.8978C79.6747 52.9695 79.6665 52.9991 79.5883 53.0855C79.2867 53.4187 79.823 52.8938 79.5025 53.1757C79.3505 53.3098 79.5485 53.1598 79.3127 53.308C79.4341 53.9733 79.4049 53.8717 79.8864 53.8817L79.9688 54.0467C79.819 54.028 79.9571 53.9129 79.6396 54.0017C79.617 54.0078 79.5845 54.0295 79.5586 54.0463C79.6813 54.3135 79.4669 54.1368 79.713 54.2604C79.9435 54.3761 79.8418 54.2662 79.887 54.2107C79.887 54.2107 79.6232 54.2172 79.5991 54.6849C79.598 54.704 79.6376 54.7821 79.6409 54.785C79.6269 54.7568 79.9737 54.8392 79.5957 54.7461L78.943 54.8192C78.9358 54.83 78.919 54.8567 78.9101 54.8703L78.5097 55.3573C78.1421 55.5996 78.2274 55.4838 78.164 55.9326L78.6709 55.8358C78.8973 55.7476 78.7556 55.8081 78.9016 55.6869C78.9576 55.8591 79.1922 55.7687 79.3127 55.7689C79.3705 56.0857 79.3216 55.907 79.3948 56.0969C79.4186 56.0835 79.5353 56.004 79.5518 55.9977C79.5644 55.9928 79.5906 55.9715 79.6065 55.9675L79.9683 56.0148C79.8342 55.5347 79.9468 55.9371 79.9482 55.6276L79.9094 55.4178C79.954 55.0167 79.7659 55.7926 79.9517 55.3049C79.9587 55.2866 79.9967 55.2113 80.0133 55.1477C80.0162 55.1359 80.0211 55.1088 80.0229 55.098C80.0259 55.0806 80.0279 55.0362 80.0265 55.0237C80.0079 54.8437 80.1288 55.03 79.969 54.9487C79.9753 55.1027 79.9618 55.2787 80.1465 55.4308L80.2581 55.4997C80.5006 55.6144 80.2936 55.5208 80.6246 55.6045C80.6653 55.3786 80.7401 55.7031 80.6239 55.3757C80.6027 55.3161 80.5877 55.283 80.5429 55.3584C80.7926 55.3643 80.8396 55.3826 80.9537 55.5226C80.9855 55.4995 81.0279 55.4279 81.0467 55.4509C81.0843 55.4961 81.1219 55.3182 81.2946 55.2304C81.308 55.2237 81.4885 55.2375 81.5073 55.2335C81.784 55.1778 82.1703 54.7026 81.8561 54.9482C81.9179 54.9998 82.0557 55.0147 82.1018 55.0302C82.5857 54.6643 82.7012 54.6052 83.3064 54.3475C84.4343 53.8667 86.2198 54.1218 87.2545 54.8981L87.6477 55.2257C87.9105 55.4225 88.2878 55.9979 88.4461 56.3146C88.9348 57.2929 88.9847 58.5465 88.5832 59.4639C88.5581 59.5213 88.458 59.7282 88.4466 59.7501C88.3808 59.8775 88.3434 59.9397 88.272 60.0515C87.0953 61.9004 84.4777 62.5531 82.3467 61.1847C80.8577 60.2282 80.1662 58.1256 80.8976 56.6157C81.0549 56.2911 81.1372 56.2456 81.1996 55.8515C80.6541 55.3537 80.9708 55.553 80.5436 55.4413C80.4488 55.6883 80.419 55.912 79.8142 55.9758C79.7876 55.9787 79.5861 56.0103 79.5594 56.0154C79.5805 56.7151 79.9114 56.3638 79.7234 56.5895C79.9556 56.4211 79.6481 56.4377 79.5586 56.5065C79.5671 56.478 79.5857 56.4089 79.5859 56.4209C79.5859 56.4218 79.6517 56.3799 79.5586 56.0972L78.6571 56.3434C78.6551 56.3499 78.347 56.399 78.7392 56.7528C78.7211 56.7306 78.8048 56.5242 78.5574 56.7147C78.4464 56.8003 78.4293 57.0365 78.4099 57.0819C78.3207 56.9232 78.4585 56.8856 77.9999 56.8358L78.0404 56.856C78.046 56.8593 78.0809 56.8853 78.0946 56.8902C78.1009 56.8923 78.119 56.9053 78.1271 56.9071L78.3953 56.7857C78.3946 56.7796 78.3884 56.7494 78.3875 56.7427C78.348 56.3869 78.3985 57.0457 78.3857 56.6706L78.3281 56.5065C78.6839 56.2124 78.6179 56.1235 78.6562 55.8513L78.1421 55.8925C78.1338 55.8916 78.1145 55.8811 78.1064 55.8799C78.0951 55.8779 78.0684 55.8696 78.057 55.8676C77.863 55.8331 77.7992 55.8686 77.7542 56.0974C77.4896 56.7778 77.3812 58.4839 77.5897 59.2967C78.0146 60.9532 78.3617 61.6939 79.5941 62.8853C79.6069 62.8974 79.6246 62.914 79.6367 62.9261L79.7496 63.0495C79.825 63.1314 79.8642 63.1807 79.9468 63.2557L80.7894 63.8081C80.7567 64.1997 80.346 64.7754 80.0514 65.0385C80.0514 65.5156 80.0167 65.1184 80.2151 65.2842C80.4943 65.1681 80.2771 65.4353 80.4614 65.1202C80.8841 65.2707 80.1785 65.2038 80.7899 65.2848C80.6855 65.597 80.7231 65.5813 80.8714 65.7767C80.8669 65.7682 80.8539 65.7449 80.8523 65.7553L80.7829 65.8016C80.6273 66.0432 80.8738 66.045 80.7079 65.9415C80.5738 66.101 80.6248 66.0112 80.3798 66.1055C80.6165 66.393 80.3317 66.2622 80.711 66.3457L81.1998 66.0228C81.3454 66.0817 81.2018 66.0157 81.3642 66.1052C81.2655 66.3236 81.3806 66.037 81.2627 66.2459C81.1452 66.4541 81.22 66.2485 81.1181 66.597C81.8006 66.5867 81.587 66.5905 81.5283 66.5154C81.5283 66.9059 81.477 66.4995 81.6918 66.6791L82.2825 65.7114C82.5073 65.3956 82.6812 65.0936 82.8402 64.7927C83.1535 64.7927 83.3257 64.8403 83.6398 64.8957C85.638 65.2483 87.7585 64.6124 89.3505 63.4116L89.8347 63.0259C89.9847 62.878 90.1614 62.7024 90.284 62.5566C91.0245 61.6766 91.544 60.7427 91.8479 59.5429C92.2496 57.9577 91.9876 56.3499 91.3176 55.0192C91.0371 54.4626 90.9283 54.3197 90.5848 53.847L89.2061 52.5205C88.3483 51.8992 86.9273 51.1753 85.8758 51.1753V47.5658C87.5702 46.6692 88.0042 44.7053 86.4302 43.1546C85.7677 42.502 84.5838 42.4009 83.7525 42.7357C82.9349 43.0653 82.3924 43.678 82.1654 44.5931C81.9448 45.4813 82.2505 46.1985 82.675 46.8407C82.866 47.1303 83.3499 47.4825 83.6611 47.5656C83.6611 48.2192 83.5789 48.5881 83.5791 49.2881C83.5792 49.9171 83.5791 50.5459 83.5791 51.175L82.4817 51.39C81.0435 51.8042 82.1325 52.2489 79.1013 49.9923L78.6797 49.686C78.6672 49.6764 78.6495 49.6601 78.6372 49.65L78.4602 49.5031C78.4463 49.4923 78.4255 49.4798 78.4116 49.4691L75.3277 47.1199C75.308 47.1052 75.1895 47.0152 75.1891 47.0151L75.0955 46.9572C75.0827 46.9489 75.0606 46.939 75.0475 46.9307C74.7363 46.7294 73.0283 45.3159 72.2925 44.8371C72.1076 44.7167 72.3435 44.9168 72.0944 44.6943C72.3272 43.8609 72.1702 42.9636 71.7518 42.3447L71.4184 41.924C71.248 41.753 71.1423 41.6385 70.9314 41.5118C68.0672 39.7921 65.4067 42.7521 66.6781 45.2704C66.7475 45.4077 66.7618 45.4466 66.8588 45.5712L67.1722 45.9242L67.1716 45.9247Z" fill="#E26F1D"/>
<path fill-rule="evenodd" clip-rule="evenodd" d="M15 63.644H17.7071C17.8959 63.644 17.9532 63.5867 17.9532 63.3979V57.2456H23.7772V63.644H26.7304V48.6321C26.7304 48.4431 26.6733 48.386 26.4843 48.386H23.7772V54.4563H17.9532V48.6321C17.9532 48.4431 17.8959 48.386 17.7071 48.386H15V63.6438V63.644Z" fill="#45545E"/>
<path fill-rule="evenodd" clip-rule="evenodd" d="M70.6172 61.1833C69.2856 61.1833 68.295 60.4997 67.7471 59.4596C67.3209 58.6499 67.2724 57.2995 67.7162 56.4773C68.8487 54.3788 71.3863 54.109 72.6832 55.7541C74.5796 58.1586 72.7336 61.1835 70.6172 61.1835V61.1833ZM64.6292 57.5738V67.5816C67.9029 67.5816 67.4192 67.8452 67.4181 66.515V62.5776C67.6281 62.7182 67.6996 62.8419 67.9081 62.9899C68.8693 63.6728 69.6622 63.7261 70.7815 63.7261C75.1123 63.7261 77.6842 58.1071 75.07 54.6797C74.3693 53.761 74.8268 54.242 74.0852 53.6137C73.1262 52.8017 72.5373 52.5552 71.3387 52.2587C70.0861 51.9488 68.7226 52.207 67.6094 52.761C66.9961 53.0664 66.5672 53.4332 66.1243 53.9011C65.7573 54.2888 65.3585 54.9668 65.1463 55.4661C64.8624 56.1343 64.6292 56.8008 64.6292 57.574V57.5738Z" fill="#45545E"/>
<path fill-rule="evenodd" clip-rule="evenodd" d="M46.9103 61.2647C45.0892 61.2647 43.711 59.8077 43.711 58.3117V57.7374C43.711 56.2871 45.1434 54.7844 46.5819 54.7844C47.6428 54.7844 48.2554 54.9796 48.9381 55.7918C50.0852 57.1567 49.9827 58.8625 48.963 60.2007C48.583 60.6993 47.7807 61.2649 46.9103 61.2649V61.2647ZM40.922 58.3117C40.922 59.8565 41.6969 61.1953 42.4227 62.061C43.1448 62.9226 44.7757 63.8077 45.9262 63.8077C47.9406 63.8077 49.2646 63.4633 50.7044 62.0235C53.5676 59.1603 52.6753 54.4857 49.1267 52.732C47.679 52.0168 45.6739 51.9358 44.3317 52.8618C44.0406 53.0623 44.0158 53.2264 43.7113 53.3077L43.7115 49.4523C43.7158 48.1211 44.1877 48.386 40.9224 48.386V58.3119L40.922 58.3117Z" fill="#45545E"/>
<path fill-rule="evenodd" clip-rule="evenodd" d="M58.2306 61.0188C56.965 61.0188 56.1009 60.4447 55.4417 59.46C55.0825 59.7007 54.7596 60.1014 54.4368 60.4241C54.2364 60.6243 53.473 61.2497 53.473 61.5108C53.473 61.9877 55.7209 63.8079 57.6565 63.8079C59.3898 63.8079 60.2066 63.7034 61.5483 62.696C62.9874 61.6156 63.0707 60.3914 63.0707 58.886C63.0707 57.9828 62.7068 57.1176 62.3333 56.5884C61.8969 55.9704 61.3078 55.5327 60.6117 55.1928C59.9068 54.8482 59.1788 54.6753 58.3636 54.4057C57.7688 54.2087 56.6724 53.7812 56.6724 52.9798C56.6724 51.0027 58.645 50.5913 60.5642 52.041C60.8033 52.2215 60.8911 52.3464 61.102 52.4875C61.2559 52.2579 62.7232 50.7344 62.8246 50.3547C62.0938 49.2633 60.2888 48.386 58.4769 48.386C53.2276 48.386 51.804 55.0094 56.4133 56.848C57.8835 57.4342 60.3531 57.9196 60.075 59.5799C59.9401 60.3843 59.1526 61.0188 58.2308 61.0188H58.2306Z" fill="#44545F"/>
<path fill-rule="evenodd" clip-rule="evenodd" d="M28.6992 52.4056V58.3117C28.6992 60.0182 29.1976 61.333 30.0312 62.2296C30.4293 62.6577 30.9504 63.1102 31.5144 63.3717C35.0736 65.0229 38.8714 62.591 38.8714 58.6398V52.4056C38.8714 52.2164 38.8143 52.1593 38.6251 52.1593C35.55 52.1593 36.0821 51.7154 36.0821 53.8818C36.0821 55.3395 36.2619 59.0408 35.8783 59.8304C34.8062 62.0366 31.4884 61.3252 31.4884 58.8039V52.1592H28.9452C28.7563 52.1592 28.6991 52.2163 28.6991 52.4055L28.6992 52.4056Z" fill="#45545E"/>
<path fill-rule="evenodd" clip-rule="evenodd" d="M93.2578 50.8469V60.1163C93.2578 62.3948 94.7976 63.8077 96.8673 63.8077C98.6574 63.8077 98.252 64.0453 98.6624 62.6497C98.7582 62.3234 98.9926 61.5968 99 61.2645C98.1239 61.2645 97.1783 61.3751 96.5218 60.8717C96.2163 60.6371 96.0466 60.147 96.0466 59.6239V54.9481H98.5077V52.569H96.0466V49.4519L94.5972 50.0529C94.3032 50.1899 94.1921 50.2573 93.8663 50.3887C93.6379 50.4803 93.2578 50.5914 93.2578 50.8466V50.8469Z" fill="#44545F"/>
<path fill-rule="evenodd" clip-rule="evenodd" d="M77.6714 70.8624C77.3589 70.7627 77.3548 70.6398 77.4253 70.6983C77.1286 70.7556 77.3458 70.5509 77.1791 70.9445C76.847 70.8458 77.0304 70.9154 76.8454 70.8286L76.5234 70.6167L76.7509 69.9557C76.9413 69.6781 77.102 69.6647 77.3183 69.7968C77.6922 70.0249 77.3152 69.7401 77.504 70.2179C77.5543 70.3449 77.6455 70.3704 77.6712 70.8624H77.6714ZM80.2147 68.1562C80.426 68.4172 80.3541 68.1479 80.3463 68.8077C80.3447 68.9428 80.4749 68.938 80.1181 69.2517C79.9455 69.4034 79.5592 69.2218 79.559 69.2218C79.5615 69.1942 79.5729 69.1232 79.5799 69.1412L79.6405 69.0263C79.8577 68.8773 79.7632 69.0057 79.8051 69.0576C79.6537 68.5377 79.9065 69.0498 79.7231 68.5659C79.8727 68.4271 79.7724 68.4414 80.0508 68.4022L80.0022 68.4219C79.9993 68.4166 79.974 68.3919 79.9773 68.3796C79.9789 68.3729 79.9809 68.3449 79.9856 68.3368C79.9916 68.3261 80.003 68.2983 80.0125 68.2869C80.1685 68.1051 79.9352 68.2965 80.2149 68.1561L80.2147 68.1562ZM80.3897 67.1404C80.7287 67.3055 80.1025 67.2459 80.4955 67.1082C80.5071 67.104 80.5342 67.0901 80.5479 67.089C80.7292 67.0731 80.851 67.1234 80.8354 67.4116C80.8172 67.7468 80.6287 67.7199 80.6247 67.724C80.6061 67.7439 80.5548 67.9654 80.2968 68.0737L80.2335 67.9181C80.1985 67.7106 80.291 67.7594 80.2971 67.4998C79.8423 67.4396 80.1257 67.6362 80.051 67.1714L80.3897 67.1404ZM80.4327 66.8377C80.4516 66.8165 80.5194 66.7531 80.5342 66.7374C80.6931 66.5665 80.5713 66.8868 80.589 66.6541C80.6233 66.2014 80.4927 66.7085 80.5835 66.4815L80.7892 66.2694C80.8157 66.2865 81.0221 66.4481 80.8707 66.5155C81.3242 66.5636 80.9466 66.5005 81.1988 66.5975C81.0991 66.9855 81.1994 66.9562 80.9533 67.2531L80.7449 67.1483C80.5293 67.0298 80.6303 67.0292 80.2971 67.007L80.4327 66.8375V66.8377ZM76.6051 68.5659C76.9119 68.5677 76.851 68.6234 77.0978 68.6483C77.417 68.6405 77.2749 68.5032 77.6585 68.2339C78.3772 67.7296 78.4341 68.5017 77.8159 69.0381C77.4639 69.3435 77.3503 69.3042 77.0156 69.3042V69.1396C76.7384 69.2325 76.7278 69.2217 76.36 69.2217C76.4777 68.7273 76.33 69.1653 76.4217 68.9383C76.6116 68.4681 75.9909 69.1579 76.5239 68.8118L76.4415 68.8113C76.3407 68.87 76.4164 68.5534 76.3053 69.0794C76.1065 70.0205 76.46 70.8767 77.2005 71.4163C78.2382 72.1718 79.6522 71.8238 80.2588 70.9833C80.4713 70.689 80.4131 70.7681 80.3795 70.6165C80.1441 70.4916 80.0803 70.174 79.7039 70.6205C79.6862 70.6416 79.6658 70.6756 79.6414 70.6982C79.5384 70.4553 79.6246 70.5207 79.3821 70.4007C79.3672 70.3935 79.3345 70.3834 79.313 70.3704C79.3221 70.3454 79.3407 70.2842 79.3466 70.2979C79.3743 70.3615 79.5593 69.3265 80.1244 69.6438C80.2236 69.6996 80.2095 69.7021 80.2455 69.7918C80.4225 70.233 80.2989 69.8429 80.2144 69.9607L80.7073 69.6326C80.7073 67.9537 79.9562 69.3539 81.2659 67.3198C81.4 67.1116 81.5169 66.8135 81.6914 66.6787C81.4766 66.4991 81.5279 66.9054 81.5279 66.5149C81.5866 66.5901 81.8004 66.5863 81.1177 66.5966C81.2196 66.2481 81.1448 66.4537 81.2623 66.2455C81.3803 66.0366 81.2652 66.3232 81.3638 66.1047C81.2014 66.0153 81.345 66.0813 81.1994 66.0224L80.7106 66.3453C80.3313 66.2618 80.6161 66.3926 80.3794 66.1051C80.6244 66.0108 80.5734 66.1006 80.7075 65.941C80.8734 66.0446 80.6269 66.0428 80.7825 65.8012L80.8519 65.7549C80.8535 65.7444 80.8665 65.7677 80.871 65.7762C80.7227 65.5809 80.6851 65.5966 80.7895 65.2844C80.1782 65.2034 80.8837 65.2703 80.461 65.1198C80.2767 65.4349 80.4939 65.1676 80.2147 65.2838C80.0163 65.1179 80.051 65.5151 80.051 65.0381C80.0048 65.3521 78.7543 66.9671 78.6562 67.3352C77.9325 67.3352 77.0098 67.6931 76.6763 68.2327C76.4737 68.5605 76.549 68.3146 76.6049 68.5655L76.6051 68.5659Z" fill="#E26F1D"/>
<path fill-rule="evenodd" clip-rule="evenodd" d="M77.754 56.0973C77.799 55.8686 77.8627 55.833 78.0568 55.8675C78.0682 55.8695 78.0949 55.8778 78.1062 55.8798C78.1143 55.881 78.1336 55.8915 78.1419 55.8924L78.656 55.8512C78.6177 56.1235 78.6837 56.2125 78.3279 56.5065L78.3855 56.6705C78.3983 57.0457 78.3478 56.3868 78.3873 56.7426C78.3882 56.7493 78.3944 56.7795 78.3951 56.7856L78.1269 56.9071C78.1188 56.9053 78.1007 56.8922 78.0944 56.8901C78.0807 56.8852 78.0458 56.8592 78.0402 56.8559L77.9997 56.8357C78.4583 56.8856 78.3205 56.9232 78.4097 57.0818C78.4291 57.0365 78.4462 56.8003 78.5572 56.7146C78.8046 56.5242 78.7209 56.7305 78.739 56.7528C78.3468 56.3989 78.6549 56.3498 78.6569 56.3433L79.5584 56.0972C79.6515 56.3798 79.5857 56.4217 79.5857 56.4208C79.5855 56.4089 79.5669 56.4779 79.5584 56.5065C79.6479 56.4376 79.9554 56.421 79.7232 56.5894C79.9112 56.3635 79.5803 56.715 79.5592 56.0153C79.5859 56.0102 79.7874 55.9786 79.814 55.9757C80.4188 55.9118 80.4486 55.6881 80.5434 55.4412C80.9708 55.5529 80.6538 55.3536 81.1994 55.8514C81.3748 55.8404 81.2321 55.8942 81.3983 55.7249C81.4853 55.6366 81.5344 55.5587 81.6287 55.4604C81.7861 55.2961 81.9117 55.131 82.1018 55.0301C82.0557 55.0146 81.9179 54.9998 81.8561 54.9481C82.1705 54.7023 81.7839 55.1778 81.5073 55.2334C81.4885 55.2374 81.308 55.2237 81.2946 55.2303C81.1219 55.3182 81.0843 55.496 81.0467 55.4508C81.0279 55.4279 80.9854 55.4994 80.9536 55.5225C80.8396 55.3825 80.7926 55.3642 80.5429 55.3583C80.5877 55.2829 80.6027 55.316 80.6239 55.3756C80.74 55.7031 80.6652 55.3785 80.6246 55.6044C80.2935 55.5207 80.5006 55.6143 80.2581 55.4996L80.1464 55.4307C79.9618 55.2786 79.9753 55.1026 79.969 54.9486C80.1287 55.03 80.0078 54.8436 80.0265 55.0236C80.0279 55.0361 80.0259 55.0805 80.0228 55.0979C80.021 55.1087 80.0162 55.1358 80.0133 55.1476C79.9966 55.2112 79.9587 55.2865 79.9516 55.3048C79.7659 55.7925 79.954 55.0166 79.9094 55.4177L79.9482 55.6275C79.9468 55.9371 79.8342 55.5347 79.9683 56.0148L79.6065 55.9674C79.5906 55.9714 79.5644 55.9927 79.5518 55.9976C79.5353 56.0039 79.4186 56.0834 79.3947 56.0968C79.3215 55.9069 79.3705 56.0856 79.3127 55.7688C79.1922 55.7687 78.9576 55.859 78.9016 55.6868C78.7556 55.808 78.8973 55.7475 78.6708 55.8357L78.164 55.9325C78.2274 55.4835 78.1421 55.5993 78.5097 55.3572L78.9101 54.8702C78.9189 54.8566 78.9358 54.8299 78.943 54.8191L79.5957 54.7461C79.9737 54.8391 79.6269 54.7567 79.6408 54.7849C79.6376 54.782 79.598 54.704 79.5991 54.6848C79.6231 54.2172 79.887 54.2106 79.887 54.2106C79.8418 54.2661 79.9435 54.376 79.7129 54.2603C79.4668 54.1367 79.6813 54.3135 79.5586 54.0462C79.5845 54.0294 79.617 54.0077 79.6396 54.0016C79.9571 53.9129 79.819 54.028 79.9688 54.0466L79.8864 53.8816C79.4047 53.8716 79.4339 53.9732 79.3127 53.3079C79.2753 53.5619 79.0398 53.7002 78.9007 53.8807C78.7328 54.0982 78.5854 54.3044 78.4249 54.5532C78.2146 54.8796 77.8147 55.6707 77.7536 56.0973H77.754Z" fill="#E26F1D"/>
<path fill-rule="evenodd" clip-rule="evenodd" d="M80.3794 70.6161C80.733 70.4681 80.3956 70.675 80.5458 70.4719C80.6291 70.3597 80.592 70.4753 80.6557 70.2366C80.6932 70.0955 80.7072 69.8819 80.7072 69.6322L80.2142 69.9603C80.2988 69.8425 80.4224 70.2326 80.2453 69.7914C80.2093 69.7017 80.2234 69.6992 80.1242 69.6434C79.5592 69.3261 79.3741 70.3611 79.3465 70.2975C79.3405 70.2838 79.3219 70.345 79.3129 70.37C79.3344 70.383 79.3671 70.3931 79.3819 70.4003C79.6244 70.5203 79.5382 70.4549 79.6412 70.6978C79.6656 70.6752 79.686 70.6412 79.7037 70.6201C80.0803 70.1735 80.1441 70.4912 80.3794 70.6161Z" fill="#E26F1D"/>
<path fill-rule="evenodd" clip-rule="evenodd" d="M77.6716 70.8623C77.6459 70.3701 77.5546 70.3446 77.5044 70.2177C77.3156 69.74 77.6925 70.0248 77.3186 69.7967C77.1022 69.6646 76.9415 69.678 76.7513 69.9555L76.5237 70.6165L76.8458 70.8285C77.0308 70.9153 76.8474 70.8457 77.1795 70.9443C77.3461 70.5508 77.1289 70.7555 77.4256 70.6982C77.3551 70.6397 77.3593 70.7625 77.6717 70.8623H77.6716Z" fill="#E26F1D"/>
<path fill-rule="evenodd" clip-rule="evenodd" d="M67.1713 45.9247C67.1827 46.089 67.7557 46.4406 68.0734 46.5819C68.5634 46.8002 68.7573 46.8275 69.4689 46.8275C69.4118 46.7266 69.3502 46.4773 69.468 46.4171C69.2653 46.8582 69.8402 46.5149 68.6487 46.6629L68.7298 46.1706C68.5697 46.3893 68.3627 46.4131 68.0744 46.4988C68.0793 46.3383 68.0511 46.306 68.1055 46.167C68.3274 45.6023 67.7546 46.362 68.2385 46.0073C68.0555 45.9294 67.8717 45.9977 67.6521 45.8595C67.3713 45.6827 67.5795 45.6831 67.5815 45.6782C67.4723 45.8347 67.6648 45.7856 67.1715 45.9245L67.1713 45.9247Z" fill="#E26F1D"/>
<path fill-rule="evenodd" clip-rule="evenodd" d="M80.3463 68.8072C80.354 68.1474 80.426 68.4165 80.2147 68.1558C79.935 68.2962 80.1683 68.1048 80.0123 68.2866C80.0028 68.298 79.9914 68.3258 79.9854 68.3365C79.9807 68.3446 79.9787 68.3726 79.9771 68.3793C79.9739 68.3916 79.9991 68.4163 80.002 68.4216L80.0506 68.4019C79.7722 68.4411 79.8725 68.4268 79.7229 68.5656C79.9063 69.0495 79.6535 68.5374 79.8049 69.0573C79.763 69.0054 79.8575 68.8769 79.6403 69.026L79.5797 69.141C79.5727 69.1229 79.5613 69.1939 79.5588 69.2215C79.559 69.2215 79.9455 69.4031 80.1179 69.2513C80.4748 68.9377 80.3445 68.9425 80.3461 68.8074L80.3463 68.8072Z" fill="#E26F1D"/>
<path fill-rule="evenodd" clip-rule="evenodd" d="M80.0514 67.171C80.1261 67.6357 79.8427 67.4391 80.2975 67.4993C80.2914 67.759 80.1989 67.7102 80.2339 67.9176L80.2972 68.0732C80.5552 67.965 80.6065 67.7434 80.6252 67.7236C80.6291 67.7194 80.8176 67.7463 80.8359 67.4111C80.8514 67.1229 80.7296 67.0727 80.5484 67.0886C80.5346 67.0896 80.5075 67.1036 80.496 67.1077C80.1029 67.2454 80.7291 67.3051 80.3901 67.1399L80.0514 67.171Z" fill="#E26F1D"/>
<path fill-rule="evenodd" clip-rule="evenodd" d="M80.2972 67.0069C80.6304 67.0291 80.5294 67.0297 80.745 67.1482L80.9533 67.253C81.1995 66.956 81.0992 66.9852 81.1989 66.5974C80.9466 66.5004 81.3243 66.5635 80.8708 66.5154C81.0222 66.448 80.8158 66.2865 80.7893 66.2693L80.5836 66.4814C80.4927 66.7084 80.6234 66.2013 80.589 66.654C80.5713 66.8867 80.6931 66.5664 80.5343 66.7373C80.5195 66.753 80.4517 66.8165 80.4327 66.8376L80.2972 67.0071V67.0069Z" fill="#E26F1D"/>
<path fill-rule="evenodd" clip-rule="evenodd" d="M76.4414 68.8114L76.5238 68.8119C75.9909 69.1579 76.6115 68.4682 76.4216 68.9384C76.3299 69.1654 76.4776 68.7273 76.3599 69.2217C76.7278 69.2217 76.7385 69.2326 77.0155 69.1397L77.0977 68.6482C76.8509 68.6233 76.9118 68.5676 76.605 68.5658C76.3916 68.6307 76.4413 68.4183 76.4413 68.8114H76.4414Z" fill="#E26F1D"/>
<path fill-rule="evenodd" clip-rule="evenodd" d="M84.8082 46.1708C84.8167 46.1968 84.8564 46.3341 84.857 46.3518C84.8707 46.759 84.8195 46.4941 84.8082 46.4995C84.9072 46.1748 84.8848 46.4373 85.2191 46.253V45.7609H85.8754C85.8598 45.7691 85.9227 46.0488 85.6902 45.6341C85.4791 45.2575 85.8851 45.7425 85.6582 45.5506C85.6564 45.5494 85.6439 45.5474 85.6419 45.5465L85.529 45.5233C85.3427 45.4254 85.4464 45.6757 85.3828 45.3499L85.2509 45.5271C85.1815 45.781 85.295 45.6825 85.1761 45.8634L85.0185 46.0123C84.8719 46.1755 85.3383 46.0665 84.808 46.1708H84.8082Z" fill="#E26F1D"/>
<path fill-rule="evenodd" clip-rule="evenodd" d="M78.9842 51.4204C78.9941 51.416 79.0142 51.4019 79.0162 51.4146L79.0686 51.4428C79.0716 51.448 79.0834 51.4724 79.0863 51.4793C79.0899 51.4872 79.0973 51.5156 79.0998 51.5248C79.2014 51.8826 79.1269 51.6753 79.0668 51.7492L79.2845 51.6157C79.2936 51.6115 79.3187 51.603 79.3266 51.5998C79.3414 51.594 79.3684 51.5904 79.3951 51.5846C79.3671 51.5685 79.1513 51.5477 79.3122 51.3381C79.2961 51.3546 79.2688 51.3562 79.2598 51.3828L78.9842 51.4204Z" fill="#E26F1D"/>
</svg>
