<svg width="36" height="36" viewBox="0 0 36 36" fill="none" xmlns="http://www.w3.org/2000/svg">
<circle cx="18" cy="18" r="18" fill="#D9D9D9" fill-opacity="0.15"/>
<path d="M17.9417 11C15.3428 11 12.9282 11.198 11.5504 11.5059C11.5475 11.5067 11.5446 11.5075 11.5416 11.5084C10.5036 11.7572 9.52617 12.5524 9.3204 13.7976C9.32013 13.7993 9.31986 13.801 9.3196 13.8027C9.16152 14.8064 9 16.1147 9 18C9 19.8818 9.16208 21.1554 9.36195 22.2118C9.57276 23.4203 10.5276 24.2395 11.5816 24.4916C11.5866 24.4931 11.5917 24.4945 11.5968 24.4958C13.0347 24.7989 15.3812 25 17.98 25C20.5788 25 22.9265 24.7989 24.3648 24.4958C24.3699 24.4945 24.375 24.4931 24.38 24.4916C25.4181 24.2428 26.3955 23.4476 26.6013 22.2024C26.6018 22.1993 26.6023 22.1961 26.6029 22.193C26.7585 21.1689 26.9602 19.8618 27 17.9735C27 17.9687 27 17.9638 27 17.959C27 16.0696 26.7978 14.7532 26.6005 13.7104C26.3913 12.4993 25.4353 11.6779 24.38 11.4255C24.3639 11.4217 24.3476 11.4186 24.3313 11.4161C22.928 11.2052 20.5409 11 17.9417 11ZM17.9417 12.3125C20.4618 12.3125 22.797 12.5143 24.1227 12.7115C24.7743 12.8717 25.292 13.3584 25.394 13.9489C25.3945 13.9526 25.395 13.9563 25.3956 13.96C25.5859 14.9647 25.7711 16.1593 25.7719 17.9496C25.7337 19.7456 25.5481 20.9508 25.3924 21.9751C25.286 22.6132 24.7876 23.0463 24.1172 23.209C22.8294 23.4792 20.5126 23.6875 17.98 23.6875C15.447 23.6875 13.1308 23.4784 11.8437 23.2081C11.1897 23.0493 10.6699 22.5611 10.5676 21.9691C10.5669 21.9654 10.5661 21.9617 10.5652 21.958C10.377 20.9646 10.2273 19.8063 10.2273 18C10.2273 16.1969 10.3768 14.9909 10.5285 14.0266C10.6342 13.3868 11.134 12.9526 11.8061 12.7902C12.9986 12.5243 15.4063 12.3125 17.9417 12.3125ZM16.5522 14.2915C15.8189 14.317 15.1364 14.9486 15.1364 15.8065V19.7568C15.1364 20.9007 16.3499 21.6426 17.2793 21.0813C17.2793 21.081 17.2793 21.0807 17.2793 21.0804L20.548 19.1057C21.4841 18.5401 21.4841 17.0224 20.548 16.4568L17.2793 14.4821C17.0469 14.3417 16.7966 14.283 16.5522 14.2915ZM16.557 15.5852C16.5939 15.5873 16.6341 15.5997 16.6752 15.6245L19.944 17.6001C20.1099 17.7004 20.1099 17.863 19.944 17.9633L16.6752 19.938C16.5107 20.0373 16.3636 19.9447 16.3636 19.7568V15.8065C16.3636 15.7126 16.4005 15.6426 16.4579 15.6083C16.4866 15.5911 16.5201 15.5831 16.557 15.5852Z" fill="#AFB3B9"/>
</svg>
