<svg width="131" height="131" viewBox="0 0 131 131" fill="none" xmlns="http://www.w3.org/2000/svg">
<rect x="0.423218" y="0.336426" width="130.043" height="130.043" rx="8" fill="#E26F1D"/>
<path fill-rule="evenodd" clip-rule="evenodd" d="M63.9458 48.6048C63.9371 48.5829 63.9015 48.5053 63.8922 48.4887L63.7335 48.3989C63.7275 48.3587 63.6668 48.4036 63.6367 48.4174L64.4711 48.2978C64.4985 48.2132 64.5811 48.2081 64.6298 48.1558C64.1428 48.8227 64.7962 48.8888 64.881 48.94C64.8 48.9584 64.7185 48.9699 64.6736 48.9883C64.6495 48.9986 64.5735 49.0257 64.5461 49.0389L63.8867 49.4638C64.0689 49.2287 64.2944 49.8881 63.9869 48.7497C63.9792 48.7204 63.9568 48.6301 63.9458 48.6048ZM81.2734 32.7592C81.3079 32.7419 81.4627 33.5848 81.4211 32.2894C81.4195 32.2331 81.2991 31.7961 81.2734 31.7133C82.8789 31.3816 81.4671 31.7283 81.9109 31.2091L82.3881 30.7353C82.7481 30.1598 82.4045 30.4731 82.6146 29.6653L83.0141 29.1012C83.2067 30.1379 82.8926 29.3416 83.4567 29.6532L83.7987 29.7268C83.8047 29.7297 83.8425 29.736 83.848 29.74C84.5353 30.3506 83.3057 28.8074 83.9448 30.0057C84.6491 31.3252 84.4586 30.4351 84.5057 30.4093H82.5183V31.9749C81.506 32.5614 81.5738 31.726 81.274 32.7592H81.2734ZM83.5098 23.8816L82.6195 24.2261C82.0034 24.4629 81.7736 24.433 81.0223 24.4238C79.7117 24.4077 79.3746 24.0846 78.5423 23.6218C78.7229 22.7564 78.6896 22.6771 79.3752 22.4051C80.4679 21.9727 81.5109 22.0055 82.608 22.4776C83.4907 22.8576 83.3604 23.0019 83.5104 23.8816H83.5098ZM28.3632 23.1003L27.9161 22.5253C28.1235 18.1756 33.4811 17.0447 30.4031 21.5887L29.5823 22.5178C29.1314 22.9036 28.9947 22.9565 28.3626 23.1003H28.3632ZM27.8658 30.9296C29.3596 30.4875 28.7769 30.6439 29.1074 30.146C29.1013 30.1615 28.471 30.1603 29.3213 30.7226C29.9867 31.1625 30.5432 30.9452 31.097 31.193C29.6316 32.3216 31.3662 29.9039 30.6942 31.7012C30.5295 32.1434 30.6149 32.2463 30.6001 32.7569C31.4734 32.4843 32.1005 32.4085 32.5848 31.7128L32.3391 33.279C35.9473 32.8081 34.2062 33.9005 34.8201 32.497C34.4633 32.6885 34.6499 33.4819 34.8229 33.8028C35.7268 33.8028 37.1063 33.5389 37.8587 33.0783L38.5482 32.497C39.0204 32.7776 39.1162 32.8466 39.3334 33.0156L64.0914 51.8545C64.6238 52.2783 65.2536 52.7406 65.8725 53.1172C65.7275 53.3454 65.7029 53.4397 65.466 53.7146C64.5527 54.7748 66.1768 53.1045 65.206 54.0015C64.7458 54.4281 65.3456 53.9509 64.6315 54.4224C64.9992 56.5394 64.9106 56.2163 66.3688 56.2479L66.6184 56.7729C66.1647 56.7136 66.5828 56.3474 65.6214 56.6297C65.553 56.6492 65.4545 56.7182 65.3762 56.7717C65.7478 57.6221 65.0982 57.0598 65.8435 57.453C66.5417 57.821 66.2337 57.4714 66.3705 57.2949C66.3705 57.2949 65.5715 57.3156 65.4988 58.8036C65.4955 58.8646 65.6153 59.1129 65.6252 59.1221C65.583 59.0324 66.6331 59.2947 65.4884 58.9986L63.5119 59.2308C63.49 59.2653 63.4391 59.3504 63.4123 59.3936L62.1997 60.9431C61.0867 61.7141 61.345 61.3456 61.1529 62.7738L62.6878 62.4656C63.3735 62.185 62.9445 62.3776 63.3866 61.9918C63.5562 62.5398 64.2665 62.2523 64.6315 62.2529C64.8066 63.2608 64.6583 62.6922 64.8799 63.2965C64.9521 63.2539 65.3056 63.0009 65.3554 62.9808C65.3937 62.9653 65.4731 62.8974 65.5212 62.8848L66.6167 63.0354C66.2107 61.5077 66.5516 62.7881 66.556 61.8032L66.4383 61.1357C66.5735 59.8593 66.0038 62.3282 66.5664 60.7764C66.5877 60.7183 66.7026 60.4785 66.753 60.2761C66.7617 60.2388 66.7765 60.1525 66.782 60.118C66.7913 60.0628 66.7973 59.9213 66.7929 59.8817C66.7366 59.309 67.1026 59.9018 66.6189 59.6431C66.6381 60.133 66.597 60.693 67.1562 61.1771L67.4944 61.3962C68.2288 61.7613 67.6017 61.4635 68.6041 61.7297C68.7272 61.011 68.9538 62.0436 68.602 61.0017C68.5379 60.812 68.4925 60.7068 68.3568 60.9466C69.113 60.9655 69.2553 61.0236 69.6006 61.4692C69.6969 61.3956 69.8255 61.1679 69.8824 61.2409C69.9962 61.3847 70.11 60.8189 70.6331 60.5395C70.6736 60.5182 71.2203 60.5619 71.2772 60.5492C72.115 60.3721 73.2849 58.86 72.3333 59.6414C72.5204 59.8058 72.9379 59.8529 73.0775 59.9024C74.5429 58.7381 74.8925 58.55 76.7251 57.7301C80.1407 56.2001 85.5476 57.012 88.6808 59.4821L89.8715 60.5245C90.6672 61.1507 91.8097 62.9814 92.2891 63.9893C93.7692 67.1022 93.9202 71.0908 92.7044 74.0099C92.6283 74.1927 92.3252 74.8511 92.2907 74.9206C92.0915 75.326 91.9783 75.5238 91.7621 75.8797C88.1988 81.7628 80.272 83.8396 73.8189 79.4853C69.31 76.442 67.2159 69.7517 69.431 64.9472C69.907 63.9146 70.1565 63.7697 70.3453 62.5156C68.6933 60.9316 69.6526 61.5658 68.359 61.2105C68.0717 61.9964 67.9814 62.7083 66.15 62.9112C66.0695 62.9204 65.4594 63.0211 65.3784 63.0372C65.4424 65.2635 66.4444 64.1457 65.8753 64.8638C66.5784 64.3279 65.6471 64.3809 65.3762 64.5999C65.4019 64.5091 65.4583 64.2894 65.4588 64.3274C65.4588 64.3302 65.658 64.1968 65.3762 63.2976L62.6462 64.0807C62.6402 64.1014 61.7072 64.2578 62.8947 65.3836C62.8399 65.3129 63.0933 64.6562 62.3442 65.2623C62.0082 65.5348 61.9562 66.2863 61.8977 66.4306C61.6274 65.9258 62.0449 65.8062 60.6561 65.6475L60.7787 65.7119C60.7956 65.7222 60.9012 65.805 60.9428 65.8205C60.962 65.8274 61.0167 65.8689 61.0413 65.8746L61.8534 65.4883C61.8512 65.4687 61.8326 65.3727 61.8298 65.3514C61.71 64.2193 61.8632 66.3156 61.8243 65.122L61.6498 64.5999C62.7272 63.6639 62.5275 63.381 62.6435 62.5151L61.0867 62.6461C61.0616 62.6433 61.003 62.61 60.9784 62.6059C60.9445 62.5996 60.8635 62.5731 60.829 62.5668C60.2413 62.457 60.0482 62.5702 59.9119 63.2981C59.1108 65.4629 58.7825 70.8918 59.4139 73.478C60.7004 78.7488 61.7516 81.1056 65.4835 84.8964C65.5223 84.9349 65.5759 84.9878 65.6126 85.0263L65.9546 85.419C66.1828 85.6795 66.3015 85.8365 66.5516 86.0751L69.1032 87.8328C69.0041 89.0787 67.7604 90.9106 66.8684 91.7477C66.8684 93.2657 66.7634 92.0019 67.3642 92.5297C68.2096 92.16 67.5519 93.0103 68.11 92.0076C69.3899 92.4865 67.2531 92.2738 69.1048 92.5314C68.7886 93.525 68.9024 93.4749 69.3516 94.0965C69.3379 94.0695 69.2985 93.9953 69.2936 94.0286L69.0835 94.1758C68.6123 94.9445 69.3587 94.9503 68.8564 94.6208C68.4504 95.1285 68.6047 94.8428 67.8627 95.1429C68.5795 96.0577 67.7171 95.6414 68.8657 95.9071L70.3459 94.8796C70.7869 95.067 70.3519 94.8571 70.8438 95.1418C70.545 95.8369 70.8936 94.925 70.5363 95.5897C70.1806 96.252 70.4071 95.5977 70.0985 96.7069C72.1653 96.6741 71.5185 96.6861 71.3407 96.4469C71.3407 97.6895 71.1853 96.3964 71.8359 96.9679L73.6247 93.8889C74.3054 92.8838 74.8318 91.9231 75.3133 90.9657C76.2622 90.9657 76.7837 91.117 77.7347 91.2935C83.7856 92.4153 90.207 90.3919 95.0278 86.5713L96.4943 85.3437C96.9485 84.8734 97.4836 84.3145 97.8546 83.8505C100.097 81.0504 101.67 78.079 102.591 74.2612C103.807 69.2175 103.014 64.1014 100.985 59.8673C100.135 58.0964 99.8059 57.6416 98.7657 56.1375L94.5906 51.9166C91.993 49.9399 87.6898 47.6365 84.5057 47.6365V36.1515C89.6368 33.2985 90.9512 27.0497 86.1845 22.1153C84.1785 20.0391 80.5932 19.7171 78.0761 20.7826C75.6001 21.8313 73.9574 23.781 73.2701 26.6927C72.602 29.5187 73.5278 31.8007 74.8132 33.8442C75.3916 34.7658 76.857 35.8865 77.7992 36.1509C77.7992 38.2306 77.5503 39.4041 77.5508 41.6316C77.5514 43.6331 77.5508 45.6339 77.5508 47.6354L74.2277 48.3196C69.8725 49.6374 73.1705 51.0525 63.9913 43.8722L62.7146 42.8976C62.6769 42.8672 62.6232 42.8154 62.586 42.7832L62.0498 42.3158C62.0077 42.2813 61.9447 42.2416 61.9026 42.2077L52.5641 34.7325C52.5045 34.6859 52.1455 34.3996 52.1444 34.399L51.861 34.215C51.8221 34.1886 51.7554 34.157 51.7154 34.1305C50.7731 33.49 45.601 28.9926 43.3728 27.4689C42.8131 27.086 43.5271 27.7225 42.7731 27.0147C43.4779 24.3629 43.0024 21.5076 41.7356 19.5383L40.726 18.1998C40.21 17.6559 39.8899 17.2913 39.2513 16.8883C30.5777 11.4163 22.5213 20.8349 26.3714 28.8477C26.5815 29.2846 26.6247 29.4083 26.9186 29.805L27.8674 30.9279L27.8658 30.9296Z" fill="white"/>
<path fill-rule="evenodd" clip-rule="evenodd" d="M59.6841 110.289C58.738 109.971 58.7254 109.58 58.9388 109.767C58.0403 109.949 58.698 109.298 58.1935 110.55C57.1878 110.236 57.7432 110.457 57.1828 110.181L56.2077 109.507L56.8966 107.404C57.4734 106.52 57.9598 106.478 58.6148 106.898C59.747 107.624 58.6056 106.718 59.1774 108.238C59.3295 108.642 59.6058 108.723 59.6835 110.289H59.6841ZM67.3859 101.678C68.0256 102.508 67.8078 101.652 67.7843 103.751C67.7793 104.181 68.1738 104.165 67.0931 105.163C66.5706 105.646 65.4007 105.069 65.4001 105.069C65.4078 104.981 65.4422 104.755 65.4636 104.812L65.6469 104.447C66.3046 103.972 66.0184 104.381 66.1454 104.546C65.6868 102.892 66.4524 104.521 65.897 102.981C66.35 102.54 66.0464 102.585 66.8896 102.461L66.7424 102.523C66.7336 102.507 66.657 102.428 66.6669 102.389C66.6718 102.367 66.6778 102.278 66.6921 102.252C66.7101 102.219 66.7446 102.13 66.7736 102.094C67.2458 101.515 66.5394 102.124 67.3864 101.677L67.3859 101.678ZM67.9156 98.4455C68.9421 98.9711 67.0461 98.7813 68.2362 98.3432C68.2713 98.33 68.3533 98.2857 68.3949 98.2823C68.9438 98.2317 69.3126 98.3915 69.2655 99.3086C69.2103 100.375 68.6395 100.289 68.6275 100.303C68.5711 100.366 68.4157 101.071 67.6343 101.415L67.4428 100.92C67.3366 100.26 67.6168 100.415 67.6354 99.5891C66.2581 99.3977 67.1161 100.023 66.8901 98.5444L67.9156 98.4455ZM68.0458 97.4825C68.1033 97.4152 68.3085 97.2134 68.3533 97.1634C68.8343 96.6195 68.4655 97.6389 68.5191 96.8983C68.6231 95.458 68.2275 97.0714 68.5027 96.3492L69.1254 95.6742C69.2059 95.7288 69.8308 96.2428 69.3722 96.4573C70.7457 96.6102 69.602 96.4096 70.3659 96.7183C70.0639 97.9528 70.3676 97.8597 69.6223 98.8043L68.9914 98.4708C68.3386 98.0936 68.6444 98.0919 67.6354 98.0212L68.0458 97.4819V97.4825ZM56.4551 102.981C57.3842 102.987 57.1998 103.164 57.9473 103.244C58.9136 103.219 58.4835 102.782 59.6452 101.925C61.8214 100.321 61.9938 102.777 60.1218 104.484C59.0559 105.456 58.7117 105.331 57.6983 105.331V104.807C56.8589 105.103 56.8266 105.068 55.7131 105.068C56.0693 103.495 55.6222 104.889 55.8997 104.167C56.4748 102.67 54.5951 104.865 56.2094 103.764L55.9598 103.762C55.6545 103.949 55.8838 102.942 55.5472 104.616C54.9453 107.61 56.0157 110.334 58.2581 112.051C61.4006 114.455 65.6825 113.348 67.5194 110.673C68.1629 109.737 67.9867 109.989 67.8849 109.506C67.1719 109.109 66.9788 108.098 65.839 109.519C65.7853 109.586 65.7235 109.694 65.6496 109.766C65.3377 108.993 65.5987 109.202 64.8644 108.82C64.8195 108.797 64.7205 108.765 64.6554 108.723C64.6827 108.644 64.7391 108.449 64.7571 108.493C64.8409 108.695 65.4012 105.402 67.1123 106.411C67.4127 106.589 67.37 106.597 67.4789 106.882C68.0152 108.286 67.6409 107.045 67.3848 107.42L68.8776 106.376C68.8776 101.033 66.6028 105.489 70.5689 99.0165C70.975 98.3541 71.329 97.4054 71.8576 96.9765C71.207 96.405 71.3624 97.6981 71.3624 96.4556C71.5402 96.6947 72.1876 96.6827 70.1203 96.7155C70.4289 95.6064 70.2023 96.2606 70.558 95.5983C70.9153 94.9336 70.5668 95.8455 70.8655 95.1504C70.3736 94.8657 70.8086 95.0756 70.3676 94.8882L68.8874 95.9157C67.7388 95.65 68.6012 96.0663 67.8844 95.1515C68.6264 94.8514 68.4721 95.1372 68.8781 94.6295C69.3804 94.9589 68.634 94.9532 69.1052 94.1844L69.3153 94.0373C69.3202 94.0039 69.3596 94.0781 69.3733 94.1051C68.9241 93.4835 68.8102 93.5336 69.1265 92.54C67.2754 92.2824 69.4116 92.4952 68.1317 92.0162C67.5736 93.019 68.2313 92.1686 67.3859 92.5383C66.7851 92.0105 66.8901 93.2743 66.8901 91.7563C66.75 92.7556 62.9634 97.8942 62.6663 99.0654C60.4748 99.0654 57.6808 100.204 56.6707 101.921C56.0573 102.964 56.2854 102.182 56.4545 102.98L56.4551 102.981Z" fill="white"/>
<path fill-rule="evenodd" clip-rule="evenodd" d="M59.9358 63.3248C60.072 62.5969 60.2652 62.4836 60.8529 62.5935C60.8874 62.5998 60.9684 62.6262 61.0023 62.6325C61.0269 62.6366 61.0855 62.6699 61.1106 62.6728L62.6674 62.5417C62.5514 63.4082 62.7511 63.6911 61.6737 64.6266L61.8483 65.1487C61.8871 66.3423 61.7339 64.2459 61.8537 65.378C61.8565 65.3993 61.8751 65.4953 61.8772 65.5149L61.0652 65.9013C61.0406 65.8955 60.9859 65.8541 60.9667 65.8472C60.9251 65.8317 60.8195 65.7489 60.8025 65.7386L60.68 65.6742C62.0688 65.8328 61.6513 65.9524 61.9216 66.4573C61.9801 66.313 62.0321 65.5615 62.3681 65.2889C63.1172 64.6829 62.8639 65.3395 62.9186 65.4103C61.7312 64.2845 62.6641 64.1281 62.6701 64.1074L65.4001 63.3242C65.6819 64.2235 65.4827 64.3569 65.4827 64.354C65.4822 64.3161 65.4258 64.5357 65.4001 64.6266C65.671 64.4075 66.6023 64.3546 65.8992 64.8905C66.4682 64.1718 65.4663 65.2901 65.4023 63.0638C65.4833 63.0477 66.0934 62.9471 66.1738 62.9379C68.0053 62.7343 68.0956 62.0225 68.3829 61.2371C69.677 61.5924 68.7172 60.9583 70.3692 62.5423C70.9005 62.5072 70.4683 62.6786 70.9717 62.1398C71.2349 61.8587 71.3837 61.6108 71.6694 61.298C72.146 60.7754 72.5263 60.2499 73.1019 59.9291C72.9624 59.8796 72.5449 59.8325 72.3577 59.668C73.3099 58.8861 72.1394 60.3988 71.3016 60.5759C71.2447 60.5885 70.6981 60.5449 70.6576 60.5661C70.1345 60.8456 70.0207 61.4113 69.9068 61.2676C69.8499 61.1946 69.7214 61.4223 69.625 61.4958C69.2798 61.0502 69.1375 60.9922 68.3812 60.9732C68.5169 60.7334 68.5624 60.8387 68.6264 61.0284C68.9783 62.0703 68.7517 61.0376 68.6286 61.7563C67.6261 61.4901 68.2532 61.7879 67.5189 61.4228L67.1807 61.2038C66.6214 60.7196 66.6625 60.1596 66.6433 59.6698C67.1271 59.9285 66.761 59.3357 66.8174 59.9083C66.8217 59.948 66.8157 60.0895 66.8064 60.1447C66.8009 60.1792 66.7862 60.2654 66.7774 60.3028C66.7271 60.5052 66.6122 60.7449 66.5908 60.803C66.0283 62.3549 66.5979 59.8859 66.4628 61.1624L66.5804 61.8299C66.576 62.8148 66.2351 61.5344 66.6412 63.0621L65.5457 62.9114C65.4975 62.9241 65.4182 62.9919 65.3799 63.0074C65.3301 63.0276 64.9766 63.2806 64.9044 63.3231C64.6827 62.7188 64.831 63.2875 64.6559 62.2795C64.291 62.279 63.5807 62.5664 63.4111 62.0185C62.9689 62.4043 63.3979 62.2117 62.7123 62.4923L61.1774 62.8004C61.3694 61.3716 61.1112 61.7402 62.2242 60.9697L63.4368 59.4202C63.4636 59.377 63.5145 59.2919 63.5364 59.2574L65.5128 59.0252C66.6576 59.3213 65.6075 59.0591 65.6496 59.1488C65.6398 59.1396 65.5199 58.8912 65.5232 58.8303C65.596 57.3422 66.3949 57.3215 66.3949 57.3215C66.2581 57.498 66.5662 57.8476 65.868 57.4796C65.1227 57.0864 65.7722 57.6487 65.4007 56.7983C65.4789 56.7449 65.5774 56.6759 65.6458 56.6563C66.6072 56.374 66.1892 56.7402 66.6428 56.7994L66.3933 56.2745C64.9345 56.2429 65.0231 56.566 64.6559 54.449C64.5427 55.2574 63.8296 55.6972 63.4083 56.2716C62.9 56.9639 62.4534 57.6199 61.9675 58.4117C61.3306 59.4501 60.1196 61.9673 59.9347 63.3248H59.9358Z" fill="white"/>
<path fill-rule="evenodd" clip-rule="evenodd" d="M67.8688 109.451C68.9397 108.98 67.9181 109.639 68.3728 108.992C68.6251 108.635 68.5129 109.003 68.7055 108.244C68.8193 107.795 68.8615 107.115 68.8615 106.321L67.3687 107.365C67.6248 106.99 67.9991 108.231 67.4628 106.827C67.3539 106.542 67.3966 106.534 67.0962 106.356C65.3851 105.347 64.8248 108.64 64.7411 108.438C64.723 108.394 64.6666 108.589 64.6393 108.668C64.7044 108.71 64.8034 108.742 64.8483 108.765C65.5826 109.146 65.3216 108.938 65.6335 109.711C65.7074 109.639 65.7692 109.531 65.8229 109.464C66.9632 108.043 67.1564 109.054 67.8688 109.451Z" fill="white"/>
<path fill-rule="evenodd" clip-rule="evenodd" d="M59.6715 110.311C59.5938 108.745 59.3174 108.664 59.1653 108.26C58.5935 106.74 59.735 107.646 58.6028 106.92C57.9473 106.5 57.4608 106.543 56.8846 107.426L56.1957 109.529L57.1708 110.203C57.7311 110.479 57.1757 110.258 58.1815 110.572C58.686 109.32 58.0283 109.971 58.9268 109.789C58.7133 109.602 58.7259 109.993 59.672 110.311H59.6715Z" fill="white"/>
<path fill-rule="evenodd" clip-rule="evenodd" d="M27.8751 30.9171C27.9096 31.4397 29.6448 32.5586 30.6067 33.0083C32.0907 33.7028 32.6779 33.7896 34.8327 33.7896C34.6598 33.4688 34.4732 32.6753 34.83 32.4839C34.2161 33.8874 35.9572 32.7949 32.349 33.2658L32.5947 31.6996C32.1099 32.3953 31.4828 32.4712 30.61 32.7438C30.6248 32.2332 30.5394 32.1303 30.7041 31.6881C31.3761 29.8913 29.6415 32.3085 31.1069 31.1798C30.5526 30.932 29.9961 31.1494 29.3312 30.7095C28.4809 30.1472 29.1112 30.1483 29.1173 30.1328C28.7868 30.6307 29.3695 30.4743 27.8757 30.9165L27.8751 30.9171Z" fill="white"/>
<path fill-rule="evenodd" clip-rule="evenodd" d="M67.7839 103.722C67.8075 101.622 68.0253 102.479 67.3856 101.649C66.5385 102.096 67.2449 101.487 66.7727 102.065C66.7437 102.101 66.7092 102.19 66.6912 102.224C66.677 102.25 66.6709 102.339 66.666 102.36C66.6562 102.399 66.7328 102.478 66.7415 102.495L66.8887 102.432C66.0455 102.557 66.3492 102.511 65.8961 102.953C66.4515 104.493 65.686 102.863 66.1445 104.517C66.0176 104.352 66.3038 103.944 65.646 104.418L65.4627 104.784C65.4414 104.726 65.4069 104.952 65.3992 105.04C65.3998 105.04 66.5703 105.618 67.0923 105.135C68.173 104.137 67.7785 104.152 67.7834 103.722L67.7839 103.722Z" fill="white"/>
<path fill-rule="evenodd" clip-rule="evenodd" d="M66.8881 98.5218C67.1141 100.001 66.2561 99.375 67.6334 99.5665C67.6148 100.393 67.3347 100.238 67.4408 100.898L67.6323 101.393C68.4137 101.048 68.5691 100.343 68.6255 100.28C68.6375 100.267 69.2083 100.352 69.2635 99.2859C69.3106 98.3688 68.9418 98.209 68.3929 98.2596C68.3514 98.263 68.2693 98.3073 68.2343 98.3205C67.0441 98.7587 68.9402 98.9484 67.9136 98.4229L66.8881 98.5218Z" fill="white"/>
<path fill-rule="evenodd" clip-rule="evenodd" d="M67.6164 98.0253C68.6254 98.096 68.3196 98.0977 68.9724 98.4749L69.6033 98.8084C70.3486 97.8631 70.0449 97.9563 70.3469 96.7224C69.583 96.4136 70.7267 96.6143 69.3532 96.4613C69.8118 96.2469 69.1869 95.7328 69.1064 95.6782L68.4837 96.3533C68.2085 97.0754 68.6041 95.462 68.5001 96.9023C68.4465 97.6429 68.8153 96.6235 68.3343 97.1674C68.2895 97.2174 68.0842 97.4192 68.0268 97.4865L67.6164 98.0258V98.0253Z" fill="white"/>
<path fill-rule="evenodd" clip-rule="evenodd" d="M55.9335 103.773L56.1831 103.775C54.5694 104.876 56.4485 102.681 55.8734 104.178C55.5959 104.9 56.043 103.506 55.6868 105.079C56.8009 105.079 56.8331 105.114 57.672 104.818L57.921 103.254C57.1735 103.175 57.3579 102.998 56.4288 102.992C55.7825 103.198 55.933 102.523 55.933 103.773H55.9335Z" fill="white"/>
<path fill-rule="evenodd" clip-rule="evenodd" d="M81.2966 31.7283C81.3223 31.8111 81.4427 32.2481 81.4444 32.3044C81.486 33.5998 81.3311 32.7569 81.2966 32.7742C81.5965 31.741 81.5286 32.5764 82.541 31.9899V30.4243H84.5284C84.4813 30.4501 84.6717 31.3402 83.9675 30.0207C83.3284 28.8224 84.5579 30.3656 83.8706 29.755C83.8652 29.751 83.8274 29.7447 83.8214 29.7418L83.4794 29.6682C82.9152 29.3566 83.2293 30.1529 83.0367 29.1162L82.6373 29.6803C82.4271 30.4881 82.7708 30.1748 82.4107 30.7503L81.9336 31.2241C81.4898 31.7433 82.9021 31.3966 81.2961 31.7283H81.2966Z" fill="white"/>
<path fill-rule="evenodd" clip-rule="evenodd" d="M63.6464 48.4478C63.6767 48.434 63.7379 48.3893 63.7439 48.4294L63.9037 48.5189C63.9131 48.5356 63.9489 48.613 63.9577 48.6348C63.9687 48.66 63.9913 48.7501 63.999 48.7794C64.3086 49.9153 64.0816 49.2573 63.8982 49.4919L64.562 49.0679C64.5896 49.0547 64.6662 49.0278 64.6904 49.0174C64.7356 48.9991 64.8177 48.9876 64.8992 48.9693C64.8138 48.9182 64.156 48.8523 64.6463 48.1868C64.5973 48.239 64.5141 48.2441 64.4865 48.3285L63.6464 48.4478Z" fill="white"/>
</svg>
