<svg width="120" height="62" viewBox="0 0 120 62" fill="none" xmlns="http://www.w3.org/2000/svg">
<rect x="0.560425" y="-0.00152588" width="119.24" height="61.2992" rx="10" fill="#D9D9D9" fill-opacity="0.08"/>
<path fill-rule="evenodd" clip-rule="evenodd" d="M55.9014 26.7172C55.9005 26.458 55.6922 26.2366 55.4263 26.249C54.163 26.3406 53.1589 26.7848 52.4158 27.5826C51.5762 28.484 51.1563 29.7364 51.1563 31.3403V35.879C51.1563 36.1383 51.3682 36.3486 51.6295 36.3486H52C52.2615 36.3486 52.4735 36.1383 52.4735 35.879L52.4722 31.3403C52.4722 30.1096 52.7665 29.1679 53.3559 28.5151C53.8531 27.9638 54.545 27.6483 55.4263 27.5626C55.6922 27.5396 55.9014 27.37 55.9014 27.0846V26.7172Z" fill="#AEAEAE"/>
<path fill-rule="evenodd" clip-rule="evenodd" d="M57.4825 30.6674C57.5824 29.6529 57.9546 28.8404 58.5995 28.3086C59.244 27.7768 60.1358 27.511 61.2746 27.511C62.4135 27.511 63.3055 27.7768 63.9501 28.3086C64.5946 28.8404 64.9621 29.6529 65.0745 30.6674H57.4825ZM61.2005 35.193C59.95 35.193 58.9998 34.8687 58.3498 34.2199C57.8227 33.6942 57.5131 32.9683 57.4132 32.0493H65.619C65.8737 32.0493 66.0128 31.997 66.1472 31.8757C66.3508 31.6921 66.3397 31.3463 66.3397 31.3463C66.3397 29.7372 65.8891 28.5097 64.989 27.6054C64.0887 26.701 62.8259 26.2485 61.2005 26.2485C59.5539 26.2485 58.3365 26.6984 57.412 27.6054C55.9361 29.0531 56.0616 31.3985 56.0616 31.4006C56.0591 33.0258 56.5118 34.2506 57.4097 35.1584C58.8709 36.6359 61.1893 36.5034 61.192 36.5034C62.8171 36.5034 64.093 36.0537 64.9933 35.1554C65.4817 34.668 65.7365 34.3403 65.9599 33.6398C66.1176 33.1435 65.6319 33.1771 65.6319 33.1771L65.022 33.1773C64.7463 33.1749 64.6461 33.3614 64.5046 33.6347C63.8025 34.8608 62.4509 35.193 61.2005 35.193Z" fill="#AEAEAE"/>
<path fill-rule="evenodd" clip-rule="evenodd" d="M75.3369 34.1088C74.6921 34.7605 73.7492 35.0861 72.5086 35.0861C71.2803 35.0861 70.3408 34.7605 69.6895 34.1088C69.0381 33.457 68.7125 32.4972 68.7125 31.2683C68.7125 30.0269 69.0381 29.1245 69.6895 28.4791C70.3408 27.8337 71.2803 27.5111 72.5086 27.5111C73.7492 27.5111 74.6921 27.8337 75.3369 28.4791C75.9823 29.1245 76.3047 30.0269 76.3047 31.2683C76.3047 32.4972 75.9823 33.457 75.3369 34.1088ZM77.2549 22.3032H76.8845C76.6233 22.3032 76.4112 22.5129 76.4112 22.7714C76.4112 22.7749 76.4126 27.8274 76.4126 27.8274C75.9919 27.2789 75.3808 26.8048 74.7355 26.563C74.0903 26.3212 73.4052 26.2005 72.5782 26.2005C70.9619 26.2005 69.7027 26.6467 68.8005 27.5391C67.8983 28.4312 67.4472 29.6424 67.4472 31.2538C67.4472 32.8525 67.8983 34.1177 68.8005 35.0102C69.7027 35.9024 70.9619 36.3487 72.5782 36.3487C74.2072 36.3487 75.4727 35.9024 76.3748 35.0102C77.2771 34.1177 77.7281 32.8525 77.7281 31.2943V22.812C77.7281 22.5129 77.5162 22.3032 77.2549 22.3032Z" fill="#AEAEAE"/>
<path fill-rule="evenodd" clip-rule="evenodd" d="M41.5075 31.3775C41.5075 32.9861 41.9544 34.242 42.8485 35.1463C43.7427 36.0502 44.997 36.5064 46.6112 36.5064C48.0949 36.5064 49.0647 36.0898 49.5527 35.7635C49.9301 35.5334 49.889 35.2657 49.889 34.9664V34.7281C49.889 34.1163 49.3899 34.3685 49.1155 34.5195C48.5145 34.8397 47.9111 35.1931 46.6112 35.1931C45.3693 35.1931 44.4254 34.8656 43.7799 34.2113C43.1341 33.5565 42.8113 32.612 42.8113 31.3775C42.8113 30.1429 43.1341 29.1984 43.7799 28.5438C44.4254 27.8893 45.3693 27.5619 46.6112 27.5619C47.4731 27.5619 48.1611 27.7197 48.762 28.0401C49.0304 28.17 49.5355 28.4243 49.5355 27.8528V27.5761C49.5355 27.2769 49.5781 27.0415 49.197 26.8237C48.4002 26.4235 47.7245 26.2485 46.6112 26.2485C44.997 26.2485 43.7427 26.7047 42.8485 27.6086C41.9544 28.5129 41.5075 29.769 41.5075 31.3775Z" fill="#AEAEAE"/>
<path fill-rule="evenodd" clip-rule="evenodd" d="M88.6421 35.6672C88.6421 35.3808 88.4314 35.2105 88.165 35.1874C87.2817 35.1014 86.5884 34.7847 86.09 34.2313C85.4993 33.5762 85.2044 32.6307 85.2044 31.3952L85.2054 27.6794H87.3787C87.6407 27.6794 87.8531 27.4683 87.8531 27.2081V26.839C87.8531 26.5788 87.6407 26.3678 87.3787 26.3678H85.2055V23.2479C85.2055 22.9877 84.9934 22.7767 84.7312 22.7767H84.3608C84.099 22.7767 83.8858 22.9877 83.8858 23.2479V26.3678H82.9478C82.6858 26.3678 82.4734 26.5788 82.4734 26.839V27.2081C82.4734 27.4683 82.6858 27.6794 82.9478 27.6794H83.8858V31.3952C83.8858 33.0052 84.3065 34.2624 85.148 35.1674C85.8924 35.9683 86.8987 36.414 88.165 36.506C88.4314 36.5185 88.6412 36.2964 88.6421 36.0361V35.6672Z" fill="#AEAEAE"/>
<path fill-rule="evenodd" clip-rule="evenodd" d="M80.4369 22.3032H80.0811C79.8299 22.3032 79.6263 22.5205 79.6263 22.7885V24.0272C79.6263 24.2954 79.8299 24.5126 80.0811 24.5126H80.4369C80.6881 24.5126 80.8916 24.2954 80.8916 24.0272V22.7885C80.8916 22.5205 80.6881 22.3032 80.4369 22.3032Z" fill="#AEAEAE"/>
<path fill-rule="evenodd" clip-rule="evenodd" d="M80.4369 26.2485H80.0811C79.8299 26.2485 79.6263 26.458 79.6263 26.7162V35.7232C79.6263 35.9814 79.8299 36.1908 80.0811 36.1908H80.4369C80.6881 36.1908 80.8916 35.9814 80.8916 35.7232V26.7162C80.8916 26.458 80.6881 26.2485 80.4369 26.2485Z" fill="#AEAEAE"/>
<path fill-rule="evenodd" clip-rule="evenodd" d="M96.7081 32.9354C96.7081 34.5435 95.7018 35.0861 93.2138 35.0861C91.4321 35.0861 90.3816 34.4955 90.3816 33.228C90.3816 31.84 91.4686 31.2986 93.8947 31.2986H96.7081V32.9354ZM96.674 29.1311V30.1854H93.8423C90.574 30.1854 89.1164 31.1263 89.1164 33.2363C89.1164 35.1852 90.648 36.3486 93.2138 36.3486C96.5581 36.3486 97.9739 35.3506 97.9739 33.0118V29.1311C97.9739 27.6884 96.9898 27.043 96.9898 27.043C96.4986 26.6636 95.8716 26.4265 95.1089 26.3315C94.6391 26.2708 94.2471 26.2485 93.7637 26.2485C93.305 26.2485 92.913 26.2669 92.4701 26.32C91.6606 26.4044 90.9948 26.644 90.4773 27.043C89.8261 27.5462 89.4996 28.2506 89.4951 29.1311C89.4951 29.1311 89.5103 29.537 89.9547 29.537H90.3154C90.5699 29.537 90.7764 29.3725 90.7764 29.1184C90.7764 28.1808 91.5638 27.8769 91.5638 27.8769C91.7932 27.7659 92.6503 27.5065 93.7574 27.5065C94.9097 27.5065 95.6748 27.7657 95.9041 27.8768C95.9041 27.8768 96.674 28.1686 96.674 29.1311Z" fill="#AEAEAE"/>
<path fill-rule="evenodd" clip-rule="evenodd" d="M103.532 31.7891C105.934 31.7891 106.799 31.935 106.799 33.3148C106.799 34.5743 105.574 35.1044 103.81 35.1044C102.395 35.1044 101.464 34.9265 100.928 34.4724C100.491 34.0777 100.522 33.4877 100.522 33.4877C100.522 33.2334 100.315 33.0688 100.06 33.0688H99.6993C99.2541 33.0688 99.239 33.4749 99.239 33.4749C99.239 34.9404 100.215 35.5861 100.215 35.5861C100.989 36.1081 102.167 36.3486 103.81 36.3486C106.378 36.3486 108.097 35.2408 108.097 33.2895C108.097 31.177 106.81 30.5294 103.538 30.5294C102.14 30.5294 101.468 30.173 101.468 30.173C100.651 29.8137 100.697 29.0545 100.697 29.0545C100.697 28.1671 101.468 27.8406 101.468 27.8406C101.697 27.7292 102.384 27.5083 103.538 27.5083C104.646 27.5083 105.426 27.7447 105.655 27.856C105.655 27.856 106.377 28.1698 106.43 28.872C106.448 29.1131 106.636 29.2628 106.891 29.2628H107.252C107.707 29.2628 107.698 28.8563 107.698 28.8563C107.698 28.275 107.395 27.5477 106.744 27.044C106.225 26.6445 105.572 26.4171 104.827 26.3202C104.384 26.2625 103.99 26.2485 103.532 26.2485C103.048 26.2485 102.733 26.2708 102.264 26.3315C101.5 26.4267 100.838 26.6982 100.38 27.044C100.38 27.044 99.3954 27.6869 99.3954 29.0545C99.3954 29.0545 99.3279 30.2438 100.38 31.0221C100.38 31.0221 101.222 31.7891 103.532 31.7891Z" fill="#AEAEAE"/>
<path fill-rule="evenodd" clip-rule="evenodd" d="M36.9579 34.1369C36.9579 34.3922 36.8765 34.5863 36.8765 34.5863C35.5416 38.264 32.0481 40.7337 28.1774 40.7337C26.8669 40.7337 25.6197 40.4549 24.4885 39.9557C24.4885 39.9557 22.8901 40.7333 20.8077 40.7333C15.6913 40.7333 11.5437 36.532 11.5437 31.3493C11.5437 26.1667 15.6913 21.9654 20.8077 21.9654C22.9361 21.9654 24.4885 22.743 24.4885 22.743C25.6197 22.2437 26.8669 21.965 28.1774 21.965C32.0481 21.965 35.5416 24.4347 36.8765 28.1123C36.8765 28.1123 36.9579 28.3063 36.9579 28.5618C36.9579 28.7395 36.9185 28.9469 36.7847 29.1395C36.5596 29.4632 36.1669 29.6627 35.7198 29.6654H29.6741C28.6687 29.6654 28.2538 28.4884 28.2538 28.4884C27.5491 26.609 26.1858 25.1046 24.4906 24.2066C21.9527 25.5559 20.2163 28.2503 20.2158 31.3493C20.2163 34.4483 21.9527 37.1427 24.4906 38.4921C26.1858 37.594 27.5491 36.0897 28.2538 34.2102C28.2538 34.2102 28.6687 33.0333 29.6741 33.0333H35.7198C36.1669 33.036 36.5596 33.2355 36.7847 33.5591C36.9185 33.7517 36.9579 33.9592 36.9579 34.1369ZM29.4422 27.7135C28.7312 25.993 27.5413 24.5583 26.0661 23.5455C26.7606 23.3463 27.4926 23.2374 28.2492 23.2374C31.5209 23.2374 34.4808 25.2727 35.695 28.3272H30.1148C29.6772 28.3272 29.4422 27.7135 29.4422 27.7135ZM12.8065 31.2697C12.8074 26.8406 16.3715 23.2374 20.7523 23.2374C21.4931 23.2374 22.2176 23.3434 22.9091 23.5419C20.4666 25.2259 18.8593 28.0621 18.8581 31.2697C18.8593 34.4773 20.4666 37.3137 22.9091 38.9976C22.2176 39.1961 21.4931 39.3021 20.7523 39.3021C16.3715 39.3021 12.8074 35.6989 12.8065 31.2697ZM26.0661 39.1532C27.5413 38.1402 28.7312 36.7056 29.4422 34.985C29.4422 34.985 29.6772 34.3714 30.1148 34.3714H35.695C34.4808 37.4259 31.5209 39.4612 28.2492 39.4612C27.4926 39.4612 26.7606 39.3522 26.0661 39.1532Z" fill="#AEAEAE"/>
</svg>
