<svg width="36" height="36" viewBox="0 0 36 36" fill="none" xmlns="http://www.w3.org/2000/svg">
<circle cx="18" cy="17.9995" r="18" fill="#D9D9D9" fill-opacity="0.15"/>
<path d="M18 9.99951C13.5889 9.99951 10 13.5884 10 17.9995C10 19.3096 10.3451 20.5342 10.9047 21.6261L10.0375 24.7308C9.83552 25.4521 10.5488 26.1653 11.2703 25.9636L14.3773 25.0964C15.4683 25.6548 16.6911 25.9995 18 25.9995C22.4111 25.9995 26 22.4106 26 17.9995C26 13.5884 22.4111 9.99951 18 9.99951ZM18 11.1995C21.7625 11.1995 24.8 14.237 24.8 17.9995C24.8 21.762 21.7625 24.7995 18 24.7995C16.7994 24.7995 15.6762 24.4873 14.6969 23.9417C14.5588 23.8648 14.396 23.8454 14.2438 23.8878L11.2891 24.712L12.1141 21.7589C12.1567 21.6064 12.1373 21.4432 12.0602 21.305C11.5135 20.3249 11.2 19.2013 11.2 17.9995C11.2 14.237 14.2375 11.1995 18 11.1995ZM15.2961 14.4003C15.1685 14.4003 14.9623 14.4482 14.7867 14.6394C14.6115 14.8298 14.118 15.2915 14.118 16.2315C14.118 17.1715 14.8021 18.0793 14.8977 18.2073C14.9929 18.3341 16.2189 20.3253 18.1609 21.0909C19.7745 21.7269 20.1027 21.6003 20.4531 21.5683C20.8035 21.5371 21.5838 21.1068 21.743 20.6604C21.9022 20.214 21.9023 19.8322 21.8555 19.7534C21.8079 19.6738 21.6803 19.6256 21.4891 19.53C21.2983 19.4344 20.3596 18.9725 20.1844 18.9089C20.0092 18.8453 19.8811 18.813 19.7539 19.0042C19.6267 19.1954 19.2608 19.6254 19.1492 19.7526C19.0376 19.8806 18.9264 19.8967 18.7352 19.8011C18.5436 19.7047 17.9288 19.5034 17.1984 18.8526C16.6304 18.3466 16.2483 17.7212 16.1367 17.53C16.0255 17.3396 16.1247 17.2349 16.2203 17.1401C16.3063 17.0545 16.4114 16.9174 16.507 16.8058C16.6018 16.6942 16.6333 16.615 16.6969 16.4878C16.7605 16.361 16.7288 16.249 16.6813 16.1534C16.6337 16.0578 16.2622 15.1127 16.0922 14.7347C15.9494 14.4171 15.7989 14.4102 15.6625 14.405C15.5513 14.4006 15.4233 14.4003 15.2961 14.4003Z" fill="#AFB3B9"/>
</svg>
