<svg width="180" height="43" viewBox="0 0 180 43" fill="none" xmlns="http://www.w3.org/2000/svg">
<path d="M0.254949 26.1574C-0.325635 25.5343 0.0890676 24.6997 1.46136 22.7437C1.79312 22.3283 2.12488 22.2452 2.54335 22.4114C6.99199 24.7035 9.48774 24.7035 11.5236 24.7035C15.5575 24.7035 17.303 22.5813 15.222 19.9153C14.1814 18.5408 10.8563 17.9177 9.4425 17.457C5.07681 16.1656 2.53958 14.4134 1.71018 11.5397C-0.0353433 6.16622 3.53864 1.33648 10.6074 0.588791C13.0165 0.381101 15.7611 0.83802 17.9628 1.75563C20.123 2.8394 21.0806 3.79477 20.8317 4.5047C20.5 5.29392 19.5009 6.5023 18.9203 7.2953C18.4227 7.91837 16.8431 6.58915 14.9279 6.17C13.3068 5.83769 11.4783 5.377 9.10697 6.21153C6.61121 7.41991 6.11357 9.58367 8.02497 11.0413C10.0193 12.4573 12.5565 13.3334 14.0947 13.8734C15.6329 14.455 18.0872 15.2895 19.3313 16.8302C20.4547 17.9139 21.2842 20.1192 21.2842 21.8676C21.2842 26.4897 17.3746 29.4049 11.8063 29.488C7.27851 29.571 2.00047 27.7396 0.254949 26.1574Z" fill="white"/>
<path d="M27.7812 28.8644V1.25672C27.7812 0.841338 28.113 0.509033 28.5277 0.509033H38.2129C43.3251 0.509033 47.4005 4.63263 47.4005 9.7116C47.4005 14.8321 43.3251 18.9142 38.2129 18.9142H34.0583C33.4363 18.9142 33.0178 19.0803 33.0178 19.7487V28.8682C33.0178 29.2836 32.6861 29.6197 32.2676 29.6197H28.5277C28.113 29.6121 27.7812 29.2798 27.7812 28.8644ZM38.2129 13.5822C40.3317 13.5822 42.081 11.8754 42.081 9.70782C42.081 7.58561 40.3354 5.87499 38.2129 5.87499H34.0169C33.3119 5.87499 33.0178 6.16576 33.0178 6.70953V13.5822H38.2129Z" fill="white"/>
<path d="M53.4219 28.7395V1.29798C53.4219 0.882597 53.7536 0.550293 54.1683 0.550293H72.7923C73.207 0.550293 73.5425 0.882597 73.5425 1.29798V4.79473C73.5425 5.21011 73.2107 5.54241 72.7923 5.54241H59.3634C58.9487 5.54241 58.6132 5.87472 58.6132 6.2901V12.4113C58.6132 12.9513 58.5717 13.2043 59.5708 13.2043H69.9647C70.338 13.2043 70.6735 13.4951 70.6735 13.8689V17.4072C70.6735 17.781 70.3417 18.0756 69.9647 18.0756H59.5293C58.6584 18.0756 58.6132 18.8233 58.6132 19.031V23.4453C58.6132 23.8607 58.6961 24.446 59.7781 24.446H73.0826C73.4973 24.446 73.829 24.8198 73.829 25.239V28.7358C73.829 29.1511 73.4973 29.4834 73.0826 29.4834H54.1721C53.7536 29.4872 53.4219 29.1549 53.4219 28.7395Z" fill="white"/>
<path d="M80.3164 28.7395V1.29798C80.3164 0.882597 80.6482 0.550293 81.0629 0.550293H99.6868C100.101 0.550293 100.433 0.882597 100.433 1.29798V4.79473C100.433 5.21011 100.101 5.54241 99.6868 5.54241H86.258C85.8433 5.54241 85.5077 5.87472 85.5077 6.2901V12.4113C85.5077 12.9513 85.4663 13.2043 86.4653 13.2043H96.8593C97.2325 13.2043 97.5643 13.4951 97.5643 13.8689V17.4072C97.5643 17.781 97.2325 18.0756 96.8593 18.0756H86.4238C85.553 18.0756 85.5077 18.8233 85.5077 19.031V23.4453C85.5077 23.8607 85.5907 24.446 86.6727 24.446H99.9771C100.392 24.446 100.724 24.8198 100.724 25.239V28.7358C100.724 29.1511 100.392 29.4834 99.9771 29.4834H81.0591C80.6519 29.4872 80.3164 29.1549 80.3164 28.7395Z" fill="white"/>
<path d="M112.46 28.6574V25.036C112.46 24.496 112.875 24.1222 113.377 24.1222H116.743C121.772 24.1222 125.848 20.0401 125.848 15.0027C125.848 9.96524 121.772 5.88318 116.743 5.88318H113.377C113.086 5.88318 112.879 6.09087 112.879 6.38164V16.3848C112.879 16.8832 112.464 17.2571 111.963 17.2571H108.347C107.891 17.2571 107.473 16.8417 107.473 16.3848V1.38197C107.473 0.883512 107.887 0.464355 108.347 0.464355H116.747C124.77 0.464355 131.254 6.95939 131.254 14.9989C131.254 23.0346 124.77 29.5334 116.747 29.5334H113.38C112.875 29.5297 112.46 29.1558 112.46 28.6574Z" fill="white"/>
<path d="M137.773 28.8644V1.21512C137.773 0.799738 138.147 0.422119 138.565 0.422119H142.889C143.304 0.422119 143.64 0.795962 143.64 1.21512V28.8644C143.64 29.2797 143.308 29.6158 142.889 29.6158H138.565C138.147 29.612 137.773 29.2797 137.773 28.8644Z" fill="white"/>
<path d="M153.741 5.37666C156.527 2.00452 160.35 0.214613 164.301 0.00314674C164.798 -0.0383913 165.175 0.335451 165.217 0.879222V4.50058C165.217 5.04058 164.927 5.33134 164.342 5.37666C161.846 5.58435 159.479 6.83427 157.899 8.83187C154.491 12.9139 155.03 18.9936 159.023 22.3657C163.098 25.7794 169.085 25.2809 172.41 21.1989C174.906 18.2006 175.362 14.0355 173.616 10.5802C173.243 9.78724 173.326 9.24725 173.907 8.79033C174.363 8.5411 175.86 7.45734 176.403 7.0835C176.983 6.70965 177.692 6.91734 178.024 7.49888C181.1 12.9555 180.561 19.8243 176.568 24.6541C171.581 31.0245 161.601 31.9006 155.656 26.5686C149.375 21.2442 148.542 11.7055 153.741 5.37666Z" fill="white"/>
<path d="M171.842 40.4167C171.842 40.4167 171.009 40.7075 170.469 40.8736C169.972 41.0398 167.766 41.7082 165.855 41.8743C164.026 42.0405 161.282 42.2066 161.282 42.2066C159.993 42.2897 157.915 42.3312 156.667 42.2481C156.667 42.2481 154.379 42.1235 152.094 41.8743C149.81 41.5835 147.397 40.8321 147.397 40.8321L146.149 40.4167C145.61 40.2505 145.191 39.669 145.191 39.1252V37.0446C145.191 36.5046 145.648 36.1685 146.149 36.2969L147.397 36.6292C152.011 37.796 153.425 38.2114 156.667 38.2945C157.915 38.2945 159.993 38.2529 161.282 38.2114C161.282 38.2114 163.695 38.0453 165.855 37.796C168.015 37.5468 170.552 36.7538 170.552 36.7538L171.842 36.3384C172.339 36.2138 172.758 36.5046 172.758 37.0483V39.129C172.754 39.669 172.339 40.2505 171.842 40.4167Z" fill="white"/>
<path d="M171.607 15.0931C171.607 18.6692 168.712 21.5693 165.141 21.5693C161.571 21.5693 158.676 18.6692 158.676 15.0931C158.676 11.5171 161.571 8.61694 165.141 8.61694C168.712 8.61694 171.607 11.5171 171.607 15.0931Z" fill="#139FFF"/>
</svg>
