<svg width="131" height="131" viewBox="0 0 131 131" fill="none" xmlns="http://www.w3.org/2000/svg">
<rect x="0.0596313" y="0.957031" width="130.043" height="130.043" rx="8" fill="#00A0E0"/>
<path fill-rule="evenodd" clip-rule="evenodd" d="M56.022 34.4889C59.756 30.6018 64.9531 28.1947 70.6945 28.1947C78.3497 28.1947 84.9842 32.4475 88.5566 38.7844C91.7277 37.3668 95.1624 36.6349 98.636 36.6366C112.415 36.6366 123.6 47.9068 123.6 61.8138C123.6 75.7207 112.415 86.9909 98.636 86.9909C96.9518 86.9909 95.3102 86.8216 93.7026 86.5018C90.5767 92.0731 84.6014 95.8582 77.7968 95.8582C75.0264 95.8636 72.2915 95.2352 69.8014 94.0209C66.6329 101.463 59.2542 106.695 50.6633 106.695C41.6897 106.695 34.0771 101.038 31.1426 93.0853C29.8365 93.3609 28.5052 93.4995 27.1704 93.4986C16.4956 93.4986 7.86224 84.7377 7.86224 73.9779C7.86224 66.748 11.7494 60.4537 17.5163 57.0514C16.2929 54.233 15.6631 51.1928 15.6663 48.1203C15.6663 35.7019 25.7457 25.665 38.1641 25.665C45.4365 25.665 51.9435 29.1311 56.0262 34.5111" fill="white"/>
<path fill-rule="evenodd" clip-rule="evenodd" d="M24.7203 67.6612C24.6476 67.8509 24.7463 67.8904 24.7697 67.924C24.987 68.0814 25.2077 68.1954 25.4289 68.3234C26.6112 68.9486 27.7254 69.1314 28.8907 69.1314C31.2638 69.1314 32.7396 67.8683 32.7396 65.8354V65.7955C32.7396 63.9157 31.0725 63.231 29.5159 62.7419L29.3122 62.676C28.1341 62.2941 27.1177 61.9615 27.1177 61.1874V61.1479C27.1177 60.4844 27.7131 59.9954 28.6317 59.9954C29.6524 59.9954 30.8687 60.3352 31.647 60.7651C31.647 60.7651 31.8775 60.914 31.9613 60.6916C32.0068 60.5712 32.4036 59.5093 32.4461 59.3902C32.4912 59.2656 32.4121 59.1716 32.3309 59.1231C31.4378 58.5787 30.2044 58.2087 28.9286 58.2087L28.6917 58.2096C26.5185 58.2096 25.0002 59.5237 25.0002 61.4035V61.4439C25.0002 63.4257 26.6758 64.0722 28.2409 64.5187L28.4926 64.597C29.6324 64.9474 30.6191 65.2519 30.6191 66.0515V66.0915C30.6191 66.8272 29.9769 67.3758 28.9477 67.3758C28.5475 67.3758 27.2721 67.369 25.8899 66.4955C25.7227 66.3981 25.6275 66.3279 25.4986 66.2492C25.4306 66.208 25.2604 66.1336 25.1864 66.3564L24.7186 67.6578M59.4647 67.6578C59.392 67.8475 59.4907 67.887 59.5149 67.9206C59.7314 68.078 59.953 68.192 60.1741 68.32C61.3564 68.9451 62.4707 69.128 63.636 69.128C66.0091 69.128 67.4848 67.8649 67.4848 65.832V65.7921C67.4848 63.9123 65.822 63.2276 64.2612 62.7385L64.0574 62.6726C62.8794 62.2906 61.863 61.9581 61.863 61.184V61.1445C61.863 60.481 62.4584 59.992 63.377 59.992C64.3977 59.992 65.6097 60.3318 66.3923 60.7617C66.3923 60.7617 66.6228 60.9106 66.707 60.6882C66.7521 60.5678 67.1493 59.5059 67.1876 59.3868C67.2331 59.2622 67.1536 59.1682 67.0727 59.1197C66.1796 58.5753 64.9463 58.2053 63.6704 58.2053L63.4331 58.2062C61.2599 58.2062 59.7416 59.5203 59.7416 61.4001V61.4405C59.7416 63.4223 61.4173 64.0688 62.9823 64.5153L63.2337 64.5936C64.3777 64.944 65.3601 65.2485 65.3601 66.0481V66.0881C65.3601 66.8238 64.7179 67.3724 63.6887 67.3724C63.2877 67.3724 62.0088 67.3656 60.6309 66.4921C60.4638 66.3947 60.3659 66.3275 60.2392 66.2458C60.1962 66.2186 59.9959 66.1404 59.9275 66.353L59.4596 67.6544M83.1908 63.6737C83.1908 64.822 82.9764 65.7278 82.5571 66.37C82.1386 67.0037 81.5066 67.3142 80.6263 67.3142C79.7459 67.3142 79.1165 67.0063 78.704 66.3743C78.2885 65.7363 78.0788 64.8262 78.0788 63.6779C78.0788 62.5297 78.2897 61.628 78.704 60.9944C79.1157 60.3649 79.7417 60.063 80.6263 60.063C81.5109 60.063 82.1403 60.3679 82.5571 60.9944C82.979 61.628 83.1908 62.5297 83.1908 63.6779M85.1726 61.5472C84.9774 60.888 84.675 60.3097 84.271 59.8248C83.8666 59.34 83.3566 58.9487 82.7485 58.668C82.1446 58.3852 81.4301 58.2427 80.622 58.2427C79.814 58.2427 79.1037 58.3861 78.4956 58.668C77.8917 58.9504 77.3771 59.34 76.9731 59.8248C76.5699 60.3097 76.2671 60.888 76.0714 61.5472C75.8779 62.2022 75.7797 62.9167 75.7797 63.6779C75.7797 64.4392 75.8779 65.1537 76.0714 65.8086C76.2658 66.4678 76.569 67.0462 76.9731 67.5311C77.3775 68.0159 77.8917 68.4029 78.4956 68.6793C79.1037 68.9549 79.8182 69.0953 80.622 69.0953C81.4258 69.0953 82.1403 68.9549 82.7442 68.6793C83.3481 68.4038 83.8627 68.0159 84.2668 67.5311C84.6704 67.0462 84.9727 66.4678 85.1684 65.8086C85.3615 65.1537 85.4597 64.4392 85.4597 63.6779C85.4597 62.9209 85.3615 62.2022 85.1684 61.5472M101.457 66.9909C101.392 66.7983 101.204 66.871 101.204 66.871C100.916 66.9812 100.608 67.0832 100.281 67.1343C99.951 67.1862 99.5835 67.2121 99.1965 67.2121C98.2396 67.2121 97.4741 66.9267 96.9297 66.3615C96.3811 65.7959 96.0749 64.8858 96.0792 63.6524C96.0821 62.5297 96.3535 61.6876 96.8404 61.0411C97.321 60.4032 98.061 60.0715 99.0392 60.0715C99.8557 60.0715 100.481 60.1663 101.136 60.3713C101.136 60.3713 101.291 60.4389 101.366 60.2344C101.539 59.7538 101.668 59.4093 101.855 58.882C101.907 58.731 101.778 58.6672 101.731 58.6489C101.474 58.5485 100.867 58.3839 100.408 58.3146C99.9786 58.2491 99.4811 58.2151 98.9197 58.2151C98.0861 58.2151 97.3461 58.3576 96.7124 58.64C96.0787 58.9219 95.5429 59.3119 95.1176 59.7968C94.6923 60.2816 94.3691 60.86 94.1522 61.5192C93.9374 62.1741 93.829 62.8929 93.829 63.6541C93.829 65.2957 94.2713 66.6269 95.1474 67.6008C96.0235 68.579 97.3419 69.0723 99.06 69.0723C100.076 69.0723 101.118 68.8669 101.867 68.5705C101.867 68.5705 102.01 68.5016 101.948 68.3349L101.459 66.9909M104.925 62.5679C105.02 61.93 105.194 61.3984 105.469 60.9859C105.88 60.3564 106.507 60.012 107.387 60.012C108.268 60.012 108.85 60.3581 109.267 60.9859C109.543 61.4005 109.664 61.9513 109.709 62.5679L104.903 62.5671L104.925 62.5679ZM111.602 61.1645C111.433 60.5308 111.015 59.8886 110.743 59.5952C110.309 59.1316 109.888 58.8041 109.467 58.6255C108.859 58.367 108.205 58.2344 107.545 58.2355C106.707 58.2355 105.945 58.3771 105.329 58.6651C104.712 58.9551 104.193 59.3498 103.785 59.8431C103.377 60.3364 103.07 60.9191 102.875 61.5868C102.679 62.246 102.581 62.969 102.581 63.726C102.581 64.5 102.683 65.2188 102.885 65.8695C103.088 66.5244 103.416 67.0985 103.859 67.5749C104.301 68.0554 104.866 68.4297 105.547 68.6934C106.223 68.9549 107.044 69.0906 107.984 69.0876C109.923 69.0812 110.944 68.6496 111.361 68.4157C111.435 68.374 111.505 68.3021 111.418 68.095L110.98 66.8659C110.912 66.6826 110.727 66.749 110.727 66.749C110.246 66.9284 109.566 67.2508 107.971 67.2465C106.929 67.2448 106.159 66.9374 105.675 66.4555C105.181 65.9622 104.935 65.2434 104.896 64.2227L111.616 64.2278C111.616 64.2278 111.793 64.2261 111.811 64.0535C111.818 63.982 112.041 62.6755 111.611 61.1658L111.602 61.1645ZM51.2107 62.5679C51.3056 61.93 51.4808 61.3984 51.7551 60.9859C52.1668 60.3564 52.7928 60.012 53.6732 60.012C54.5535 60.012 55.1362 60.3581 55.5529 60.9859C55.829 61.4005 55.9497 61.9513 55.9952 62.5679L51.1895 62.5671L51.2107 62.5679ZM57.8878 61.1645C57.7194 60.5308 57.3009 59.8886 57.0287 59.5952C56.5949 59.1316 56.1739 58.8041 55.7528 58.6255C55.145 58.367 54.491 58.2344 53.8305 58.2355C52.9927 58.2355 52.2314 58.3771 51.6148 58.6651C50.9981 58.9551 50.4792 59.3498 50.071 59.8431C49.664 60.3364 49.3565 60.9191 49.1608 61.5868C48.9656 62.246 48.8674 62.969 48.8674 63.726C48.8674 64.5 48.969 65.2188 49.1719 65.8695C49.3752 66.5244 49.7035 67.0985 50.1416 67.5749C50.5839 68.0554 51.1495 68.4297 51.83 68.6934C52.5062 68.9549 53.3227 69.0906 54.2669 69.0876C56.2062 69.0812 57.2269 68.6496 57.6437 68.4157C57.7177 68.374 57.7883 68.3021 57.7002 68.095L57.2622 66.8659C57.1946 66.6826 57.0091 66.749 57.0091 66.749C56.5286 66.9284 55.8481 67.2508 54.2533 67.2465C53.2156 67.2448 52.4415 66.9374 51.9567 66.4555C51.4634 65.9622 51.2167 65.2434 51.1784 64.2227L57.898 64.2278C57.898 64.2278 58.0749 64.2261 58.0932 64.0535C58.1004 63.982 58.3233 62.6755 57.8925 61.1658L57.8878 61.1645ZM36.7084 66.9484C36.4451 66.7383 36.4086 66.6869 36.3214 66.5503C36.1883 66.3449 36.1202 66.0528 36.1202 65.6785C36.1202 65.0916 36.3158 64.6663 36.7199 64.3814C36.7156 64.3822 37.2983 63.8795 38.6677 63.8965C39.2772 63.9075 39.8853 63.9593 40.4879 64.0518V67.1011H40.4888C40.4888 67.1011 39.6382 67.2844 38.677 67.3422C37.3119 67.4243 36.708 66.9493 36.7122 66.9505L36.7084 66.9484ZM39.3792 62.2277C39.107 62.2077 38.754 62.1979 38.333 62.1979C37.7588 62.1979 37.2017 62.2694 36.6829 62.4097C36.1598 62.5509 35.6877 62.7695 35.2837 63.0604C34.8785 63.3494 34.5453 63.7278 34.3098 64.1662C34.072 64.6085 33.9508 65.1273 33.9508 65.7142C33.9508 66.3096 34.0542 66.8242 34.2583 67.2453C34.4583 67.6629 34.7595 68.024 35.1344 68.2957C35.5074 68.5671 35.968 68.7678 36.4996 68.8869C37.0269 69.0072 37.6223 69.0681 38.2773 69.0681C38.9662 69.0681 39.651 69.0102 40.3144 68.8984C40.8795 68.8009 41.4424 68.6914 42.0028 68.57C42.2265 68.5186 42.4749 68.451 42.4749 68.451C42.6407 68.4089 42.628 68.2315 42.628 68.2315L42.6242 62.1073C42.6242 60.7634 42.2652 59.764 41.5567 59.1473C40.8507 58.5307 39.8172 58.2202 38.4776 58.2202C37.9757 58.2202 37.1634 58.2883 36.6786 58.3856C36.6786 58.3856 35.2156 58.6697 34.6117 59.1427C34.6117 59.1427 34.479 59.2243 34.5513 59.4093L35.0276 60.6852C35.0868 60.8506 35.2479 60.7941 35.2479 60.7941C35.2479 60.7941 35.2985 60.7741 35.3581 60.7388C36.6467 60.037 38.2798 60.0583 38.2798 60.0583C39.0028 60.0583 39.5642 60.205 39.9385 60.4921C40.3046 60.7732 40.4913 61.1981 40.4913 62.0912V62.3749C39.9172 62.2915 39.3856 62.2434 39.3856 62.2434L39.3792 62.2277ZM93.3909 58.7701C93.4006 58.7477 93.4056 58.7235 93.4058 58.6991C93.4059 58.6747 93.4012 58.6505 93.3917 58.6279C93.3823 58.6054 93.3685 58.585 93.351 58.5679C93.3336 58.5508 93.3129 58.5374 93.2901 58.5285C93.1757 58.4852 92.6054 58.3648 92.1674 58.3376C91.3253 58.2849 90.8575 58.4269 90.4364 58.6157C90.0205 58.8033 89.5603 59.1048 89.3052 59.4535L89.3043 58.637C89.3043 58.5247 89.2248 58.4341 89.1117 58.4341H87.3935C87.2821 58.4341 87.2013 58.5247 87.2013 58.637V68.6313C87.2014 68.6853 87.2229 68.737 87.261 68.7752C87.2992 68.8134 87.351 68.8349 87.405 68.835H89.1657C89.2196 68.8349 89.2713 68.8134 89.3094 68.7752C89.3475 68.737 89.3689 68.6852 89.3689 68.6313V63.6129C89.3689 62.9409 89.443 62.2732 89.5905 61.8522C89.736 61.4358 89.9337 61.1037 90.1774 60.8655C90.4099 60.6355 90.6944 60.4648 91.0067 60.3679C91.2999 60.2838 91.6034 60.2411 91.9084 60.2412C92.2592 60.2412 92.6441 60.3313 92.6441 60.3313C92.7734 60.3458 92.8453 60.2667 92.8891 60.1502C93.0043 59.8435 93.3314 58.9253 93.3952 58.7425" fill="#00A0E0"/>
<path fill-rule="evenodd" clip-rule="evenodd" d="M76.9467 54.1575C76.7291 54.0917 76.5077 54.0391 76.2837 54.0001C75.9824 53.9498 75.6773 53.9262 75.3719 53.9295C74.1585 53.9295 73.2021 54.2723 72.5305 54.9493C71.8637 55.6213 71.4099 56.645 71.1824 57.9919L71.1003 58.4465H69.5773C69.5773 58.4465 69.3915 58.4388 69.3523 58.6417L69.1023 60.0367C69.0848 60.1702 69.1423 60.2536 69.3209 60.2527H70.8034L69.2992 68.6492C69.1814 69.3254 69.0466 69.8817 68.8973 70.3031C68.7501 70.7191 68.6064 71.0308 68.4295 71.2571C68.2581 71.4761 68.0956 71.6373 67.8153 71.7313C67.584 71.8091 67.3178 71.8448 67.026 71.8448C66.8635 71.8448 66.6475 71.8176 66.488 71.7857C66.3285 71.7542 66.2456 71.7185 66.1261 71.6683C66.1261 71.6683 65.9522 71.602 65.8837 71.7763C65.828 71.9188 65.4329 73.0054 65.3861 73.1398C65.3385 73.2725 65.4052 73.3771 65.4894 73.4073C65.6868 73.4779 65.8335 73.523 66.1023 73.5864C66.4757 73.6744 66.7904 73.6799 67.0851 73.6799C67.7026 73.6799 68.2653 73.5932 68.7318 73.4248C69.2014 73.2551 69.6101 72.9595 69.9716 72.5593C70.3624 72.1276 70.6082 71.6755 70.8434 71.0589C71.076 70.4477 71.2742 69.689 71.4329 68.8048L72.9443 60.2527H75.1541C75.1541 60.2527 75.3404 60.2595 75.3791 60.0575L75.6292 58.6625C75.6466 58.529 75.5896 58.4457 75.4102 58.4465H73.2654C73.2761 58.398 73.3735 57.6436 73.6197 56.9333C73.7247 56.6301 73.9225 56.3855 74.0901 56.2176C74.2465 56.0576 74.4392 55.9376 74.6519 55.868C74.885 55.7959 75.1279 55.7609 75.3719 55.7642C75.5739 55.7642 75.7721 55.7884 75.9231 55.8199C76.131 55.8641 76.2118 55.8875 76.2663 55.9037C76.4849 55.9705 76.5142 55.9058 76.5572 55.7999L77.0701 54.3914C77.1228 54.24 76.9944 54.1762 76.9467 54.1575ZM46.9749 68.667C46.9749 68.7793 46.895 68.8708 46.7827 68.8708H45.0037C44.891 68.8708 44.811 68.7793 44.811 68.667V54.3484C44.811 54.2366 44.891 54.146 45.0037 54.146H46.7827C46.895 54.146 46.9749 54.2366 46.9749 54.3484V68.667Z" fill="#00A0E0"/>
</svg>
