<svg width="12" height="12" viewBox="0 0 12 12" fill="none" xmlns="http://www.w3.org/2000/svg">
<path d="M11.0548 1.09561C10.4652 0.389104 9.65224 0 8.76562 0C7.21556 0 6.41412 0.943844 6.01474 1.73561C6.00977 1.74543 6.00485 1.75528 6 1.7651C5.99515 1.75528 5.99023 1.74543 5.98526 1.73561C5.58588 0.943844 4.78444 0 3.23438 0C2.34776 0 1.5348 0.389104 0.945234 1.09564C0.326859 1.83671 0 2.85114 0 4.02927C0 6.53097 1.87924 8.18965 3.53723 9.65306C4.36338 10.3822 5.14371 11.071 5.63484 11.7931C5.72381 11.9239 5.85809 12 6 12C6.14191 12 6.27619 11.9239 6.36518 11.7931C6.61779 11.4217 6.96893 11.0268 7.4703 10.5503C7.67212 10.3584 7.70433 10.0092 7.54221 9.77039C7.38012 9.53158 7.08506 9.49342 6.88322 9.68526C6.5295 10.0215 6.24019 10.3255 6.00021 10.6145C5.47034 9.97527 4.79967 9.38331 4.09774 8.76377C2.54407 7.39244 0.9375 5.9744 0.9375 4.02927C0.9375 2.3101 1.88201 1.10943 3.23438 1.10943C4.11373 1.10943 4.76304 1.50092 5.16422 2.27299C5.48273 2.88587 5.53228 3.52382 5.53261 3.52775C5.55141 3.81673 5.75498 4.04109 5.99988 4.04109C6.24483 4.04109 6.44838 3.81917 6.46718 3.53019C6.46767 3.52382 6.51722 2.88587 6.83573 2.27299C7.23696 1.50092 7.88627 1.10943 8.76562 1.10943C10.118 1.10943 11.0625 2.3101 11.0625 4.02927C11.0625 5.63899 9.95503 6.88704 8.75824 7.99594C8.55443 8.18479 8.51855 8.53346 8.67816 8.77468C8.8377 9.01587 9.13235 9.05833 9.33621 8.86945C9.90551 8.34194 10.6271 7.62911 11.1578 6.79202C11.7245 5.89829 12 4.99458 12 4.02927C12 2.85114 11.6731 1.83671 11.0548 1.09561Z" fill="#95A5A6"/>
</svg>
