<svg width="148" height="38" viewBox="0 0 148 38" fill="none" xmlns="http://www.w3.org/2000/svg">
<mask id="mask0_579_2394" style="mask-type:luminance" maskUnits="userSpaceOnUse" x="0" y="0" width="148" height="38">
<path d="M148 0H0V37.5751H148V0Z" fill="white"/>
</mask>
<g mask="url(#mask0_579_2394)">
<path d="M25.5025 10.3565L10.2842 25.697C10.0195 25.9645 9.59 25.9645 9.32658 25.697L0.198598 16.4997C-0.0661994 16.2322 -0.0661994 15.8003 0.198598 15.5356L15.4128 0.200641C15.6776 -0.0668804 16.107 -0.0668804 16.3705 0.200641L25.5025 9.40491C25.7632 9.66825 25.7632 10.0932 25.5025 10.3565Z" fill="#AEAEAE"/>
<path d="M25.716 20.7752L9.2999 25.6686L0.187012 16.4852L16.6977 11.6824L25.716 20.7752Z" fill="#AEAEAE"/>
<path d="M26.2341 22.0349L11.0144 37.374C10.7496 37.6415 10.3201 37.6415 10.0567 37.374L0.930135 28.1767C0.665337 27.9092 0.665337 27.4773 0.930135 27.2126L16.1443 11.8777C16.4092 11.6101 16.8386 11.6101 17.102 11.8777L26.2341 21.0819C26.4948 21.3452 26.4948 21.7716 26.2341 22.0349Z" fill="#AEAEAE"/>
<path d="M81.6033 20.5426H83.9618C83.9618 21.6238 84.7096 22.2633 85.9759 22.2633C87.2423 22.2633 87.9132 21.7994 87.9132 20.9885C87.9132 19.9644 86.7827 19.7707 85.5163 19.5575C83.8479 19.2858 81.853 18.9584 81.853 16.7374C81.853 14.901 83.387 13.8003 85.9759 13.8003C88.5649 13.8003 90.081 14.9791 90.081 16.9882H87.7225C87.7225 15.9642 87.09 15.3845 85.9773 15.3845C84.9222 15.3845 84.2897 15.8094 84.2897 16.5257C84.2897 17.3951 85.3448 17.5693 86.5713 17.781C88.2782 18.0708 90.3499 18.4178 90.3499 20.6987C90.3499 22.6883 88.7185 23.8866 85.9773 23.8866C83.2154 23.8866 81.6046 22.6493 81.6046 20.5426H81.6033Z" fill="#AEAEAE"/>
<path d="M91.7872 9.72192H94.3186V12.138H91.7872V9.72192ZM91.7872 13.9925H94.3186V23.6928H91.7872V13.9925Z" fill="#AEAEAE"/>
<path d="M124.875 8.81421H127.405V23.6935H124.875V8.81421Z" fill="#AEAEAE"/>
<path d="M138.395 19.1325H131.376C131.472 20.9104 132.316 21.9526 133.678 21.9526C134.867 21.9526 135.692 21.2949 135.942 20.2319H138.398C138.053 22.5322 136.287 23.8851 133.68 23.8851C130.689 23.8851 128.926 22.0111 128.926 18.8428C128.926 15.6743 130.69 13.8003 133.68 13.8003C136.672 13.8003 138.398 15.6548 138.398 18.8428V19.1325H138.395ZM131.393 18.2631H135.92C135.766 16.6398 134.941 15.712 133.676 15.712C132.393 15.712 131.568 16.6398 131.395 18.2631H131.393Z" fill="#AEAEAE"/>
<path d="M139.255 20.5426H141.613C141.613 21.6238 142.361 22.2633 143.627 22.2633C144.894 22.2633 145.565 21.7994 145.565 20.9885C145.565 19.9644 144.434 19.7707 143.167 19.5575C141.5 19.2858 139.505 18.9584 139.505 16.7374C139.505 14.901 141.038 13.8003 143.627 13.8003C146.216 13.8003 147.733 14.9791 147.733 16.9882H145.374C145.374 15.9642 144.741 15.3845 143.629 15.3845C142.573 15.3845 141.941 15.8094 141.941 16.5257C141.941 17.3951 142.997 17.5693 144.223 17.781C145.93 18.0708 148.001 18.4178 148.001 20.6987C148.001 22.6883 146.37 23.8866 143.629 23.8866C140.868 23.8866 139.256 22.6493 139.256 20.5426H139.255Z" fill="#AEAEAE"/>
<path d="M119.501 13.7979C117.746 13.7979 116.566 14.6771 116.193 16.2014H116.029V13.9915H113.5V28.1366H116.032V20.3493H116.07C116.07 22.5716 117.354 23.8855 119.503 23.8855C121.92 23.8855 123.357 22.0116 123.357 18.8431C123.357 15.6733 121.917 13.7992 119.501 13.7992V13.7979ZM118.333 21.8568C116.798 21.8568 115.897 20.6196 115.897 18.8431C115.897 17.0666 116.798 15.8293 118.333 15.8293C119.866 15.8293 120.768 16.9496 120.768 18.8431C120.768 20.7366 119.866 21.8568 118.333 21.8568Z" fill="#AEAEAE"/>
<path d="M108.281 13.7979C106.617 13.7979 105.557 14.8066 105.321 16.565H105.176C104.918 14.8442 103.789 13.7979 102.03 13.7979C100.453 13.7979 99.3844 14.6687 99.0421 16.2014H98.8842V13.9915H96.3525V23.6918H98.8842V18.3387C98.8842 16.7545 99.6321 15.8085 100.917 15.8085C102.047 15.8085 102.701 16.5428 102.701 17.7981V23.6918H105.232V18.3387C105.232 16.7545 105.98 15.8085 107.246 15.8085C108.377 15.8085 109.049 16.5428 109.049 17.7981V23.6918H111.581V17.6825C111.578 15.2274 110.35 13.7979 108.279 13.7979H108.281Z" fill="#AEAEAE"/>
<path d="M116.066 20.3071H115.766V21.378H116.302L116.066 20.3071Z" fill="#AEAEAE"/>
<path d="M33.8298 18.7838C33.8298 15.6726 35.5558 13.8167 38.4329 13.8167C40.7529 13.8167 42.3253 15.0344 42.7877 17.1801H41.2153C40.7941 15.8663 39.835 15.1124 38.4343 15.1124C36.5546 15.1124 35.4419 16.4835 35.4419 18.7838C35.4419 21.0842 36.5546 22.4552 38.4343 22.4552C39.9119 22.4552 40.908 21.6248 41.2729 20.1939H42.8453C42.4241 22.4552 40.8517 23.7692 38.4343 23.7692C35.5572 23.7692 33.8312 21.9132 33.8312 18.7838H33.8298Z" fill="#AEAEAE"/>
<path d="M43.5161 18.7838C43.5161 15.6726 45.2612 13.8167 48.1768 13.8167C51.0923 13.8167 52.8182 15.6712 52.8182 18.7838C52.8182 21.8966 51.0923 23.7692 48.1768 23.7692C45.2612 23.7692 43.5161 21.9132 43.5161 18.7838ZM51.2254 18.7838C51.2254 16.4835 50.0948 15.1124 48.1754 15.1124C46.2559 15.1124 45.1254 16.4835 45.1254 18.7838C45.1254 21.0842 46.2559 22.4552 48.1754 22.4552C50.0948 22.4552 51.2254 21.1023 51.2254 18.7838Z" fill="#AEAEAE"/>
<path d="M66.436 15.1907V20.7766C66.436 21.8397 67.0685 22.4583 68.162 22.4583C68.6422 22.4583 69.1402 22.3426 69.5231 22.149V23.3862C69.025 23.6189 68.3334 23.7722 67.6626 23.7722C65.8981 23.7722 64.8623 22.709 64.8623 20.874V15.1921H63.3284V14.0134H64.9776V10.6875H66.4332L66.4374 14.012H69.6767V15.1907H66.436Z" fill="#AEAEAE"/>
<path d="M59.1276 13.8167C57.4839 13.8167 56.3767 14.6805 56.0254 16.1852H55.8663V14.0103H54.294V23.5755H55.8663V18.3393C55.8663 16.3106 56.8638 15.1124 58.5705 15.1124C60.1044 15.1124 60.988 16.0599 60.988 17.6636V23.5769H62.5603V17.626C62.5603 15.2295 61.2953 13.8194 59.129 13.8194L59.1276 13.8167Z" fill="#AEAEAE"/>
<path d="M77.5406 14.0103V16.1852H77.3979C77.0467 14.6805 75.8215 13.8167 73.9926 13.8167C71.4613 13.8167 69.9644 15.6712 69.9644 18.7838C69.9644 21.8966 71.4599 23.7692 73.9926 23.7692C75.816 23.7692 77.0385 22.8956 77.3939 21.3949H77.5406V23.5755H79.113V14.0103H77.5406ZM77.5064 17.1411H77.5022V17.1272L77.5064 17.1411ZM74.606 22.4552C72.6879 22.4552 71.5765 21.1023 71.5765 18.7838C71.5765 16.4654 72.6893 15.1124 74.606 15.1124C76.5227 15.1124 77.6558 16.5225 77.6558 18.7838C77.6558 21.0452 76.5432 22.4552 74.606 22.4552Z" fill="#AEAEAE"/>
</g>
</svg>
