<svg width="118" height="118" viewBox="0 0 118 118" fill="none" xmlns="http://www.w3.org/2000/svg">
<rect x="0.123047" y="0.0761719" width="116.99" height="116.99" rx="8" fill="#00A443"/>
<path d="M45.3062 38.7976C42.2807 36.5456 38.6007 35.3842 34.8505 35.4978C31.2195 35.4312 27.6524 36.4718 24.6103 38.485C21.5617 40.5722 19.1446 43.4783 17.6287 46.8789C15.8606 50.8658 14.9944 55.204 15.0936 59.5751C15.0936 60.4432 15.127 61.2957 15.1937 62.1325C15.7735 72.4093 22.9553 83.1913 35.4227 83.1913C39.7854 83.3377 44.1342 82.6158 48.2236 81.0662C52.6292 79.1754 49.3551 73.1698 49.3551 73.1698C49.0913 72.5493 48.6016 72.0564 47.9881 71.7938C47.3747 71.5313 46.685 71.5194 46.0632 71.7608C42.6787 73.1072 39.0676 73.7689 35.4329 73.7089C26.4525 73.7089 25.7495 63.1118 25.6828 62.1325H49.6297C50.1382 62.1034 50.6359 61.9721 51.0941 61.7463C51.5522 61.5205 51.9616 61.2047 52.2986 60.8171C52.6356 60.4295 52.8934 59.9779 53.0572 59.4884C53.221 58.9989 53.2874 58.4813 53.2526 57.9656C53.2579 54.6011 52.7222 51.2584 51.6669 48.069C50.5088 44.402 48.293 41.1721 45.3062 38.7976ZM35.2816 45.2251C36.4832 45.1221 37.6902 45.3442 38.7796 45.869C39.869 46.3937 40.8019 47.2023 41.4832 48.2123C42.44 49.9261 43.0105 51.834 43.1535 53.7986H25.9624C26.2484 51.9821 26.9047 50.2462 27.8894 48.7019C28.7275 47.5292 29.8471 46.5935 31.1418 45.9836C32.4365 45.3737 33.8633 45.1099 35.2867 45.2173L35.2816 45.2251Z" fill="white"/>
<path d="M99.6113 59.567C99.7111 55.1974 98.8452 50.8605 97.0774 46.8751C95.5582 43.4782 93.1431 40.5742 90.0992 38.4841C87.0589 36.4708 83.4932 35.4305 79.8638 35.4979C76.1121 35.3838 72.4304 36.5447 69.4027 38.7965C66.4121 41.1696 64.1949 44.402 63.0399 48.0727C61.9892 51.2621 61.4531 54.6029 61.4523 57.9659C61.4176 58.4814 61.484 58.9989 61.6477 59.4882C61.8114 59.9775 62.0691 60.429 62.4059 60.8164C62.7428 61.2039 63.152 61.5196 63.6099 61.7454C64.0678 61.9711 64.5654 62.1023 65.0736 62.1314H89.0092C88.9527 63.1103 88.2398 73.7039 79.2636 73.7039C75.6298 73.7649 72.0193 73.1034 68.6358 71.7565C68.0149 71.5119 67.3246 71.5221 66.711 71.785C66.0974 72.0479 65.6086 72.5428 65.348 73.165C65.348 73.165 62.173 79.1113 66.4765 81.0587C70.5556 82.6395 74.9086 83.3622 79.2713 83.1831C91.7328 83.1831 98.9035 72.4047 99.4934 62.1314C99.572 61.2914 99.6113 60.4366 99.6113 59.567ZM79.438 45.2219C80.8608 45.1141 82.2871 45.3775 83.5813 45.9873C84.8754 46.597 85.9944 47.5327 86.8318 48.7053C87.8148 50.25 88.4715 51.9849 88.7604 53.8003H71.5774C71.7223 51.8364 72.2933 49.9294 73.2496 48.2159C73.9301 47.2065 74.8621 46.3983 75.9506 45.8737C77.039 45.3491 78.245 45.1269 79.4457 45.2297L79.438 45.2219Z" fill="white"/>
</svg>
